<svg width="40" height="40" viewBox="0 0 40 40" fill="none" xmlns="http://www.w3.org/2000/svg">
<g id="Cloud Api" clip-path="url(#clip0_59_4290)">
<g id="Layer 27">
<path id="Vector" d="M38.75 15H1.25V38.75H38.75V15Z" stroke="white" stroke-linejoin="round"/>
<path id="Vector_2" d="M1.25 20H38.75" stroke="white" stroke-linejoin="round"/>
<path id="Vector_3" d="M3.75 17.5H5" stroke="white" stroke-linejoin="round"/>
<path id="Vector_4" d="M6.25 17.5H7.5" stroke="white" stroke-linejoin="round"/>
<path id="Vector_5" d="M8.75 17.5H10" stroke="white" stroke-linejoin="round"/>
<path id="Vector_6" d="M11.25 17.5H12.5" stroke="white" stroke-linejoin="round"/>
<path id="Vector_7" d="M27.5 17.5H37.5" stroke="white" stroke-linejoin="round"/>
<path id="Vector_8" d="M37.8 15C38.5348 13.8608 38.8334 12.4946 38.641 11.1528C38.4486 9.81089 37.7781 8.58363 36.7529 7.6968C35.7276 6.80997 34.4166 6.32322 33.061 6.3261C31.7054 6.32899 30.3965 6.82132 29.375 7.71251C29.3029 6.82958 28.9976 5.98164 28.4902 5.25547C27.9828 4.5293 27.2916 3.95097 26.4873 3.57966C25.683 3.20835 24.7945 3.05739 23.9127 3.14223C23.0309 3.22707 22.1875 3.54466 21.4687 4.06251C20.8997 3.19732 20.1247 2.48708 19.2132 1.9956C18.3017 1.50413 17.2824 1.24683 16.2469 1.24683C15.2113 1.24683 14.192 1.50413 13.2806 1.9956C12.3691 2.48708 11.594 3.19732 11.025 4.06251C10.4093 3.8129 9.74484 3.70679 9.08202 3.75224C8.4192 3.79768 7.77544 3.99348 7.19957 4.32479C6.6237 4.6561 6.13085 5.1142 5.7584 5.66436C5.38595 6.21452 5.14369 6.84228 5.05 7.50001H5C4.00544 7.50001 3.05161 7.8951 2.34835 8.59836C1.64509 9.30162 1.25 10.2554 1.25 11.25C1.25 12.2446 1.64509 13.1984 2.34835 13.9017C3.05161 14.6049 4.00544 15 5 15M33.125 8.75001C33.9538 8.75001 34.7487 9.07925 35.3347 9.6653C35.9208 10.2514 36.25 11.0462 36.25 11.875M5 12.5C4.66848 12.5 4.35054 12.3683 4.11612 12.1339C3.8817 11.8995 3.75 11.5815 3.75 11.25C3.75 10.9185 3.8817 10.6005 4.11612 10.3661C4.35054 10.1317 4.66848 10 5 10" stroke="white" stroke-linejoin="round"/>
<path id="Vector_9" d="M5.625 35.625L10.625 22.5L15.625 35.625" stroke="white" stroke-linejoin="round"/>
<path id="Vector_10" d="M7.5 31.25H13.75" stroke="white" stroke-linejoin="round"/>
<path id="Vector_11" d="M18.125 35.625V23.125H25V28.125H18.125" stroke="white" stroke-linejoin="round"/>
<path id="Vector_12" d="M26.875 23.125H33.125" stroke="white" stroke-linejoin="round"/>
<path id="Vector_13" d="M30 23.125V35" stroke="white" stroke-linejoin="round"/>
<path id="Vector_14" d="M26.875 35H33.125" stroke="white" stroke-linejoin="round"/>
</g>
</g>
<defs>
<clipPath id="clip0_59_4290">
<rect width="40" height="40" fill="white"/>
</clipPath>
</defs>
</svg>
