<svg xmlns="http://www.w3.org/2000/svg" width="261" height="551" viewBox="0 0 261 551" fill="none">
  <g opacity="0.2">
    <path d="M-367.881 357.464C-368.402 355.901 -366.914 354.413 -365.351 354.934L-361.086 356.356C-359.676 356.826 -359.253 358.616 -360.304 359.668L-363.148 362.511C-364.199 363.562 -365.989 363.139 -366.459 361.729L-367.881 357.464Z" fill="#2FB95D"/>
    <path d="M-306.904 418.441C-307.426 416.877 -305.938 415.39 -304.375 415.911L-297.547 418.187C-296.136 418.657 -295.714 420.447 -296.765 421.498L-301.317 426.05C-302.368 427.102 -304.158 426.679 -304.628 425.268L-306.904 418.441Z" fill="#2FB95D"/>
    <path d="M-245.074 480.271C-245.595 478.708 -244.107 477.22 -242.544 477.741L-235.716 480.017C-234.305 480.488 -233.883 482.278 -234.934 483.329L-239.486 487.881C-240.537 488.932 -242.327 488.51 -242.798 487.099L-245.074 480.271Z" fill="#2FB95D"/>
    <path d="M-182.389 542.956C-182.91 541.393 -181.422 539.905 -179.859 540.427L-175.594 541.848C-174.183 542.318 -173.761 544.108 -174.812 545.16L-177.655 548.003C-178.707 549.054 -180.497 548.632 -180.967 547.221L-182.389 542.956Z" fill="#2FB95D"/>
    <path d="M-368.735 232.948C-369.256 231.385 -367.769 229.897 -366.205 230.419L-359.377 232.695C-357.967 233.165 -357.544 234.955 -358.596 236.006L-363.148 240.558C-364.199 241.609 -365.989 241.187 -366.459 239.776L-368.735 232.948Z" fill="#2FB95D"/>
    <path d="M-308.613 293.07C-309.134 291.507 -307.647 290.019 -306.083 290.54L-294.129 294.525C-292.719 294.995 -292.296 296.786 -293.347 297.837L-301.317 305.806C-302.368 306.858 -304.158 306.435 -304.628 305.025L-308.613 293.07Z" fill="#2FB95D"/>
    <path d="M-248.514 353.17C-249.035 351.606 -247.547 350.119 -245.984 350.64L-228.836 356.356C-227.425 356.826 -227.003 358.616 -228.054 359.668L-239.486 371.1C-240.537 372.151 -242.327 371.728 -242.798 370.318L-248.514 353.17Z" fill="#2FB95D"/>
    <path d="M-186.683 415C-187.204 413.437 -185.717 411.95 -184.153 412.471L-167.005 418.187C-165.595 418.657 -165.172 420.447 -166.223 421.498L-177.655 432.93C-178.707 433.982 -180.497 433.559 -180.967 432.149L-186.683 415Z" fill="#2FB95D"/>
    <path d="M-123.121 478.562C-123.642 476.999 -122.155 475.512 -120.591 476.033L-108.637 480.017C-107.226 480.488 -106.804 482.278 -107.855 483.329L-115.825 491.299C-116.876 492.35 -118.666 491.927 -119.136 490.517L-123.121 478.562Z" fill="#2FB95D"/>
    <path d="M-59.5815 542.102C-60.1026 540.538 -58.6152 539.051 -57.0516 539.572L-50.2237 541.848C-48.8132 542.318 -48.3906 544.108 -49.4419 545.16L-53.9939 549.712C-55.0452 550.763 -56.8353 550.34 -57.3055 548.93L-59.5815 542.102Z" fill="#2FB95D"/>
    <path d="M-367.881 110.141C-368.402 108.578 -366.914 107.09 -365.351 107.611L-361.086 109.033C-359.676 109.503 -359.253 111.293 -360.304 112.345L-363.148 115.188C-364.199 116.239 -365.989 115.817 -366.459 114.406L-367.881 110.141Z" fill="#2FB95D"/>
    <path d="M-308.613 169.409C-309.134 167.845 -307.647 166.358 -306.083 166.879L-294.129 170.864C-292.719 171.334 -292.296 173.124 -293.347 174.175L-301.317 182.145C-302.368 183.196 -304.158 182.774 -304.628 181.363L-308.613 169.409Z" fill="#2FB95D"/>
    <path d="M-249.368 228.654C-249.889 227.09 -248.402 225.603 -246.838 226.124L-227.127 232.695C-225.717 233.165 -225.294 234.955 -226.345 236.006L-239.486 249.147C-240.537 250.198 -242.328 249.776 -242.798 248.365L-249.368 228.654Z" fill="#2FB95D"/>
    <path d="M-190.101 287.922C-190.622 286.358 -189.134 284.871 -187.571 285.392L-160.17 294.525C-158.759 294.995 -158.337 296.786 -159.388 297.837L-177.655 316.104C-178.707 317.155 -180.497 316.733 -180.967 315.322L-190.101 287.922Z" fill="#2FB95D"/>
    <path d="M-128.27 349.752C-128.791 348.189 -127.303 346.701 -125.74 347.222L-98.3392 356.356C-96.9288 356.826 -96.5062 358.616 -97.5575 359.668L-115.825 377.935C-116.876 378.986 -118.666 378.563 -119.136 377.153L-128.27 349.752Z" fill="#2FB95D"/>
    <path d="M-63.8759 414.146C-64.3971 412.583 -62.9096 411.095 -61.3461 411.616L-41.6348 418.187C-40.2244 418.657 -39.8018 420.447 -40.8531 421.498L-53.9939 434.639C-55.0452 435.69 -56.8353 435.268 -57.3055 433.857L-63.8759 414.146Z" fill="#2FB95D"/>
    <path d="M0.540497 478.562C0.0193481 476.999 1.50681 475.512 3.07031 476.033L15.0246 480.017C16.4351 480.488 16.8577 482.278 15.8064 483.329L7.83685 491.299C6.78555 492.35 4.99542 491.927 4.52527 490.517L0.540497 478.562Z" fill="#2FB95D"/>
    <path d="M64.9344 542.956C64.4132 541.393 65.9007 539.905 67.4642 540.427L71.729 541.848C73.1395 542.318 73.5621 544.108 72.5108 545.16L69.6676 548.003C68.6163 549.054 66.8261 548.632 66.356 547.221L64.9344 542.956Z" fill="#2FB95D"/>
    <path d="M-306.904 47.4562C-307.426 45.8927 -305.938 44.4052 -304.375 44.9264L-297.547 47.2023C-296.136 47.6725 -295.714 49.4626 -296.765 50.5139L-301.317 55.0659C-302.368 56.1172 -304.158 55.6946 -304.628 54.2841L-306.904 47.4562Z" fill="#2FB95D"/>
    <path d="M-248.514 105.847C-249.035 104.283 -247.547 102.796 -245.984 103.317L-228.836 109.033C-227.425 109.503 -227.003 111.293 -228.054 112.345L-239.486 123.777C-240.537 124.828 -242.327 124.405 -242.798 122.995L-248.514 105.847Z" fill="#2FB95D"/>
    <path d="M-190.101 164.26C-190.622 162.697 -189.134 161.209 -187.571 161.73L-160.17 170.864C-158.759 171.334 -158.337 173.124 -159.388 174.175L-177.655 192.443C-178.707 193.494 -180.497 193.071 -180.967 191.661L-190.101 164.26Z" fill="#2FB95D"/>
    <path d="M-131.71 222.651C-132.231 221.087 -130.744 219.6 -129.18 220.121L-91.4592 232.695C-90.0487 233.165 -89.6261 234.955 -90.6774 236.006L-115.825 261.153C-116.876 262.205 -118.666 261.782 -119.136 260.372L-131.71 222.651Z" fill="#2FB95D"/>
    <path d="M-69.8791 284.481C-70.4003 282.918 -68.9128 281.43 -67.3493 281.952L-29.6284 294.525C-28.218 294.995 -27.7954 296.786 -28.8467 297.837L-53.9939 322.984C-55.0452 324.035 -56.8353 323.613 -57.3055 322.202L-69.8791 284.481Z" fill="#2FB95D"/>
    <path d="M-4.60834 349.752C-5.12952 348.189 -3.64203 346.701 -2.07852 347.222L25.3222 356.356C26.7327 356.826 27.1553 358.616 26.104 359.668L7.83682 377.935C6.78552 378.986 4.99539 378.563 4.52524 377.153L-4.60834 349.752Z" fill="#2FB95D"/>
    <path d="M60.64 415.001C60.1188 413.437 61.6063 411.95 63.1698 412.471L80.3178 418.187C81.7283 418.657 82.1509 420.447 81.0996 421.498L69.6676 432.93C68.6163 433.982 66.8261 433.559 66.356 432.149L60.64 415.001Z" fill="#2FB95D"/>
    <path d="M125.911 480.271C125.39 478.708 126.877 477.22 128.441 477.741L135.268 480.017C136.679 480.488 137.102 482.278 136.05 483.329L131.498 487.881C130.447 488.932 128.657 488.51 128.187 487.099L125.911 480.271Z" fill="#2FB95D"/>
    <path d="M-245.074 -14.3745C-245.595 -15.938 -244.107 -17.4255 -242.544 -16.9044L-235.716 -14.6284C-234.305 -14.1582 -233.883 -12.3681 -234.934 -11.3168L-239.486 -6.76482C-240.537 -5.71352 -242.327 -6.13612 -242.798 -7.54659L-245.074 -14.3745Z" fill="#2FB95D"/>
    <path d="M-186.683 44.0161C-187.204 42.4526 -185.717 40.9651 -184.153 41.4863L-167.005 47.2023C-165.595 47.6725 -165.172 49.4626 -166.223 50.5139L-177.655 61.946C-178.707 62.9973 -180.497 62.5747 -180.967 61.1642L-186.683 44.0161Z" fill="#2FB95D"/>
    <path d="M-128.27 102.429C-128.791 100.866 -127.303 99.3783 -125.74 99.8995L-98.3392 109.033C-96.9288 109.503 -96.5062 111.293 -97.5575 112.345L-115.825 130.612C-116.876 131.663 -118.666 131.241 -119.136 129.83L-128.27 102.429Z" fill="#2FB95D"/>
    <path d="M-69.8791 160.82C-70.4003 159.257 -68.9128 157.769 -67.3493 158.29L-29.6284 170.864C-28.218 171.334 -27.7954 173.124 -28.8467 174.175L-53.9939 199.323C-55.0452 200.374 -56.8353 199.951 -57.3055 198.541L-69.8791 160.82Z" fill="#2FB95D"/>
    <path d="M-8.04837 222.651C-8.56955 221.087 -7.08206 219.6 -5.51855 220.121L32.2023 232.695C33.6128 233.165 34.0353 234.955 32.984 236.006L7.83682 261.153C6.78552 262.205 4.99539 261.782 4.52524 260.372L-8.04837 222.651Z" fill="#2FB95D"/>
    <path d="M57.2224 287.922C56.7012 286.358 58.1887 284.871 59.7522 285.392L87.1529 294.525C88.5634 294.995 88.986 296.786 87.9347 297.837L69.6675 316.104C68.6162 317.155 66.8261 316.733 66.356 315.322L57.2224 287.922Z" fill="#2FB95D"/>
    <path d="M122.471 353.17C121.95 351.606 123.437 350.119 125.001 350.64L142.149 356.356C143.559 356.826 143.982 358.616 142.93 359.668L131.498 371.1C130.447 372.151 128.657 371.728 128.187 370.318L122.471 353.17Z" fill="#2FB95D"/>
    <path d="M187.741 418.441C187.22 416.877 188.708 415.39 190.271 415.911L197.099 418.187C198.51 418.657 198.932 420.447 197.881 421.498L193.329 426.05C192.278 427.102 190.488 426.679 190.017 425.268L187.741 418.441Z" fill="#2FB95D"/>
    <path d="M-182.389 -75.3509C-182.91 -76.9144 -181.422 -78.4019 -179.859 -77.8807L-175.594 -76.4591C-174.183 -75.989 -173.761 -74.1988 -174.812 -73.1475L-177.655 -70.3043C-178.707 -69.253 -180.497 -69.6756 -180.967 -71.0861L-182.389 -75.3509Z" fill="#2FB95D"/>
    <path d="M-123.121 -16.0833C-123.642 -17.6468 -122.155 -19.1343 -120.591 -18.6132L-108.637 -14.6284C-107.226 -14.1582 -106.804 -12.3681 -107.855 -11.3168L-115.825 -3.34729C-116.876 -2.29599 -118.666 -2.71858 -119.136 -4.12905L-123.121 -16.0833Z" fill="#2FB95D"/>
    <path d="M-63.8759 43.1618C-64.3971 41.5982 -62.9096 40.1108 -61.3461 40.6319L-41.6349 47.2023C-40.2244 47.6725 -39.8018 49.4626 -40.8531 50.5139L-53.9939 63.6547C-55.0452 64.7061 -56.8353 64.2835 -57.3055 62.873L-63.8759 43.1618Z" fill="#2FB95D"/>
    <path d="M-4.60834 102.429C-5.12952 100.866 -3.64203 99.3783 -2.07852 99.8995L25.3222 109.033C26.7327 109.503 27.1553 111.293 26.104 112.345L7.83682 130.612C6.78552 131.663 4.99539 131.241 4.52524 129.83L-4.60834 102.429Z" fill="#2FB95D"/>
    <path d="M57.2224 164.26C56.7012 162.697 58.1887 161.209 59.7522 161.73L87.1529 170.864C88.5634 171.334 88.986 173.124 87.9347 174.175L69.6675 192.443C68.6162 193.494 66.8261 193.071 66.356 191.661L57.2224 164.26Z" fill="#2FB95D"/>
    <path d="M121.616 228.654C121.095 227.09 122.583 225.603 124.146 226.124L143.857 232.695C145.268 233.165 145.69 234.955 144.639 236.006L131.498 249.147C130.447 250.198 128.657 249.776 128.187 248.365L121.616 228.654Z" fill="#2FB95D"/>
    <path d="M186.033 293.07C185.512 291.507 186.999 290.019 188.562 290.54L200.517 294.525C201.927 294.995 202.35 296.786 201.299 297.837L193.329 305.806C192.278 306.858 190.488 306.435 190.017 305.025L186.033 293.07Z" fill="#2FB95D"/>
    <path d="M250.427 357.464C249.905 355.901 251.393 354.413 252.956 354.934L257.221 356.356C258.632 356.826 259.054 358.616 258.003 359.668L255.16 362.511C254.108 363.562 252.318 363.139 251.848 361.729L250.427 357.464Z" fill="#2FB95D"/>
    <path d="M-59.5815 -76.2053C-60.1026 -77.7688 -58.6151 -79.2563 -57.0516 -78.7351L-50.2237 -76.4591C-48.8132 -75.9889 -48.3906 -74.1988 -49.4419 -73.1475L-53.9939 -68.5955C-55.0452 -67.5442 -56.8353 -67.9668 -57.3055 -69.3773L-59.5815 -76.2053Z" fill="#2FB95D"/>
    <path d="M0.540497 -16.0833C0.0193481 -17.6468 1.50681 -19.1343 3.07034 -18.6132L15.0246 -14.6284C16.4351 -14.1582 16.8577 -12.3681 15.8064 -11.3168L7.83685 -3.34729C6.78555 -2.29599 4.99542 -2.71858 4.52527 -4.12905L0.540497 -16.0833Z" fill="#2FB95D"/>
    <path d="M60.64 44.0162C60.1188 42.4526 61.6063 40.9652 63.1698 41.4863L80.3178 47.2023C81.7283 47.6725 82.1509 49.4626 81.0996 50.5139L69.6676 61.946C68.6163 62.9973 66.8261 62.5747 66.356 61.1642L60.64 44.0162Z" fill="#2FB95D"/>
    <path d="M122.471 105.847C121.95 104.283 123.437 102.796 125.001 103.317L142.149 109.033C143.559 109.503 143.982 111.293 142.93 112.345L131.498 123.777C130.447 124.828 128.657 124.405 128.187 122.995L122.471 105.847Z" fill="#2FB95D"/>
    <path d="M186.033 169.409C185.512 167.845 186.999 166.358 188.562 166.879L200.517 170.864C201.927 171.334 202.35 173.124 201.299 174.175L193.329 182.145C192.278 183.196 190.488 182.774 190.017 181.363L186.033 169.409Z" fill="#2FB95D"/>
    <path d="M249.572 232.948C249.051 231.385 250.538 229.897 252.102 230.419L258.93 232.695C260.34 233.165 260.763 234.955 259.712 236.006L255.16 240.558C254.108 241.609 252.318 241.187 251.848 239.776L249.572 232.948Z" fill="#2FB95D"/>
    <path d="M64.9344 -75.3509C64.4132 -76.9144 65.9007 -78.4019 67.4642 -77.8807L71.729 -76.4591C73.1395 -75.989 73.5621 -74.1988 72.5108 -73.1475L69.6676 -70.3043C68.6163 -69.253 66.8261 -69.6756 66.356 -71.0861L64.9344 -75.3509Z" fill="#2FB95D"/>
    <path d="M125.911 -14.3745C125.39 -15.938 126.877 -17.4255 128.441 -16.9044L135.268 -14.6284C136.679 -14.1582 137.102 -12.3681 136.05 -11.3168L131.498 -6.76483C130.447 -5.71352 128.657 -6.13612 128.187 -7.54659L125.911 -14.3745Z" fill="#2FB95D"/>
    <path d="M187.741 47.4562C187.22 45.8927 188.708 44.4052 190.271 44.9264L197.099 47.2023C198.51 47.6725 198.932 49.4626 197.881 50.5139L193.329 55.0659C192.278 56.1172 190.488 55.6946 190.017 54.2841L187.741 47.4562Z" fill="#2FB95D"/>
    <path d="M250.427 110.141C249.905 108.578 251.393 107.09 252.956 107.611L257.221 109.033C258.632 109.503 259.054 111.293 258.003 112.345L255.16 115.188C254.108 116.239 252.318 115.817 251.848 114.406L250.427 110.141Z" fill="#2FB95D"/>
  </g>
</svg>