<svg width="183" height="55" viewBox="0 0 183 55" fill="none" xmlns="http://www.w3.org/2000/svg">
<path d="M28.681 8.554C28.3657 10.3313 27.6203 11.822 26.445 13.026C25.2983 14.2013 23.9223 15.004 22.317 15.434C23.779 15.778 24.9113 16.4803 25.714 17.541C26.5453 18.6017 26.961 19.863 26.961 21.325C26.961 21.7837 26.918 22.2567 26.832 22.744C26.402 25.324 25.1693 27.345 23.134 28.807C21.0987 30.269 18.4613 31 15.222 31H0.215L5.59 0.684998H20.124C22.876 0.684998 25.0117 1.244 26.531 2.362C28.0503 3.45133 28.81 5.01367 28.81 7.049C28.81 7.53633 28.767 8.038 28.681 8.554ZM19.78 10.102C19.8087 9.95867 19.823 9.74367 19.823 9.457C19.823 8.081 18.92 7.393 17.114 7.393H12.857L11.911 12.768H16.168C18.2607 12.768 19.4647 11.8793 19.78 10.102ZM18.447 21.54C18.4757 21.3967 18.49 21.196 18.49 20.938C18.49 20.2213 18.2463 19.6767 17.759 19.304C17.3003 18.9027 16.6123 18.702 15.695 18.702H10.836L9.89 24.249H14.792C16.8847 24.249 18.103 23.346 18.447 21.54ZM61.5716 0.684998L56.2396 31H47.7686L49.9186 18.831H39.6846L37.5346 31H29.0636L34.4386 0.684998H42.8666L40.8456 12.123H51.1226L53.1436 0.684998H61.5716ZM81.1007 26.055H70.3507L67.8567 31H58.9987L75.3817 0.684998H85.0997L90.7757 31H81.8747L81.1007 26.055ZM80.1117 19.648L78.6067 9.801L73.6187 19.648H80.1117ZM112.142 0.684998C115.324 0.684998 117.746 1.40166 119.409 2.835C121.071 4.23967 121.903 6.11733 121.903 8.468C121.903 9.18467 121.845 9.82967 121.731 10.403C121.387 12.467 120.512 14.2873 119.108 15.864C117.703 17.412 115.84 18.5157 113.518 19.175L118.248 31H108.874L104.832 19.82H103.929L101.951 31H93.4796L98.8546 0.684998H112.142ZM104.961 14.058H109.132C111.368 14.058 112.686 12.9973 113.088 10.876C113.145 10.532 113.174 10.2883 113.174 10.145C113.174 9.371 112.916 8.769 112.4 8.339C111.912 7.909 111.181 7.694 110.207 7.694H106.036L104.961 14.058ZM141.989 26.055H131.239L128.745 31H119.887L136.27 0.684998H145.988L151.664 31H142.763L141.989 26.055ZM141 19.648L139.495 9.801L134.507 19.648H141ZM182.576 0.684998L181.372 7.393H173.331L169.16 31H160.689L164.86 7.393H156.862L158.066 0.684998H182.576Z" fill="#0155A5"/>
<path d="M9.195 46.95C9.195 47.59 9.045 48.175 8.745 48.705C8.455 49.225 8.01 49.645 7.41 49.965C6.82 50.275 6.095 50.43 5.235 50.43H3.78V54H0.84V43.425H5.235C6.085 43.425 6.805 43.575 7.395 43.875C7.995 44.175 8.445 44.59 8.745 45.12C9.045 45.65 9.195 46.26 9.195 46.95ZM4.95 48.09C5.78 48.09 6.195 47.71 6.195 46.95C6.195 46.18 5.78 45.795 4.95 45.795H3.78V48.09H4.95ZM9.89613 49.785C9.89613 48.915 10.0511 48.155 10.3611 47.505C10.6811 46.855 11.1111 46.355 11.6511 46.005C12.2011 45.655 12.8111 45.48 13.4811 45.48C14.0611 45.48 14.5611 45.595 14.9811 45.825C15.4011 46.055 15.7261 46.365 15.9561 46.755V45.585H18.8961V54H15.9561V52.83C15.7261 53.22 15.3961 53.53 14.9661 53.76C14.5461 53.99 14.0511 54.105 13.4811 54.105C12.8111 54.105 12.2011 53.93 11.6511 53.58C11.1111 53.23 10.6811 52.73 10.3611 52.08C10.0511 51.42 9.89613 50.655 9.89613 49.785ZM15.9561 49.785C15.9561 49.245 15.8061 48.82 15.5061 48.51C15.2161 48.2 14.8561 48.045 14.4261 48.045C13.9861 48.045 13.6211 48.2 13.3311 48.51C13.0411 48.81 12.8961 49.235 12.8961 49.785C12.8961 50.325 13.0411 50.755 13.3311 51.075C13.6211 51.385 13.9861 51.54 14.4261 51.54C14.8561 51.54 15.2161 51.385 15.5061 51.075C15.8061 50.765 15.9561 50.335 15.9561 49.785ZM23.5114 47.07C23.8414 46.59 24.2414 46.21 24.7114 45.93C25.1814 45.65 25.6864 45.51 26.2264 45.51V48.645H25.4014C24.7614 48.645 24.2864 48.77 23.9764 49.02C23.6664 49.27 23.5114 49.705 23.5114 50.325V54H20.5714V45.585H23.5114V47.07ZM26.8004 49.785C26.8004 48.915 26.9804 48.155 27.3404 47.505C27.7004 46.855 28.2004 46.355 28.8404 46.005C29.4904 45.655 30.2304 45.48 31.0604 45.48C32.1304 45.48 33.0304 45.775 33.7604 46.365C34.4904 46.945 34.9604 47.76 35.1704 48.81H32.0504C31.8704 48.26 31.5204 47.985 31.0004 47.985C30.6304 47.985 30.3354 48.14 30.1154 48.45C29.9054 48.75 29.8004 49.195 29.8004 49.785C29.8004 50.375 29.9054 50.825 30.1154 51.135C30.3354 51.445 30.6304 51.6 31.0004 51.6C31.5304 51.6 31.8804 51.325 32.0504 50.775H35.1704C34.9604 51.815 34.4904 52.63 33.7604 53.22C33.0304 53.81 32.1304 54.105 31.0604 54.105C30.2304 54.105 29.4904 53.93 28.8404 53.58C28.2004 53.23 27.7004 52.73 27.3404 52.08C26.9804 51.43 26.8004 50.665 26.8004 49.785ZM44.4318 49.695C44.4318 49.925 44.4168 50.155 44.3868 50.385H38.8218C38.8518 50.845 38.9768 51.19 39.1968 51.42C39.4268 51.64 39.7168 51.75 40.0668 51.75C40.5568 51.75 40.9068 51.53 41.1168 51.09H44.2518C44.1218 51.67 43.8668 52.19 43.4868 52.65C43.1168 53.1 42.6468 53.455 42.0768 53.715C41.5068 53.975 40.8768 54.105 40.1868 54.105C39.3568 54.105 38.6168 53.93 37.9668 53.58C37.3268 53.23 36.8218 52.73 36.4518 52.08C36.0918 51.43 35.9118 50.665 35.9118 49.785C35.9118 48.905 36.0918 48.145 36.4518 47.505C36.8118 46.855 37.3118 46.355 37.9518 46.005C38.6018 45.655 39.3468 45.48 40.1868 45.48C41.0168 45.48 41.7518 45.65 42.3918 45.99C43.0318 46.33 43.5318 46.82 43.8918 47.46C44.2518 48.09 44.4318 48.835 44.4318 49.695ZM41.4318 48.96C41.4318 48.6 41.3118 48.32 41.0718 48.12C40.8318 47.91 40.5318 47.805 40.1718 47.805C39.8118 47.805 39.5168 47.905 39.2868 48.105C39.0568 48.295 38.9068 48.58 38.8368 48.96H41.4318ZM48.5749 42.9V54H45.6349V42.9H48.5749ZM57.1103 54.105C55.8803 54.105 54.8703 53.815 54.0803 53.235C53.2903 52.645 52.8653 51.805 52.8053 50.715H55.9403C55.9703 51.085 56.0803 51.355 56.2703 51.525C56.4603 51.695 56.7053 51.78 57.0053 51.78C57.2753 51.78 57.4953 51.715 57.6653 51.585C57.8453 51.445 57.9353 51.255 57.9353 51.015C57.9353 50.705 57.7903 50.465 57.5003 50.295C57.2103 50.125 56.7403 49.935 56.0903 49.725C55.4003 49.495 54.8403 49.275 54.4103 49.065C53.9903 48.845 53.6203 48.53 53.3003 48.12C52.9903 47.7 52.8353 47.155 52.8353 46.485C52.8353 45.805 53.0053 45.225 53.3453 44.745C53.6853 44.255 54.1553 43.885 54.7553 43.635C55.3553 43.385 56.0353 43.26 56.7953 43.26C58.0253 43.26 59.0053 43.55 59.7353 44.13C60.4753 44.7 60.8703 45.505 60.9203 46.545H57.7253C57.7153 46.225 57.6153 45.985 57.4253 45.825C57.2453 45.665 57.0103 45.585 56.7203 45.585C56.5003 45.585 56.3203 45.65 56.1803 45.78C56.0403 45.91 55.9703 46.095 55.9703 46.335C55.9703 46.535 56.0453 46.71 56.1953 46.86C56.3553 47 56.5503 47.125 56.7803 47.235C57.0103 47.335 57.3503 47.465 57.8003 47.625C58.4703 47.855 59.0203 48.085 59.4503 48.315C59.8903 48.535 60.2653 48.85 60.5753 49.26C60.8953 49.66 61.0553 50.17 61.0553 50.79C61.0553 51.42 60.8953 51.985 60.5753 52.485C60.2653 52.985 59.8103 53.38 59.2103 53.67C58.6203 53.96 57.9203 54.105 57.1103 54.105ZM70.462 49.695C70.462 49.925 70.447 50.155 70.417 50.385H64.852C64.882 50.845 65.007 51.19 65.227 51.42C65.457 51.64 65.747 51.75 66.097 51.75C66.587 51.75 66.937 51.53 67.147 51.09H70.282C70.152 51.67 69.897 52.19 69.517 52.65C69.147 53.1 68.677 53.455 68.107 53.715C67.537 53.975 66.907 54.105 66.217 54.105C65.387 54.105 64.647 53.93 63.997 53.58C63.357 53.23 62.852 52.73 62.482 52.08C62.122 51.43 61.942 50.665 61.942 49.785C61.942 48.905 62.122 48.145 62.482 47.505C62.842 46.855 63.342 46.355 63.982 46.005C64.632 45.655 65.377 45.48 66.217 45.48C67.047 45.48 67.782 45.65 68.422 45.99C69.062 46.33 69.562 46.82 69.922 47.46C70.282 48.09 70.462 48.835 70.462 49.695ZM67.462 48.96C67.462 48.6 67.342 48.32 67.102 48.12C66.862 47.91 66.562 47.805 66.202 47.805C65.842 47.805 65.547 47.905 65.317 48.105C65.087 48.295 64.937 48.58 64.867 48.96H67.462ZM74.6052 47.07C74.9352 46.59 75.3352 46.21 75.8052 45.93C76.2752 45.65 76.7802 45.51 77.3202 45.51V48.645H76.4952C75.8552 48.645 75.3802 48.77 75.0702 49.02C74.7602 49.27 74.6052 49.705 74.6052 50.325V54H71.6652V45.585H74.6052V47.07ZM82.4092 51.225L83.9842 45.585H87.1192L84.2242 54H80.5642L77.6692 45.585H80.8042L82.4092 51.225ZM89.6004 44.805C89.0804 44.805 88.6604 44.665 88.3404 44.385C88.0304 44.095 87.8754 43.735 87.8754 43.305C87.8754 42.865 88.0304 42.5 88.3404 42.21C88.6604 41.92 89.0804 41.775 89.6004 41.775C90.1104 41.775 90.5204 41.92 90.8304 42.21C91.1504 42.5 91.3104 42.865 91.3104 43.305C91.3104 43.735 91.1504 44.095 90.8304 44.385C90.5204 44.665 90.1104 44.805 89.6004 44.805ZM91.0554 45.585V54H88.1154V45.585H91.0554ZM92.2496 49.785C92.2496 48.915 92.4296 48.155 92.7896 47.505C93.1496 46.855 93.6496 46.355 94.2896 46.005C94.9396 45.655 95.6796 45.48 96.5096 45.48C97.5796 45.48 98.4796 45.775 99.2096 46.365C99.9396 46.945 100.41 47.76 100.62 48.81H97.4996C97.3196 48.26 96.9696 47.985 96.4496 47.985C96.0796 47.985 95.7846 48.14 95.5646 48.45C95.3546 48.75 95.2496 49.195 95.2496 49.785C95.2496 50.375 95.3546 50.825 95.5646 51.135C95.7846 51.445 96.0796 51.6 96.4496 51.6C96.9796 51.6 97.3296 51.325 97.4996 50.775H100.62C100.41 51.815 99.9396 52.63 99.2096 53.22C98.4796 53.81 97.5796 54.105 96.5096 54.105C95.6796 54.105 94.9396 53.93 94.2896 53.58C93.6496 53.23 93.1496 52.73 92.7896 52.08C92.4296 51.43 92.2496 50.665 92.2496 49.785ZM109.881 49.695C109.881 49.925 109.866 50.155 109.836 50.385H104.271C104.301 50.845 104.426 51.19 104.646 51.42C104.876 51.64 105.166 51.75 105.516 51.75C106.006 51.75 106.356 51.53 106.566 51.09H109.701C109.571 51.67 109.316 52.19 108.936 52.65C108.566 53.1 108.096 53.455 107.526 53.715C106.956 53.975 106.326 54.105 105.636 54.105C104.806 54.105 104.066 53.93 103.416 53.58C102.776 53.23 102.271 52.73 101.901 52.08C101.541 51.43 101.361 50.665 101.361 49.785C101.361 48.905 101.541 48.145 101.901 47.505C102.261 46.855 102.761 46.355 103.401 46.005C104.051 45.655 104.796 45.48 105.636 45.48C106.466 45.48 107.201 45.65 107.841 45.99C108.481 46.33 108.981 46.82 109.341 47.46C109.701 48.09 109.881 48.835 109.881 49.695ZM106.881 48.96C106.881 48.6 106.761 48.32 106.521 48.12C106.281 47.91 105.981 47.805 105.621 47.805C105.261 47.805 104.966 47.905 104.736 48.105C104.506 48.295 104.356 48.58 104.286 48.96H106.881ZM114.669 54.105C113.909 54.105 113.229 53.98 112.629 53.73C112.039 53.47 111.569 53.12 111.219 52.68C110.879 52.23 110.689 51.725 110.649 51.165H113.499C113.539 51.435 113.664 51.645 113.874 51.795C114.084 51.945 114.344 52.02 114.654 52.02C114.894 52.02 115.084 51.97 115.224 51.87C115.364 51.77 115.434 51.64 115.434 51.48C115.434 51.27 115.319 51.115 115.089 51.015C114.859 50.915 114.479 50.805 113.949 50.685C113.349 50.565 112.849 50.43 112.449 50.28C112.049 50.13 111.699 49.885 111.399 49.545C111.109 49.205 110.964 48.745 110.964 48.165C110.964 47.665 111.099 47.215 111.369 46.815C111.639 46.405 112.034 46.08 112.554 45.84C113.084 45.6 113.719 45.48 114.459 45.48C115.559 45.48 116.424 45.75 117.054 46.29C117.684 46.83 118.049 47.54 118.149 48.42H115.494C115.444 48.15 115.324 47.945 115.134 47.805C114.954 47.655 114.709 47.58 114.399 47.58C114.159 47.58 113.974 47.625 113.844 47.715C113.724 47.805 113.664 47.93 113.664 48.09C113.664 48.29 113.779 48.445 114.009 48.555C114.239 48.655 114.609 48.76 115.119 48.87C115.729 49 116.234 49.145 116.634 49.305C117.044 49.465 117.399 49.725 117.699 50.085C118.009 50.435 118.164 50.915 118.164 51.525C118.164 52.015 118.019 52.455 117.729 52.845C117.449 53.235 117.044 53.545 116.514 53.775C115.994 53.995 115.379 54.105 114.669 54.105ZM130.836 46.95C130.836 47.59 130.686 48.175 130.386 48.705C130.096 49.225 129.651 49.645 129.051 49.965C128.461 50.275 127.736 50.43 126.876 50.43H125.421V54H122.481V43.425H126.876C127.726 43.425 128.446 43.575 129.036 43.875C129.636 44.175 130.086 44.59 130.386 45.12C130.686 45.65 130.836 46.26 130.836 46.95ZM126.591 48.09C127.421 48.09 127.836 47.71 127.836 46.95C127.836 46.18 127.421 45.795 126.591 45.795H125.421V48.09H126.591ZM136.052 51.225L137.627 45.585H140.762L137.867 54H134.207L131.312 45.585H134.447L136.052 51.225ZM146.723 51.495V54H145.448C143.298 54 142.223 52.935 142.223 50.805V48.03H141.188V45.585H142.223V43.545H145.178V45.585H146.708V48.03H145.178V50.85C145.178 51.08 145.228 51.245 145.328 51.345C145.438 51.445 145.618 51.495 145.868 51.495H146.723ZM153.883 51.75H157.168V54H150.943V43.425H153.883V51.75ZM163.276 51.495V54H162.001C159.851 54 158.776 52.935 158.776 50.805V48.03H157.741V45.585H158.776V43.545H161.731V45.585H163.261V48.03H161.731V50.85C161.731 51.08 161.781 51.245 161.881 51.345C161.991 51.445 162.171 51.495 162.421 51.495H163.276ZM164.144 49.785C164.144 48.915 164.299 48.155 164.609 47.505C164.929 46.855 165.364 46.355 165.914 46.005C166.464 45.655 167.074 45.48 167.744 45.48C168.284 45.48 168.764 45.595 169.184 45.825C169.614 46.045 169.949 46.35 170.189 46.74V42.9H173.144V54H170.189V52.83C169.959 53.22 169.634 53.53 169.214 53.76C168.794 53.99 168.299 54.105 167.729 54.105C167.059 54.105 166.449 53.93 165.899 53.58C165.359 53.23 164.929 52.73 164.609 52.08C164.299 51.42 164.144 50.655 164.144 49.785ZM170.204 49.785C170.204 49.245 170.054 48.82 169.754 48.51C169.464 48.2 169.104 48.045 168.674 48.045C168.234 48.045 167.869 48.2 167.579 48.51C167.289 48.81 167.144 49.235 167.144 49.785C167.144 50.325 167.289 50.755 167.579 51.075C167.869 51.385 168.234 51.54 168.674 51.54C169.104 51.54 169.464 51.385 169.754 51.075C170.054 50.765 170.204 50.335 170.204 49.785ZM176.244 54.12C175.724 54.12 175.304 53.98 174.984 53.7C174.674 53.41 174.519 53.045 174.519 52.605C174.519 52.165 174.674 51.8 174.984 51.51C175.304 51.22 175.724 51.075 176.244 51.075C176.754 51.075 177.164 51.22 177.474 51.51C177.794 51.8 177.954 52.165 177.954 52.605C177.954 53.035 177.794 53.395 177.474 53.685C177.164 53.975 176.754 54.12 176.244 54.12Z" fill="#1C2F41"/>
</svg>
