<svg width="217" height="629" viewBox="0 0 217 629" fill="none" xmlns="http://www.w3.org/2000/svg">
<path d="M81.4958 578.461H103.359L107.373 328.83H49.4341L81.4958 578.461Z" fill="url(#paint0_linear_145_4502)"/>
<path d="M107.373 328.83L111.442 578.461H133.25L165.312 328.83H107.373Z" fill="url(#paint1_linear_145_4502)"/>
<path d="M81.8216 578.461H102.925C102.925 578.461 105.583 594.597 104.01 598.644C102.437 602.692 99.7783 605.809 98.4763 605.809C97.1201 605.809 95.3841 605.59 92.2376 611.662C89.1453 617.678 75.5828 634.306 60.8811 625.992C46.2337 617.678 69.1271 601.543 73.7926 594.597C78.4581 587.65 81.8216 578.461 81.8216 578.461Z" fill="#00081A"/>
<path d="M92.4003 587.267C97.2285 587.267 101.135 583.329 101.135 578.461H83.666C83.666 583.329 87.572 587.267 92.4003 587.267Z" fill="#FCB2BA"/>
<path d="M132.816 578.461H111.713C111.713 578.461 109.055 594.597 110.628 598.644C112.201 602.692 114.86 605.809 116.162 605.809C117.464 605.809 119.254 605.59 122.4 611.662C125.493 617.678 139.055 634.306 153.757 625.992C168.404 617.678 145.511 601.543 140.845 594.597C136.126 587.65 132.816 578.461 132.816 578.461Z" fill="#00081A"/>
<path d="M122.238 587.267C117.409 587.267 113.503 583.329 113.503 578.461H130.918C130.918 583.329 127.012 587.267 122.238 587.267Z" fill="#FCB2BA"/>
<path d="M153.649 111.798C137.428 106.985 123.811 103.32 123.811 103.32H107.156H90.0134C90.0134 103.32 76.8306 106.985 60.6641 111.798C37.7706 118.635 23.3401 127.988 15.7993 168.736H107.102H198.405C190.918 127.988 176.542 118.635 153.649 111.798Z" fill="url(#paint2_linear_145_4502)"/>
<path d="M11.2422 188.318L0.717728 231.692C-0.421522 235.247 -0.204523 239.13 1.36873 242.521L16.0162 274.19H31.0435V198.71L11.2422 188.318Z" fill="url(#paint3_linear_145_4502)"/>
<path d="M107.373 284.09L40.2119 287.426L44.1722 338.348H107.373H170.086L174.589 287.426L107.373 284.09Z" fill="url(#paint4_linear_145_4502)"/>
<path d="M203.504 188.318L214.029 231.692C215.168 235.247 214.951 239.13 213.378 242.521L198.73 274.19H183.703V198.71L203.504 188.318Z" fill="url(#paint5_linear_145_4502)"/>
<path d="M107.373 175.956H12.2189C10.6999 175.956 9.45215 177.214 9.45215 178.746V297.162C9.45215 298.693 10.6999 299.951 12.2189 299.951H107.373H202.528C204.047 299.951 205.295 298.693 205.295 297.162V178.746C205.295 177.214 204.047 175.956 202.528 175.956H107.373Z" fill="url(#paint6_linear_145_4502)"/>
<path d="M107.373 161.735H6.35956C4.84057 161.735 3.53857 162.993 3.53857 164.58V175.519C3.53857 177.05 4.78632 178.363 6.35956 178.363H107.373H208.441C209.96 178.363 211.262 177.105 211.262 175.519V164.58C211.262 163.048 210.014 161.735 208.441 161.735H107.373Z" fill="url(#paint7_linear_145_4502)"/>
<path d="M106.885 116.776C97.2827 116.776 89.4707 108.9 89.4707 99.2184V81.6611H124.299V99.2184C124.299 108.9 116.541 116.776 106.885 116.776Z" fill="url(#paint8_linear_145_4502)"/>
<path d="M74.6606 66.7833C74.6606 66.7833 75.9626 74.933 82.9609 81.6606C89.9049 88.3881 82.9609 70.7214 82.9609 70.7214L80.3569 65.9082L74.6606 66.7833Z" fill="#46345E"/>
<path d="M78.5667 35.4429C70.8632 35.4429 67.0657 45.6163 78.5667 70.12L87.0297 76.9023L102.545 42.1704L78.5667 35.4429Z" fill="#46345E"/>
<path d="M139.11 67.2208C139.11 67.2208 137.808 75.2611 130.972 81.8793C124.137 88.4975 130.972 71.0495 130.972 71.0495L133.522 66.291L139.11 67.2208Z" fill="#46345E"/>
<path d="M135.638 35.4429C143.341 35.4429 147.139 45.6163 135.638 70.12L127.175 76.9023L111.659 42.1704L135.638 35.4429Z" fill="#46345E"/>
<path d="M124.299 86.6378V96.5924C124.299 98.2333 124.408 99.546 124.191 101.187C124.136 101.187 123.485 101.406 123.431 101.406C103.359 104.633 95.0042 98.1786 89.4707 90.7947L95.0042 85.708L124.299 86.6378Z" fill="#FA7782"/>
<path d="M132.599 23.1362H81.1704V71.9249C81.1704 86.091 92.5629 97.5771 106.614 97.5771H107.21C121.261 97.5771 132.654 86.091 132.654 71.9249V23.1362H132.599Z" fill="url(#paint9_linear_145_4502)"/>
<path d="M81.2246 63.5022C78.3494 59.2906 76.8846 56.1177 72.7616 57.4851C68.4216 58.9072 69.0184 67.0027 71.7851 69.8468C75.4741 73.6755 81.2246 71.159 81.2246 71.159" fill="url(#paint10_linear_145_4502)"/>
<path d="M132.6 63.5022C135.475 59.2906 136.885 56.1177 141.063 57.4851C145.403 58.9072 144.806 67.0027 142.039 69.8468C138.35 73.6755 132.6 71.159 132.6 71.159" fill="url(#paint11_linear_145_4502)"/>
<path d="M107.102 24.4487C78.1327 24.4487 72.5449 54.2579 72.5449 54.2579C83.2864 34.0205 106.777 35.5519 106.885 35.6066H107.048C107.156 35.6066 130.647 33.8564 141.551 54.2579C141.605 54.2579 136.072 24.4487 107.102 24.4487Z" fill="#CC0A31"/>
<path d="M143.124 26.0898C141.442 13.7833 122.889 0 107.102 0C91.3153 0 72.7618 13.7833 71.08 26.0898C69.2355 39.3262 72.599 54.2581 72.599 54.2581C72.599 54.2581 78.1325 24.449 107.156 24.449C136.126 24.449 141.714 54.2581 141.714 54.2581C141.714 54.2581 144.969 39.3262 143.124 26.0898Z" fill="url(#paint12_linear_145_4502)"/>
<defs>
<linearGradient id="paint0_linear_145_4502" x1="49.4542" y1="453.658" x2="107.385" y2="453.658" gradientUnits="userSpaceOnUse">
<stop stop-color="#473071"/>
<stop offset="1" stop-color="#382A5F"/>
</linearGradient>
<linearGradient id="paint1_linear_145_4502" x1="107.385" y1="453.658" x2="165.316" y2="453.658" gradientUnits="userSpaceOnUse">
<stop stop-color="#473071"/>
<stop offset="1" stop-color="#382A5F"/>
</linearGradient>
<linearGradient id="paint2_linear_145_4502" x1="15.7961" y1="136.033" x2="198.471" y2="136.033" gradientUnits="userSpaceOnUse">
<stop stop-color="#FF5B96"/>
<stop offset="1" stop-color="#DA3362"/>
</linearGradient>
<linearGradient id="paint3_linear_145_4502" x1="15.5339" y1="165.037" x2="15.5339" y2="275.966" gradientUnits="userSpaceOnUse">
<stop stop-color="#FDD7DB"/>
<stop offset="1" stop-color="#FBADAF"/>
</linearGradient>
<linearGradient id="paint4_linear_145_4502" x1="40.1897" y1="311.214" x2="174.582" y2="311.214" gradientUnits="userSpaceOnUse">
<stop stop-color="#FF5B96"/>
<stop offset="1" stop-color="#DA3362"/>
</linearGradient>
<linearGradient id="paint5_linear_145_4502" x1="199.237" y1="165.037" x2="199.237" y2="275.966" gradientUnits="userSpaceOnUse">
<stop stop-color="#FDD7DB"/>
<stop offset="1" stop-color="#FBADAF"/>
</linearGradient>
<linearGradient id="paint6_linear_145_4502" x1="9.47548" y1="237.93" x2="205.296" y2="237.93" gradientUnits="userSpaceOnUse">
<stop stop-color="#E09E4F"/>
<stop offset="1" stop-color="#CD8B3A"/>
</linearGradient>
<linearGradient id="paint7_linear_145_4502" x1="3.55485" y1="170.052" x2="211.215" y2="170.052" gradientUnits="userSpaceOnUse">
<stop stop-color="#F4B073"/>
<stop offset="1" stop-color="#E2995C"/>
</linearGradient>
<linearGradient id="paint8_linear_145_4502" x1="89.5033" y1="99.2091" x2="124.31" y2="99.2091" gradientUnits="userSpaceOnUse">
<stop stop-color="#FDD7DB"/>
<stop offset="1" stop-color="#FBADAF"/>
</linearGradient>
<linearGradient id="paint9_linear_145_4502" x1="81.2057" y1="60.3124" x2="132.613" y2="60.3124" gradientUnits="userSpaceOnUse">
<stop stop-color="#FDD7DB"/>
<stop offset="1" stop-color="#FBADAF"/>
</linearGradient>
<linearGradient id="paint10_linear_145_4502" x1="69.5696" y1="64.6048" x2="81.2056" y2="64.6048" gradientUnits="userSpaceOnUse">
<stop stop-color="#FDD7DB"/>
<stop offset="1" stop-color="#FBADAF"/>
</linearGradient>
<linearGradient id="paint11_linear_145_4502" x1="145.229" y1="64.6048" x2="132.829" y2="64.6048" gradientUnits="userSpaceOnUse">
<stop stop-color="#FDD7DB"/>
<stop offset="1" stop-color="#FBADAF"/>
</linearGradient>
<linearGradient id="paint12_linear_145_4502" x1="70.5077" y1="27.1285" x2="143.68" y2="27.1285" gradientUnits="userSpaceOnUse">
<stop stop-color="#FF5B96"/>
<stop offset="1" stop-color="#DA3362"/>
</linearGradient>
</defs>
</svg>
