<svg width="48" height="48" viewBox="0 0 48 48" fill="none" xmlns="http://www.w3.org/2000/svg">
<g id="Cart" clip-path="url(#clip0_59_4406)">
<path id="Vector" d="M37.6725 32.8184H20.4611C18.8948 32.8072 17.3778 32.2697 16.1539 31.2921C14.9301 30.3145 14.0706 28.9538 13.7137 27.4286L10.9708 16.2789C10.7185 15.2436 10.7055 14.1644 10.933 13.1234C11.1605 12.0824 11.6223 11.1069 12.2835 10.2712C12.9446 9.43553 13.7876 8.76162 14.7484 8.30073C15.7092 7.83984 16.7624 7.60412 17.828 7.6115H40.4565C41.5221 7.60412 42.5753 7.83984 43.5361 8.30073C44.4969 8.76162 45.3399 9.43553 46.001 10.2712C46.6622 11.1069 47.1241 12.0824 47.3515 13.1234C47.579 14.1644 47.566 15.2436 47.3137 16.2789L44.5708 27.4561C44.2005 29.0002 43.3157 30.3723 42.062 31.3469C40.8083 32.3214 39.2603 32.8404 37.6725 32.8184ZM17.7457 11.0401C17.2036 11.0417 16.6689 11.166 16.1817 11.4036C15.6945 11.6412 15.2673 11.986 14.9322 12.4121C14.5971 12.8382 14.3628 13.3346 14.2468 13.8642C14.1307 14.3937 14.136 14.9426 14.2623 15.4698L17.0051 26.6469C17.1909 27.4302 17.6362 28.1276 18.2687 28.6256C18.9012 29.1236 19.6835 29.3929 20.4885 29.3898H37.6725C38.4775 29.3929 39.2599 29.1236 39.8924 28.6256C40.5249 28.1276 40.9702 27.4302 41.156 26.6469L43.8988 15.4698C44.0278 14.9424 44.0351 14.3925 43.9202 13.8619C43.8053 13.3312 43.5711 12.8337 43.2355 12.4069C42.8999 11.9801 42.4716 11.6352 41.983 11.3984C41.4944 11.1616 40.9583 11.0391 40.4154 11.0401H17.7457Z" fill="white"/>
<path id="Vector_2" d="M12.9738 19.2C12.5821 19.1953 12.2039 19.0567 11.902 18.8072C11.6001 18.5577 11.3927 18.2123 11.3144 17.8285L8.85952 7.17253C8.63283 6.20182 8.08341 5.33677 7.30113 4.71892C6.51886 4.10107 5.55006 3.76701 4.55323 3.77139H2.3178C1.86314 3.77139 1.42711 3.59078 1.10562 3.26929C0.784127 2.9478 0.603516 2.51176 0.603516 2.05711C0.603516 1.60245 0.784127 1.16641 1.10562 0.844924C1.42711 0.523433 1.86314 0.342821 2.3178 0.342821H4.55323C6.32484 0.336632 8.0462 0.93136 9.43614 2.02986C10.8261 3.12837 11.8025 4.66572 12.2058 6.39082L14.6469 17.0468C14.6998 17.2657 14.7086 17.4929 14.673 17.7152C14.6373 17.9376 14.5578 18.1506 14.4392 18.342C14.3205 18.5333 14.165 18.6992 13.9818 18.83C13.7985 18.9608 13.5911 19.054 13.3715 19.104C13.2427 19.1497 13.1094 19.1819 12.9738 19.2ZM20.7224 47.6571C19.6374 47.6571 18.5768 47.3354 17.6747 46.7326C16.7726 46.1298 16.0694 45.2731 15.6542 44.2707C15.239 43.2683 15.1304 42.1653 15.3421 41.1012C15.5537 40.0371 16.0762 39.0596 16.8434 38.2924C17.6106 37.5252 18.588 37.0028 19.6522 36.7911C20.7163 36.5794 21.8193 36.688 22.8217 37.1032C23.824 37.5185 24.6808 38.2216 25.2836 39.1237C25.8864 40.0258 26.2081 41.0864 26.2081 42.1714C26.2081 43.6263 25.6301 45.0216 24.6014 46.0504C23.5726 47.0791 22.1773 47.6571 20.7224 47.6571ZM20.7224 40.0594C20.3101 40.0594 19.9071 40.1816 19.5642 40.4107C19.2214 40.6398 18.9543 40.9653 18.7965 41.3462C18.6387 41.7271 18.5974 42.1463 18.6779 42.5506C18.7583 42.955 18.9568 43.3264 19.2484 43.618C19.5399 43.9095 19.9113 44.108 20.3157 44.1885C20.7201 44.2689 21.1392 44.2276 21.5201 44.0699C21.901 43.9121 22.2266 43.6449 22.4556 43.3021C22.6847 42.9593 22.8069 42.5562 22.8069 42.144C22.8069 41.5911 22.5873 41.0609 22.1964 40.6699C21.8055 40.279 21.2752 40.0594 20.7224 40.0594ZM39.6755 47.6571C38.5905 47.6571 37.5299 47.3354 36.6278 46.7326C35.7257 46.1298 35.0226 45.2731 34.6074 44.2707C34.1922 43.2683 34.0835 42.1653 34.2952 41.1012C34.5069 40.0371 35.0293 39.0596 35.7965 38.2924C36.5637 37.5252 37.5412 37.0028 38.6053 36.7911C39.6694 36.5794 40.7724 36.688 41.7748 37.1032C42.7772 37.5185 43.6339 38.2216 44.2367 39.1237C44.8395 40.0258 45.1612 41.0864 45.1612 42.1714C45.1612 43.6263 44.5833 45.0216 43.5545 46.0504C42.5257 47.0791 41.1304 47.6571 39.6755 47.6571ZM39.6755 40.0594C39.2638 40.0621 38.8621 40.1867 38.5212 40.4174C38.1802 40.648 37.9151 40.9745 37.7594 41.3557C37.6038 41.7368 37.5644 42.1555 37.6464 42.559C37.7284 42.9624 37.928 43.3326 38.2201 43.6228C38.5121 43.9129 38.8836 44.1101 39.2876 44.1894C39.6916 44.2688 40.11 44.2267 40.4901 44.0685C40.8702 43.9103 41.195 43.6432 41.4234 43.3006C41.6519 42.9581 41.7738 42.5557 41.7738 42.144C41.7738 41.8691 41.7194 41.5969 41.6138 41.343C41.5082 41.0892 41.3534 40.8588 41.1584 40.6651C40.9634 40.4713 40.732 40.3181 40.4775 40.2141C40.223 40.1102 39.9504 40.0576 39.6755 40.0594Z" fill="white"/>
<path id="Vector_3" d="M39.675 40.0594H16.827C15.4122 40.0594 14.0552 39.4973 13.0547 38.4968C12.0543 37.4963 11.4922 36.1394 11.4922 34.7245C11.4922 33.3096 12.0543 31.9527 13.0547 30.9522C14.0552 29.9517 15.4122 29.3896 16.827 29.3896H20.4613C20.916 29.3896 21.352 29.5703 21.6735 29.8917C21.995 30.2132 22.1756 30.6493 22.1756 31.1039C22.1756 31.5586 21.995 31.9946 21.6735 32.3161C21.352 32.6376 20.916 32.8182 20.4613 32.8182H16.827C16.3215 32.8182 15.8366 33.0191 15.4791 33.3766C15.1216 33.7341 14.9208 34.2189 14.9208 34.7245C14.9208 35.2301 15.1216 35.715 15.4791 36.0725C15.8366 36.43 16.3215 36.6308 16.827 36.6308H39.675C40.1297 36.6308 40.5657 36.8114 40.8872 37.1329C41.2087 37.4544 41.3893 37.8904 41.3893 38.3451C41.3893 38.7997 41.2087 39.2358 40.8872 39.5573C40.5657 39.8788 40.1297 40.0594 39.675 40.0594Z" fill="white"/>
</g>
<defs>
<clipPath id="clip0_59_4406">
<rect width="48" height="48" fill="white"/>
</clipPath>
</defs>
</svg>
