<svg width="48" height="48" viewBox="0 0 48 48" fill="none" xmlns="http://www.w3.org/2000/svg">
<g id="Delivery">
<path id="Vector" d="M36.252 28.5377C32.9157 28.5377 30.2015 31.2519 30.2015 34.5881C30.2015 37.9244 32.9157 40.6386 36.252 40.6386C39.5888 40.6386 42.3024 37.9244 42.3024 34.5881C42.3024 31.2519 39.5883 28.5377 36.252 28.5377ZM36.252 37.6133C34.5836 37.6133 33.2268 36.2565 33.2268 34.5881C33.2268 32.9198 34.5836 31.5629 36.252 31.5629C37.9204 31.5629 39.2772 32.9198 39.2772 34.5881C39.2772 36.2566 37.9204 37.6133 36.252 37.6133ZM15.5797 28.5377C12.2435 28.5377 9.5293 31.2519 9.5293 34.5881C9.5293 37.9244 12.2435 40.6386 15.5797 40.6386C18.916 40.6386 21.6302 37.9244 21.6302 34.5881C21.6302 31.2519 18.916 28.5377 15.5797 28.5377ZM15.5797 37.6133C13.9114 37.6133 12.5545 36.2565 12.5545 34.5881C12.5545 32.9198 13.9114 31.5629 15.5797 31.5629C17.2476 31.5629 18.605 32.9198 18.605 34.5881C18.605 36.2566 17.2481 37.6133 15.5797 37.6133ZM40.3265 11.2194C40.2004 10.969 40.0073 10.7585 39.7686 10.6114C39.5299 10.4644 39.255 10.3865 38.9747 10.3865H31.0083V13.4117H38.0419L42.1607 21.6039L44.8642 20.2446L40.3265 11.2194Z" fill="white"/>
<path id="Vector_2" d="M20.2689 33.1261H31.7143V36.1513H20.2689V33.1261ZM11.042 33.1261H5.79834C4.96284 33.1261 4.28578 33.8032 4.28578 34.6386C4.28578 35.4741 4.96294 36.1512 5.79834 36.1512H11.0421C11.8776 36.1512 12.5546 35.474 12.5546 34.6386C12.5546 33.8031 11.8775 33.1261 11.042 33.1261ZM47.6824 23.879L44.7071 20.047C44.5659 19.8648 44.3848 19.7174 44.1777 19.616C43.9707 19.5146 43.7432 19.462 43.5127 19.4621H32.521V8.87389C32.521 8.03839 31.8439 7.36133 31.0085 7.36133H5.79834C4.96284 7.36133 4.28578 8.03848 4.28578 8.87389C4.28578 9.7093 4.96294 10.3865 5.79834 10.3865H29.4958V20.9747C29.4958 21.8102 30.173 22.4872 31.0084 22.4872H42.7719L44.9748 25.3249V33.1259H40.7899C39.9544 33.1259 39.2773 33.803 39.2773 34.6385C39.2773 35.474 39.9545 36.151 40.7899 36.151H46.4873C47.3228 36.151 47.9999 35.4739 48 34.6385V24.8067C48 24.4709 47.8881 24.1442 47.6824 23.879ZM10.9412 25.4622H3.98316C3.14766 25.4622 2.47059 26.1394 2.47059 26.9748C2.47059 27.8103 3.14775 28.4873 3.98316 28.4873H10.9411C11.7766 28.4873 12.4537 27.8102 12.4537 26.9748C12.4538 26.1394 11.7766 25.4622 10.9412 25.4622ZM14.4202 19.5125H1.51256C0.677156 19.5125 0 20.1897 0 21.0252C0 21.8607 0.677156 22.5378 1.51256 22.5378H14.4202C15.2557 22.5378 15.9327 21.8606 15.9327 21.0252C15.9327 20.1898 15.2557 19.5125 14.4202 19.5125Z" fill="white"/>
<path id="Vector_3" d="M16.8909 13.563H3.98327C3.14777 13.563 2.4707 14.2401 2.4707 15.0756C2.4707 15.9111 3.14786 16.5881 3.98327 16.5881H16.8909C17.7264 16.5881 18.4034 15.911 18.4034 15.0756C18.4035 14.2401 17.7264 13.563 16.8909 13.563Z" fill="white"/>
</g>
</svg>
