<svg width="48" height="48" viewBox="0 0 48 48" fill="none" xmlns="http://www.w3.org/2000/svg">
<g id="delivery box">
<path id="Vector" d="M36.6568 29.8779L32.8826 34.4069L31.2373 32.7617L31.2374 32.7616L31.228 32.7525C30.898 32.4338 30.4559 32.2574 29.9971 32.2614C29.5382 32.2653 29.0993 32.4494 28.7749 32.7738C28.4504 33.0983 28.2663 33.5372 28.2624 33.9961C28.2584 34.4549 28.4348 34.897 28.7535 35.227L28.7535 35.2271L28.7627 35.2363L31.7626 38.2363C32.0907 38.5645 32.5358 38.7489 32.9998 38.749H33H33.045H33.0617L33.0784 38.7483C33.3212 38.7374 33.5592 38.6761 33.777 38.5683C33.9949 38.4604 34.1878 38.3083 34.3437 38.1218L34.3442 38.1211L39.3226 32.147L39.3234 32.1462L39.3448 32.1206C39.4921 31.9441 39.6032 31.7404 39.6717 31.521C39.7403 31.3016 39.7649 31.0708 39.7443 30.8419C39.7237 30.6129 39.6581 30.3903 39.5515 30.1867C39.4448 29.9831 39.299 29.8025 39.1226 29.6552C38.9461 29.5079 38.7424 29.3968 38.523 29.3283C38.3036 29.2597 38.0728 29.2351 37.8439 29.2557C37.6149 29.2764 37.3923 29.3419 37.1887 29.4485C36.9851 29.5552 36.8045 29.701 36.6572 29.8774L36.6568 29.8779ZM18.4768 13.8539L18.4154 13.8476L18.3537 13.8514C17.7867 13.8865 17.2372 14.0557 16.75 14.3437V3.75H27.242V14.5868C27.2212 14.5724 27.2003 14.5582 27.1792 14.5441C26.6083 14.1635 25.9537 13.9268 25.2713 13.8542L25.1984 13.8464L25.1253 13.853C24.4174 13.9162 23.7357 14.1513 23.1393 14.5379C22.6485 14.856 22.2277 15.2689 21.9008 15.7509C21.5102 15.2491 21.0268 14.8261 20.4761 14.5054C19.8636 14.1486 19.1819 13.9265 18.4768 13.8539ZM28.3054 25.4774C29.9908 24.3513 31.9722 23.7502 33.9991 23.75C36.7169 23.7532 39.3223 24.8342 41.244 26.756C43.1658 28.6777 44.2468 31.2832 44.25 34.0009C44.2498 36.0278 43.6487 38.0092 42.5226 39.6946C41.3963 41.3802 39.7954 42.694 37.9225 43.4698C36.0496 44.2456 33.9886 44.4486 32.0003 44.0531C30.012 43.6576 28.1856 42.6813 26.7522 41.2478C25.3187 39.8144 24.3425 37.988 23.947 35.9997C23.5515 34.0114 23.7544 31.9504 24.5302 30.0775C25.306 28.2046 26.6198 26.6037 28.3054 25.4774Z" stroke="white" stroke-width="1.5"/>
<path id="Vector_2" d="M40.25 21.7557C37.6704 20.4366 34.728 19.9613 31.8439 20.418C28.5197 20.9444 25.5041 22.6723 23.3692 25.2742C21.2342 27.8761 20.1282 31.171 20.261 34.534C20.3717 37.3384 21.3374 40.0276 23.0081 42.25H8C6.87283 42.25 5.79183 41.8022 4.9948 41.0052C4.19777 40.2082 3.75 39.1272 3.75 38V8C3.75 6.87283 4.19777 5.79183 4.9948 4.9948C5.79183 4.19777 6.87283 3.75 8 3.75H13.25L13.25 16.23L13.25 16.2313C13.2511 16.8289 13.4468 17.4099 13.8075 17.8864C14.1682 18.3628 14.6743 18.7088 15.2492 18.872C15.8241 19.0351 16.4365 19.0066 16.9938 18.7906C17.551 18.5746 18.0227 18.1831 18.3375 17.6751L18.3377 17.6748C18.4118 17.5551 18.4715 17.467 18.5192 17.4024C18.5656 17.4297 18.6266 17.471 18.7035 17.5337C18.9015 17.6952 19.1071 17.9145 19.3513 18.1781C19.6378 18.5926 20.0058 18.9445 20.4332 19.2122C20.8785 19.491 21.3779 19.672 21.8985 19.7431L22.0003 19.757L22.1021 19.743C22.6318 19.6702 23.1367 19.4725 23.575 19.1662C23.9966 18.8714 24.345 18.4843 24.5938 18.0346C24.812 17.7419 24.9637 17.554 25.0932 17.4352C25.1154 17.4148 25.1344 17.399 25.1502 17.3867C25.1563 17.3924 25.1629 17.3986 25.1698 17.4054C25.2987 17.5306 25.4586 17.7317 25.6988 18.0484L25.8052 18.1935L25.8094 18.1993L25.8137 18.205C26.1625 18.662 26.6456 18.9982 27.1953 19.1664C27.745 19.3346 28.3336 19.3264 28.8783 19.1427C29.4231 18.9591 29.8966 18.6094 30.2323 18.1428C30.568 17.6762 30.7491 17.1161 30.75 16.5412V16.54V3.75H36C36.5581 3.75 37.1108 3.85993 37.6264 4.07351C38.142 4.28709 38.6106 4.60015 39.0052 4.9948C39.3999 5.38944 39.7129 5.85796 39.9265 6.3736C40.1401 6.88923 40.25 7.44188 40.25 8V21.7557ZM25.2149 17.3462C25.2149 17.3464 25.2131 17.3472 25.2097 17.348C25.2133 17.3465 25.2149 17.3461 25.2149 17.3462ZM25.078 17.3278C25.0766 17.3271 25.0759 17.3267 25.0759 17.3266C25.0759 17.3266 25.0766 17.3269 25.078 17.3278ZM10 37.75H17C17.4641 37.75 17.9092 37.5656 18.2374 37.2374C18.5656 36.9092 18.75 36.4641 18.75 36C18.75 35.5359 18.5656 35.0908 18.2374 34.7626C17.9092 34.4344 17.4641 34.25 17 34.25H10C9.53588 34.25 9.09075 34.4344 8.76256 34.7626C8.43438 35.0908 8.25 35.5359 8.25 36C8.25 36.4641 8.43438 36.9092 8.76256 37.2374C9.09075 37.5656 9.53588 37.75 10 37.75ZM10 33.75H17C17.4641 33.75 17.9092 33.5656 18.2374 33.2374C18.5656 32.9092 18.75 32.4641 18.75 32C18.75 31.5359 18.5656 31.0908 18.2374 30.7626C17.9092 30.4344 17.4641 30.25 17 30.25H10C9.53587 30.25 9.09075 30.4344 8.76256 30.7626C8.43437 31.0908 8.25 31.5359 8.25 32C8.25 32.4641 8.43437 32.9092 8.76256 33.2374C9.09075 33.5656 9.53587 33.75 10 33.75Z" stroke="white" stroke-width="1.5"/>
</g>
</svg>
