<svg width="23" height="23" viewBox="0 0 23 23" fill="none" xmlns="http://www.w3.org/2000/svg">
<path id="Vector" d="M3.43125 0C1.93125 0 0.429375 1.125 0.429375 3.375L3.43125 9.375L6.43125 3.375C6.43125 1.125 4.93125 0 3.43125 0ZM16.6641 1.82812C16.3406 1.84172 16.0266 1.90312 15.7641 1.95937L15.9422 2.78438C16.2047 2.72578 16.4766 2.68875 16.7063 2.67188L16.6641 1.82812ZM3.43125 1.875C4.26094 1.875 4.93125 2.54672 4.93125 3.375C4.93125 4.20469 4.26094 4.875 3.43125 4.875C2.60297 4.875 1.93125 4.20469 1.93125 3.375C1.93125 2.54672 2.60297 1.875 3.43125 1.875ZM17.5969 1.88438L17.4563 2.71406C17.6859 2.76234 17.9156 2.82281 18.1172 2.94375L18.525 2.20312C18.2391 2.05078 17.9203 1.91391 17.5969 1.88438ZM14.9016 2.19844C14.6156 2.31 14.3297 2.40984 14.0859 2.50781L14.4188 3.28125C14.6766 3.17156 14.9484 3.07594 15.1781 2.99531L14.9016 2.19844ZM19.2938 2.82656L18.6516 3.375C18.8203 3.56813 18.9516 3.80625 19.0547 3.99844L19.8094 3.61875C19.65 3.31172 19.5094 3.07922 19.2938 2.82656ZM13.3031 2.86875C13.0172 3.01453 12.7828 3.14438 12.5297 3.27188L12.9422 4.0125C13.1859 3.87187 13.4531 3.73594 13.6688 3.62813L13.3031 2.86875ZM11.7891 3.70781C11.5406 3.85312 11.2969 3.99844 11.0578 4.15781L11.5172 4.86094C11.7469 4.71094 11.9859 4.57031 12.2203 4.42969L11.7891 3.70781ZM20.1 4.54688C19.8234 4.59375 19.5422 4.62656 19.2656 4.65938C19.2844 4.89375 19.2703 5.14687 19.2234 5.34375L20.0438 5.53594C20.0906 5.19844 20.1328 4.85156 20.1 4.54688ZM10.3453 4.62656C10.1109 4.78594 9.88125 4.95 9.64688 5.10938L10.1344 5.79844C10.3594 5.63437 10.5891 5.47969 10.8188 5.32031L10.3453 4.62656ZM8.95781 5.61563C8.72344 5.78438 8.47969 5.97187 8.27813 6.12656L8.78906 6.79688C9.04688 6.60938 9.225 6.46875 9.45938 6.29531L8.95781 5.61563ZM18.9422 5.99063C18.8016 6.20625 18.6375 6.42188 18.4734 6.58594L19.0875 7.17188C19.2891 6.93281 19.5047 6.68906 19.6547 6.44531L18.9422 5.99063ZM7.60781 6.65156C7.37813 6.82969 7.14844 7.0125 6.94688 7.18125L7.48125 7.83281C7.70156 7.65 7.92656 7.4625 8.13281 7.3125L7.60781 6.65156ZM17.8922 7.125C17.6766 7.29844 17.4516 7.46719 17.2453 7.60781L17.7281 8.30156C17.9766 8.13281 18.2203 7.95 18.4313 7.78125L17.8922 7.125ZM6.29531 7.72969C6.075 7.90781 5.86406 8.09531 5.64844 8.27813L6.19688 8.92031C6.40781 8.7375 6.61875 8.55469 6.83438 8.37656L6.29531 7.72969ZM16.5563 8.05781C16.3172 8.19844 16.0688 8.34375 15.8438 8.46563L16.2469 9.21094C16.5 9.05625 16.7859 8.92031 16.9969 8.77969L16.5563 8.05781ZM5.00625 8.83594C4.79531 9.02344 4.58906 9.21094 4.37813 9.40313L4.94531 10.0312C5.15156 9.84375 5.3625 9.65625 5.56875 9.46875L5.00625 8.83594ZM15.1078 8.85469C14.8594 8.97656 14.6109 9.10313 14.3625 9.225L14.7234 9.98438C15.0141 9.84375 15.2297 9.72656 15.4922 9.60469L15.1078 8.85469ZM13.6078 9.57656C13.35 9.69375 13.1016 9.80625 12.8391 9.91406L13.1813 10.6875C13.4391 10.575 13.6969 10.4578 13.9547 10.3406L13.6078 9.57656ZM3.75938 9.98438C3.52031 10.1953 3.35391 10.3594 3.13594 10.5703L3.73125 11.1797C3.95156 10.9688 4.12969 10.7859 4.33594 10.6078L3.75938 9.98438ZM12.0703 10.2563C11.8125 10.3641 11.5547 10.4766 11.2969 10.5844L11.625 11.3672C11.8875 11.2594 12.1453 11.1469 12.4031 11.0344L12.0703 10.2563ZM10.5188 10.9125C10.2609 11.025 10.0031 11.1375 9.74063 11.2406L10.0688 12.0234C10.3266 11.9156 10.5891 11.8031 10.8469 11.6953L10.5188 10.9125ZM19.1813 11.25C17.6813 11.25 16.1813 12.375 16.1813 14.625L19.1813 20.625L22.1813 14.625C22.1813 12.375 20.6813 11.25 19.1813 11.25ZM8.9625 11.5687C8.69531 11.6906 8.41406 11.8031 8.18438 11.9016L8.51719 12.6797C8.79375 12.5625 9.05625 12.45 9.29063 12.3469L8.9625 11.5687ZM7.40625 12.2344C7.15313 12.3516 6.85781 12.4828 6.63281 12.5859L6.97969 13.3547C7.25625 13.2328 7.5 13.1109 7.74375 13.0078L7.40625 12.2344ZM5.85938 12.9375C5.59688 13.0641 5.325 13.1953 5.09063 13.3125L5.47031 14.0672C5.72344 13.9359 5.98594 13.8141 6.21563 13.7016L5.85938 12.9375ZM19.1813 13.125C20.0109 13.125 20.6813 13.7953 20.6813 14.625C20.6813 15.4547 20.0109 16.125 19.1813 16.125C18.3516 16.125 17.6813 15.4547 17.6813 14.625C17.6813 13.7953 18.3516 13.125 19.1813 13.125ZM4.33125 13.7016C4.08281 13.8375 3.83438 13.9781 3.58125 14.1234L4.00313 14.8547C4.24219 14.7141 4.48594 14.5828 4.72969 14.4516L4.33125 13.7016ZM2.84531 14.5781C2.58234 14.7281 2.32828 14.9297 2.10938 15.075L2.62031 15.75C2.85328 15.5813 3.10406 15.4078 3.30469 15.2859L2.84531 14.5781ZM1.44375 15.6375C1.21875 15.8438 0.997031 16.0828 0.825 16.2844L1.46719 16.8328C1.64766 16.6125 1.80469 16.4484 2.01563 16.2609L1.44375 15.6375ZM11.6531 15.6984L11.7281 16.5375C11.9719 16.4953 12.2156 16.5234 12.4594 16.5609L12.6047 15.7313C12.2953 15.6844 11.9672 15.6516 11.6531 15.6984ZM9.90938 16.1672L10.2281 16.95C10.4719 16.8422 10.725 16.7578 10.9828 16.6781C10.8938 16.4109 10.8281 16.1391 10.7578 15.8672C10.4625 15.9516 10.1672 16.0641 9.90938 16.1672ZM13.5422 16.125L13.0641 16.8187C13.2609 16.9641 13.4531 17.1187 13.6078 17.3109L14.2453 16.7578C14.0063 16.5141 13.8234 16.2844 13.5422 16.125ZM9.1125 16.5469C8.85469 16.6781 8.60625 16.8281 8.35781 16.9734L8.78438 17.7C9.02813 17.5688 9.26719 17.4141 9.50625 17.2875L9.1125 16.5469ZM0.309844 17.0625C0.168281 17.3672 0.0534375 17.6953 0 17.9859L0.829688 18.1312C0.880313 17.8641 0.952969 17.6719 1.05938 17.4422C0.802031 17.3297 0.556406 17.1938 0.309844 17.0625ZM7.62656 17.4281C7.3875 17.5828 7.15313 17.7375 6.91875 17.8969L7.3875 18.6C7.62188 18.4453 7.85156 18.2859 8.08594 18.1312L7.62656 17.4281ZM14.7844 17.4844L14.0766 17.9437C14.2266 18.1687 14.3719 18.4031 14.5078 18.6422L15.2391 18.2203C15.075 17.9578 14.9578 17.7234 14.7844 17.4844ZM6.22031 18.375C5.98594 18.5297 5.75156 18.6797 5.52188 18.8438L5.99063 19.5469C6.21563 19.3828 6.45469 19.2281 6.69375 19.0687L6.22031 18.375ZM0.839063 18.8203C0.567656 18.8766 0.293906 18.9234 0.0210938 18.975C0.0703125 19.3031 0.202031 19.6219 0.321094 19.875L1.08281 19.5094C0.981094 19.275 0.884531 19.0312 0.839063 18.8203ZM15.6563 18.9516L14.925 19.3734C15.0703 19.6266 15.2391 19.8984 15.375 20.1141L16.0828 19.6594C15.9234 19.4109 15.7875 19.1766 15.6563 18.9516ZM4.82813 19.3031C4.59375 19.4484 4.36406 19.5891 4.12031 19.725L4.5375 20.4609C4.78594 20.3156 5.03438 20.1703 5.27344 20.0156L4.82813 19.3031ZM1.48594 20.0672L0.909375 20.6859C1.17 20.9344 1.49156 21.0984 1.84219 21.1734L2.02969 20.3531C1.82156 20.3109 1.62703 20.2078 1.48594 20.0672ZM3.40781 20.0812C3.17297 20.1891 2.92922 20.2734 2.67656 20.325L2.86875 21.15C3.16969 21.0891 3.45281 20.9766 3.73594 20.8594L3.40781 20.0812ZM16.5469 20.3063L15.8953 20.8359C16.0969 21.0844 16.3453 21.3234 16.5609 21.4922L17.0813 20.8266C16.875 20.6672 16.6969 20.475 16.5469 20.3063ZM17.6766 21.1266L17.4656 21.9469C17.8359 22.0219 18.1125 22.0453 18.4594 22.0078L18.3563 21.1688C18.1266 21.2063 17.9016 21.1828 17.6766 21.1266Z" fill="#0155A5"/>
</svg>
