<svg width="40" height="40" viewBox="0 0 40 40" fill="none" xmlns="http://www.w3.org/2000/svg">
<g id="Fast Service">
<path id="Vector" d="M25.2775 10.7025C23.0617 10.7025 20.8957 11.3596 19.0534 12.5906C17.211 13.8216 15.7751 15.5713 14.9272 17.6184C14.0792 19.6655 13.8574 21.9181 14.2896 24.0913C14.7219 26.2645 15.7889 28.2607 17.3557 29.8275C18.9225 31.3943 20.9187 32.4613 23.0919 32.8935C25.2651 33.3258 27.5176 33.1039 29.5648 32.256C31.6119 31.4081 33.3615 29.9721 34.5926 28.1298C35.8236 26.2874 36.4806 24.1214 36.4806 21.9057C36.4773 18.9354 35.2959 16.0878 33.1957 13.9875C31.0954 11.8872 28.2477 10.7058 25.2775 10.7025ZM25.9025 31.8275V29.74H24.6525V31.8269C22.2377 31.6724 19.9618 30.6434 18.2508 28.9324C16.5397 27.2213 15.5107 24.9455 15.3562 22.5307H17.4425V21.2807H15.3562C15.5106 18.8657 16.5395 16.5897 18.2506 14.8786C19.9616 13.1674 22.2376 12.1383 24.6525 11.9838V14.07H25.9025V11.9838C28.3175 12.1382 30.5935 13.1672 32.3046 14.8784C34.0156 16.5896 35.0445 18.8657 35.1987 21.2807H33.1119V22.5307H35.1987C35.0445 24.9456 34.0156 27.2216 32.3045 28.9327C30.5934 30.6438 28.3174 31.6733 25.9025 31.8275ZM33.6594 10.1075L34.2894 9.19504L35.3456 9.92441C35.482 10.0186 35.6503 10.0547 35.8133 10.0248C35.9764 9.99489 36.1208 9.90146 36.215 9.76504L37.5081 7.89004C37.5548 7.82247 37.5878 7.74635 37.605 7.66604C37.6223 7.58573 37.6236 7.5028 37.6088 7.422C37.594 7.3412 37.5634 7.26411 37.5188 7.19513C37.4742 7.12616 37.4164 7.06666 37.3488 7.02004L34.2075 4.85379C34.0711 4.75964 33.9028 4.72354 33.7398 4.75343C33.5768 4.78332 33.4323 4.87675 33.3381 5.01316L32.045 6.88816C31.9983 6.95574 31.9653 7.03185 31.9481 7.11216C31.9308 7.19247 31.9295 7.2754 31.9443 7.3562C31.9591 7.43701 31.9897 7.5141 32.0343 7.58307C32.079 7.65204 32.1367 7.71154 32.2044 7.75816L33.2606 8.48691L32.6106 9.42816C31.1152 8.54556 29.4722 7.94122 27.7612 7.64441V5.80566H29.9206C30.0864 5.80566 30.2454 5.73982 30.3626 5.62261C30.4798 5.5054 30.5456 5.34642 30.5456 5.18066V2.30566C30.5456 2.1399 30.4798 1.98093 30.3626 1.86372C30.2454 1.74651 30.0864 1.68066 29.9206 1.68066H20.635C20.4692 1.68066 20.3103 1.74651 20.1931 1.86372C20.0758 1.98093 20.01 2.1399 20.01 2.30566V5.18066C20.01 5.34642 20.0758 5.5054 20.1931 5.62261C20.3103 5.73982 20.4692 5.80566 20.635 5.80566H22.7944V7.64191C22.4231 7.70441 22.0556 7.78129 21.695 7.87316H4.6875C4.5767 7.87321 4.46791 7.9027 4.37226 7.95863C4.27661 8.01456 4.19755 8.09491 4.14318 8.19144C4.0888 8.28798 4.06107 8.39724 4.06282 8.50803C4.06456 8.61881 4.09573 8.72714 4.15313 8.82191L6.47438 12.6557C6.53009 12.7477 6.60861 12.8237 6.70233 12.8765C6.79606 12.9293 6.90181 12.957 7.00938 12.9569H11.7412V11.7069H7.36125L5.79625 9.12504H18.4837C15.4786 10.7299 13.1311 13.3373 11.8494 16.4938H1.93125V17.7438H11.4087C10.4449 20.9501 10.6229 24.3915 11.9125 27.4812C13.2021 30.571 15.5234 33.1178 18.4806 34.6875H8.52313L6.96063 32.1032H12.5138V30.8532H5.84875C5.73779 30.8529 5.62876 30.8821 5.53285 30.9379C5.43694 30.9937 5.35761 31.074 5.30301 31.1706C5.24841 31.2672 5.22051 31.3766 5.22218 31.4876C5.22385 31.5985 5.25502 31.707 5.3125 31.8019L7.63438 35.6357C7.68996 35.7277 7.76835 35.8038 7.86196 35.8567C7.95557 35.9096 8.06124 35.9374 8.16875 35.9375H21.695C24.971 36.7758 28.437 36.4407 31.4918 34.9904C34.5465 33.5401 36.9971 31.0661 38.4183 27.9978C39.8396 24.9295 40.1418 21.4604 39.2725 18.1925C38.4032 14.9246 36.4173 12.0642 33.6594 10.1075ZM34.0119 6.23816L36.1244 7.69691L35.5413 8.54066L33.4287 7.08191L34.0119 6.23816ZM21.2619 4.55566V2.93066H29.2956V4.55566H21.2619ZM26.5119 5.80566V7.48066C26.105 7.44566 25.6944 7.42441 25.2781 7.42441C24.8619 7.42441 24.4519 7.44566 24.045 7.48066V5.80566H26.5119ZM25.2775 35.1363C22.6606 35.1363 20.1024 34.3603 17.9265 32.9064C15.7507 31.4525 14.0548 29.386 13.0534 26.9683C12.0519 24.5505 11.7899 21.8901 12.3005 19.3235C12.8111 16.7569 14.0713 14.3993 15.9218 12.5489C17.7723 10.6985 20.1299 9.43841 22.6966 8.92795C25.2632 8.41749 27.9236 8.6796 30.3413 9.68114C32.759 10.6827 34.8254 12.3787 36.2792 14.5546C37.733 16.7306 38.5089 19.2887 38.5088 21.9057C38.5046 25.4135 37.1093 28.7764 34.6288 31.2568C32.1483 33.7371 28.7853 35.1323 25.2775 35.1363ZM27.7638 21.9057C27.7639 21.4139 27.6182 20.9332 27.345 20.5242C27.0719 20.1153 26.6837 19.7965 26.2294 19.6082C25.7751 19.4199 25.2752 19.3706 24.7928 19.4665C24.3105 19.5623 23.8674 19.7991 23.5197 20.1468C23.1719 20.4945 22.9351 20.9375 22.8391 21.4198C22.7431 21.9021 22.7923 22.402 22.9804 22.8563C23.1686 23.3107 23.4873 23.699 23.8961 23.9722C24.305 24.2455 24.7857 24.3913 25.2775 24.3913C25.8407 24.389 26.3861 24.1935 26.8225 23.8375L30.6287 26.6782L31.3787 25.6782L27.5806 22.8438C27.7021 22.546 27.7643 22.2273 27.7638 21.9057ZM25.2775 23.1413C25.033 23.1413 24.7939 23.0688 24.5906 22.9329C24.3873 22.797 24.2288 22.6039 24.1353 22.378C24.0417 22.1521 24.0173 21.9035 24.0651 21.6636C24.1128 21.4238 24.2306 21.2035 24.4036 21.0307C24.5765 20.8578 24.7969 20.7401 25.0367 20.6925C25.2766 20.6448 25.5251 20.6694 25.751 20.7631C25.9769 20.8567 26.1699 21.0153 26.3057 21.2187C26.4415 21.4221 26.5139 21.6611 26.5138 21.9057C26.5134 22.2334 26.383 22.5476 26.1513 22.7792C25.9195 23.0109 25.6052 23.1411 25.2775 23.1413ZM7.73438 22.5307H0.546875V21.2807H7.73438V22.5307ZM9.34125 27.3169H1.93125V26.0669H9.34125V27.3169Z" fill="white"/>
</g>
</svg>
