<svg width="58" height="58" viewBox="0 0 58 58" fill="none" xmlns="http://www.w3.org/2000/svg">
<g id="Icon">
<g id="Icon_2">
<path id="Vector" d="M2.67188 45.6494H55.0528" stroke="#141414" stroke-width="2" stroke-linecap="round" stroke-linejoin="round"/>
<path id="Vector_2" d="M33.0545 45.6494V3.56246C33.0545 3.05509 32.8495 2.5685 32.4847 2.20973C32.1198 1.85097 31.6249 1.64941 31.1089 1.64941H7.76198C7.24599 1.64941 6.75112 1.85097 6.38625 2.20973C6.02139 2.5685 5.81641 3.05509 5.81641 3.56246V45.6494" stroke="#141414" stroke-width="2" stroke-linecap="round" stroke-linejoin="round"/>
<path id="Rectangle 19" d="M33.0527 14.2209H48.9099C50.5667 14.2209 51.9099 15.5641 51.9099 17.2209V44.6019H33.0527V14.2209Z" fill="#0155A5" stroke="#141414" stroke-width="2" stroke-linecap="round" stroke-linejoin="round"/>
<path id="Vector_3" d="M14.1973 11.0779H21.5306" stroke="#141414" stroke-width="2" stroke-linecap="round" stroke-linejoin="round"/>
<path id="Vector_4" d="M1.625 41.459L1.625 26.7923" stroke="#141414" stroke-width="2" stroke-linecap="round" stroke-linejoin="round"/>
<path id="Vector_5" d="M56.1016 30.9824L56.1016 16.3158" stroke="#141414" stroke-width="2" stroke-linecap="round" stroke-linejoin="round"/>
<path id="Vector_6" d="M36.1973 10.0303L43.5306 10.0303" stroke="#141414" stroke-width="2" stroke-linecap="round" stroke-linejoin="round"/>
<path id="Vector_7" d="M17.3398 26.792H24.6732" stroke="#141414" stroke-width="2" stroke-linecap="round" stroke-linejoin="round"/>
<path id="Vector_8" d="M14.1973 36.2209H21.5306" stroke="#141414" stroke-width="2" stroke-linecap="round" stroke-linejoin="round"/>
<path id="Vector_9" d="M40.3867 36.2209H44.5772" stroke="#141414" stroke-width="2" stroke-linecap="round" stroke-linejoin="round"/>
<path id="Vector_10" d="M40.3867 26.792H44.5772" stroke="#141414" stroke-width="2" stroke-linecap="round" stroke-linejoin="round"/>
</g>
</g>
</svg>
