<svg width="53" height="59" viewBox="0 0 53 59" fill="none" xmlns="http://www.w3.org/2000/svg">
<g id="Icon">
<path id="Vector" d="M5.4541 41.7498V14.9165" stroke="black" stroke-width="2" stroke-linecap="round" stroke-linejoin="round"/>
<path id="Vector_2" d="M43.7881 14.9165V41.7498" stroke="black" stroke-width="2" stroke-linecap="round" stroke-linejoin="round"/>
<path id="Vector_3" d="M16.9541 28.3335V32.1668" stroke="black" stroke-width="2" stroke-linecap="round" stroke-linejoin="round"/>
<path id="Vector_4" d="M24.6211 26.4167V32.1667" stroke="black" stroke-width="2" stroke-linecap="round" stroke-linejoin="round"/>
<path id="Vector_5" d="M32.2881 24.5V32.1667" stroke="black" stroke-width="2" stroke-linecap="round" stroke-linejoin="round"/>
<path id="Vector_6" d="M45.7044 7.25H3.53776C2.47921 7.25 1.62109 8.10812 1.62109 9.16666V13C1.62109 14.0585 2.47921 14.9167 3.53776 14.9167H45.7044C46.7629 14.9167 47.621 14.0585 47.621 13V9.16666C47.621 8.10812 46.7629 7.25 45.7044 7.25Z" stroke="black" stroke-width="2" stroke-linecap="round" stroke-linejoin="round"/>
<path id="Vector_7" d="M45.7044 7.25H3.53776C2.47921 7.25 1.62109 8.10812 1.62109 9.16666V13C1.62109 14.0585 2.47921 14.9167 3.53776 14.9167H45.7044C46.7629 14.9167 47.621 14.0585 47.621 13V9.16666C47.621 8.10812 46.7629 7.25 45.7044 7.25Z" fill="#0155A5" stroke="black" stroke-width="2" stroke-linecap="round" stroke-linejoin="round"/>
<path id="Vector_8" d="M18.0208 57.2948C16.2179 55.985 15.4086 52.8168 17.4341 50.2047" stroke="#1C1F35" stroke-width="1.5" stroke-linecap="round" stroke-linejoin="round"/>
<path id="Vector_9" d="M1.62109 1H22.6211" stroke="#1C1F35" stroke-width="2" stroke-linecap="round" stroke-linejoin="round"/>
<path id="Vector_10" d="M51.6211 18L51.6211 28" stroke="#1C1F35" stroke-width="2" stroke-linecap="round" stroke-linejoin="round"/>
<path id="Vector_11" d="M24.6211 41.75V49.4167" stroke="black" stroke-width="2" stroke-linecap="round" stroke-linejoin="round"/>
<path id="Vector_12" d="M24.6214 57.0834C26.7385 57.0834 28.4547 55.3672 28.4547 53.2501C28.4547 51.133 26.7385 49.4167 24.6214 49.4167C22.5043 49.4167 20.7881 51.133 20.7881 53.2501C20.7881 55.3672 22.5043 57.0834 24.6214 57.0834Z" fill="#0155A5" stroke="black" stroke-width="2" stroke-linecap="round" stroke-linejoin="round"/>
<path id="Vector_13" d="M1.62109 41.75H47.621" stroke="black" stroke-width="2" stroke-linecap="round" stroke-linejoin="round"/>
</g>
</svg>
