<svg width="56" height="58" viewBox="0 0 56 58" fill="none" xmlns="http://www.w3.org/2000/svg">
<g id="Icon">
<g id="Icon_2">
<path id="Vector 3" d="M38.6953 16.0422V6.07788H44.2921C47.1267 6.07788 49.6814 7.7873 50.7627 10.4075L52.8031 15.3514C52.9389 15.6806 52.697 16.0422 52.3409 16.0422H38.6953Z" fill="#0155A5" stroke="#1C1F35" stroke-width="2"/>
<path id="Vector" d="M1.05273 22.6855H38.6956" stroke="#1C1F35" stroke-width="2" stroke-linecap="round" stroke-linejoin="round"/>
<path id="Vector_2" d="M42.0179 40.399C45.6866 40.399 48.6607 37.4249 48.6607 33.7561C48.6607 30.0874 45.6866 27.1133 42.0179 27.1133C38.3491 27.1133 35.375 30.0874 35.375 33.7561C35.375 37.4249 38.3491 40.399 42.0179 40.399Z" stroke="#1C1F35" stroke-width="2" stroke-linecap="round" stroke-linejoin="round"/>
<path id="Vector_3" d="M13.2307 40.399C16.8995 40.399 19.8736 37.4249 19.8736 33.7561C19.8736 30.0874 16.8995 27.1133 13.2307 27.1133C9.562 27.1133 6.58789 30.0874 6.58789 33.7561C6.58789 37.4249 9.562 40.399 13.2307 40.399Z" fill="#0155A5" stroke="#1C1F35" stroke-width="2" stroke-linecap="round" stroke-linejoin="round"/>
<path id="Vector_4" d="M35.375 32.6494H19.875" stroke="#1C1F35" stroke-width="2" stroke-linecap="round" stroke-linejoin="round"/>
<path id="Vector_5" d="M6.53309 32.6494H2.93488C2.4357 32.6494 1.95697 32.4453 1.604 32.0819C1.25103 31.7186 1.05273 31.2258 1.05273 30.7119V3.58691C1.05273 3.07306 1.25103 2.58025 1.604 2.2169C1.95697 1.85354 2.4357 1.64941 2.93488 1.64941H38.6956V27.6119" stroke="#1C1F35" stroke-width="2" stroke-linecap="round" stroke-linejoin="round"/>
<path id="Vector_6" d="M38.6953 16.042H54.1953V30.8039C54.1953 31.2933 53.9912 31.7626 53.6278 32.1087C53.2645 32.4547 52.7717 32.6491 52.2578 32.6491H48.5212" stroke="#1C1F35" stroke-width="2" stroke-linecap="round" stroke-linejoin="round"/>
<path id="Vector_7" d="M5.48047 15.3511L5.48047 6.07788" stroke="#1C1F35" stroke-width="2" stroke-linecap="round" stroke-linejoin="round"/>
<path id="Vector_8" d="M25.4104 18.2568L34.6836 18.2568" stroke="#1C1F35" stroke-width="2" stroke-linecap="round" stroke-linejoin="round"/>
<path id="Vector_9" d="M25.409 36.9709L28.7305 36.9709" stroke="#1C1F35" stroke-width="2" stroke-linecap="round" stroke-linejoin="round"/>
</g>
</g>
</svg>
