<svg width="57" height="58" viewBox="0 0 57 58" fill="none" xmlns="http://www.w3.org/2000/svg">
<g id="Icon">
<g id="Icon_2">
<g id="Icon_3">
<path id="Vector" d="M25.4491 28.8953C32.9729 28.8953 39.0721 22.7961 39.0721 15.2724C39.0721 7.74862 32.9729 1.64941 25.4491 1.64941C17.9254 1.64941 11.8262 7.74862 11.8262 15.2724C11.8262 22.7961 17.9254 28.8953 25.4491 28.8953Z" fill="#0155A5" stroke="#1C1F35" stroke-width="2" stroke-linecap="round" stroke-linejoin="round"/>
<path id="Vector_2" d="M5.96875 37.9774C8.35562 35.1326 11.3366 32.8451 14.7021 31.2756C18.0677 29.7061 21.7361 28.8928 25.4496 28.8928C29.1631 28.8928 32.8315 29.7061 36.1971 31.2756C39.5626 32.8451 42.5436 35.1326 44.9304 37.9774" stroke="#1C1F35" stroke-width="2" stroke-linecap="round" stroke-linejoin="round"/>
<g id="Group 2473">
<path id="Rectangle 19" d="M52.5137 39.1123L42.2965 39.1123L42.2965 20.9484L52.5137 20.9484L52.5137 39.1123Z" fill="white" stroke="#141414" stroke-linecap="round" stroke-linejoin="round"/>
<path id="Rectangle 20" d="M52.5137 27.76L42.2965 27.76L42.2965 20.9485L52.5137 20.9485L52.5137 27.76Z" fill="#0155A5" stroke="black" stroke-linecap="round" stroke-linejoin="round"/>
<path id="Vector_3" d="M49.1094 25.4895L45.7036 25.4895" stroke="#141414" stroke-linecap="round" stroke-linejoin="round"/>
<path id="Vector_4" d="M49.1094 31.1653L45.7036 31.1653" stroke="#141414" stroke-linecap="round" stroke-linejoin="round"/>
</g>
</g>
<path id="Vector_5" d="M55.918 28.8953L55.918 38.5526" stroke="#1C1F35" stroke-linecap="round" stroke-linejoin="round"/>
<path id="Vector_6" d="M7.34095 22.6294C6.46522 21.4753 4.30655 17.6349 5.97656 10.4199" stroke="#1C1F35" stroke-width="1.5" stroke-linecap="round" stroke-linejoin="round"/>
<path id="Vector_7" d="M35.8647 16.685C35.8164 17.8454 35.1751 21.3291 30.3281 25.0125" stroke="#1C1F35" stroke-linecap="round" stroke-linejoin="round"/>
</g>
</g>
</svg>
