<svg width="75" height="56" viewBox="0 0 75 56" fill="none" xmlns="http://www.w3.org/2000/svg">
<g id="Icon">
<g id="Icon_2">
<path id="Vector" d="M18.0586 43.3777H53.6892" stroke="#1C1F35" stroke-width="2" stroke-linecap="round" stroke-linejoin="round"/>
<path id="Vector_2" d="M34.9746 28.5188L50.3932 19.2362" stroke="#1C1F35" stroke-width="2" stroke-linecap="round" stroke-linejoin="round"/>
<path id="Vector_3" d="M10.502 25.9482L16.4771 31.9234" stroke="#1C1F35" stroke-width="2" stroke-linecap="round" stroke-linejoin="round"/>
<path id="Vector_4" d="M1.86328 23.7891L7.8384 29.7642" stroke="#1C1F35" stroke-width="2" stroke-linecap="round" stroke-linejoin="round"/>
<path id="Vector_5" d="M16.534 23.5191L25.9285 32.5308C27.1811 33.7338 28.7793 34.4905 30.4854 34.6882C32.1915 34.886 33.9144 34.5144 35.3977 33.6286L73.1252 11.1631L68.4903 5.34255C67.2846 3.83397 65.592 2.81692 63.7183 2.47514C61.8446 2.13336 59.9133 2.48941 58.2735 3.47895L47.2094 10.142L32.2579 5.03621L28.1463 6.84876C27.8387 6.98381 27.5692 7.19603 27.3627 7.46585C27.1562 7.73566 27.0193 8.05439 26.9647 8.39265C26.9101 8.73092 26.9395 9.07782 27.0502 9.40138C27.1609 9.72495 27.3493 10.0148 27.598 10.2441L35.2482 17.2901L28.2709 21.3747L21.2935 18.3112L17.1071 20.1493C16.8025 20.2833 16.5354 20.4931 16.3299 20.7595C16.1243 21.0259 15.9869 21.3407 15.93 21.6752C15.8731 22.0098 15.8985 22.3536 16.004 22.6756C16.1094 22.9975 16.2916 23.2874 16.534 23.5191V23.5191Z" stroke="#1C1F35" stroke-width="2" stroke-linecap="round" stroke-linejoin="round"/>
<path id="Vector 2" d="M69.3461 6.66756C63.3563 11.3721 57.4435 11.9633 53.1504 6.66756L56.5237 4.47491C60.7156 1.75015 66.2978 2.7047 69.3461 6.66756Z" fill="#0155A5" stroke="#1C1F35" stroke-width="2"/>
</g>
</g>
</svg>
