<svg width="17" height="16" viewBox="0 0 17 16" fill="none" xmlns="http://www.w3.org/2000/svg">
<g id="Group 62">
<path id="Vector" d="M8.33268 1.33301C5.75268 1.33301 3.66602 3.41967 3.66602 5.99967C3.66602 8.77967 6.61268 12.613 7.82601 14.073C8.09268 14.393 8.57935 14.393 8.84602 14.073C10.0527 12.613 12.9993 8.77967 12.9993 5.99967C12.9993 3.41967 10.9127 1.33301 8.33268 1.33301ZM8.33268 7.66634C7.41268 7.66634 6.66602 6.91967 6.66602 5.99967C6.66602 5.07967 7.41268 4.33301 8.33268 4.33301C9.25268 4.33301 9.99935 5.07967 9.99935 5.99967C9.99935 6.91967 9.25268 7.66634 8.33268 7.66634Z" fill="white"/>
</g>
</svg>
