<svg width="17" height="16" viewBox="0 0 17 16" fill="none" xmlns="http://www.w3.org/2000/svg">
<g id="Group 61">
<path id="Vector" d="M13.666 2.66699H2.99935C2.26602 2.66699 1.67268 3.26699 1.67268 4.00033L1.66602 12.0003C1.66602 12.7337 2.26602 13.3337 2.99935 13.3337H13.666C14.3993 13.3337 14.9993 12.7337 14.9993 12.0003V4.00033C14.9993 3.26699 14.3993 2.66699 13.666 2.66699ZM13.3993 5.50033L8.68602 8.44699C8.47268 8.58033 8.19268 8.58033 7.97935 8.44699L3.26602 5.50033C3.09935 5.39366 2.99935 5.21366 2.99935 5.02033C2.99935 4.57366 3.48602 4.30699 3.86602 4.54033L8.33268 7.33366L12.7993 4.54033C13.1793 4.30699 13.666 4.57366 13.666 5.02033C13.666 5.21366 13.566 5.39366 13.3993 5.50033Z" fill="white"/>
</g>
</svg>
