<svg width="48" height="48" viewBox="0 0 48 48" fill="none" xmlns="http://www.w3.org/2000/svg">
<g id="Navigation arrow" clip-path="url(#clip0_59_4350)">
<path id="Vector" fill-rule="evenodd" clip-rule="evenodd" d="M27.135 13.2725L25.3916 24.3515L23.6482 19.3182L18.418 20.3305L27.135 13.2725Z" stroke="white" stroke-width="1.5" stroke-linecap="round" stroke-linejoin="round"/>
<path id="Vector_2" d="M23.3957 43.079C22.1584 41.0825 20.7525 38.9173 19.3184 36.6958C16.6234 32.7397 14.1179 28.6578 11.8105 24.4639C10.4802 21.8926 10.0083 18.9629 10.4637 16.104C10.9191 13.2451 12.2779 10.6071 14.3412 8.57633C16.2416 6.64474 18.6754 5.32441 21.3308 4.78444C23.9861 4.24446 26.7423 4.50944 29.2461 5.54541C31.75 6.58139 33.8876 8.34122 35.3852 10.5995C36.8828 12.8578 37.6722 15.5117 37.6523 18.2213C37.6525 20.3601 37.1517 22.4691 36.1901 24.3795C34.278 28.1475 31.4098 32.5623 28.6541 36.7521C27.1918 39.0016 25.7577 41.1668 24.6048 43.079L23.9862 44.0632L23.3957 43.079ZM20.4994 35.9366C21.7085 37.8206 22.9177 39.6484 23.9862 41.3918C25.0829 39.6765 26.2358 37.8487 27.473 35.9929C30.2006 31.8312 33.0969 27.4164 34.9247 23.7327C36.1033 21.4377 36.5206 18.827 36.1162 16.279C35.7117 13.7309 34.5065 11.3778 32.6751 9.56052C30.9714 7.82137 28.7864 6.63157 26.401 6.1441C24.0157 5.65662 21.539 5.89375 19.2895 6.825C17.04 7.75624 15.1205 9.33904 13.7777 11.3699C12.4349 13.4007 11.7302 15.7868 11.7542 18.2213C11.7503 20.1766 12.213 22.1047 13.104 23.8452C15.0161 27.5008 17.7999 31.8312 20.4994 35.9366Z" fill="white"/>
<path id="Vector_3" d="M23.9859 27.3041C29.0021 27.3041 33.0685 23.2377 33.0685 18.2215C33.0685 13.2053 29.0021 9.13892 23.9859 9.13892C18.9697 9.13892 14.9033 13.2053 14.9033 18.2215C14.9033 23.2377 18.9697 27.3041 23.9859 27.3041Z" stroke="white" stroke-width="2"/>
</g>
<defs>
<clipPath id="clip0_59_4350">
<rect width="48" height="48" fill="white"/>
</clipPath>
</defs>
</svg>
