<svg width="48" height="48" viewBox="0 0 48 48" fill="none" xmlns="http://www.w3.org/2000/svg">
<g id="Office">
<path id="Vector" d="M20.4836 5.5787L20.4371 6.2822C20.4221 6.5192 20.3051 6.6722 20.0621 6.8447C19.8296 7.0082 19.4861 7.1432 19.1711 7.1717H15.8426C13.5881 7.1717 11.7656 9.0287 11.7656 11.2967V15.5162C11.7341 15.6392 11.7341 15.7682 11.7656 15.8912V18.4217C11.7699 19.9722 12.2986 21.4757 13.2656 22.6877V26.2502L5.85864 30.4697C4.91705 31.0077 4.1348 31.7855 3.5915 32.724C3.0482 33.6626 2.76325 34.7283 2.76564 35.8127V42.4217H34.2656V41.4527C40.6781 39.1712 45.2306 33.0587 45.2336 25.9247C45.2336 16.8212 37.8386 9.4247 28.7336 9.4247V9.4217C27.5636 9.4217 26.4056 9.5837 25.2656 9.8327V9.7952C25.1156 8.6552 24.7706 7.6307 24.0926 6.8432C23.4176 6.0542 22.3991 5.5712 21.1871 5.5772H20.4836V5.5787ZM21.4211 7.1717C22.0871 7.2272 22.6121 7.4117 22.9676 7.8287C23.3786 8.3057 23.6426 9.0347 23.7656 9.9842V14.5322C23.4677 14.3845 23.1529 14.2737 22.8281 14.2022C21.9341 14.0387 21.0236 14.0687 20.1566 14.1092C19.2866 14.1452 18.4226 14.1497 17.7656 13.9682C17.1071 13.7882 16.6076 13.5062 16.1711 12.7502C16.0897 12.6053 15.9636 12.4906 15.8118 12.423C15.6599 12.3555 15.4903 12.3387 15.3281 12.3752C15.2004 12.4156 15.0855 12.4888 14.995 12.5875C14.9044 12.6862 14.8414 12.807 14.8121 12.9377C14.8391 12.8357 14.7341 13.0712 14.5301 13.3127C14.3276 13.5527 14.0306 13.8452 13.7351 14.1092C13.5671 14.2592 13.4231 14.3642 13.2656 14.4842V11.2982C13.2656 9.8237 14.4041 8.6732 15.8441 8.6732H19.2176C19.8262 8.62961 20.4108 8.4183 20.9066 8.0627C21.1736 7.8722 21.2396 7.4747 21.4211 7.1717ZM28.7336 10.9217C32.2225 10.9196 35.6028 12.1345 38.2921 14.3569C40.9815 16.5793 42.8115 19.6702 43.4668 23.0969C44.1221 26.5236 43.5617 30.0716 41.8821 33.1295C40.2026 36.1875 37.509 38.5638 34.2656 39.8492V38.0867C38.8406 35.9117 41.9861 31.2767 41.9876 25.9247C41.9876 18.4787 35.9351 12.4247 28.4876 12.4247V12.4217C27.3986 12.4217 26.3171 12.5657 25.2656 12.8297V11.3597C26.4003 11.0772 27.5644 10.9302 28.7336 10.9217ZM28.4876 13.9217C35.1236 13.9217 40.4876 19.2857 40.4876 25.9217C40.4876 30.4367 37.9796 34.3667 34.2656 36.4127V35.6717C34.262 34.6247 33.9829 33.5971 33.4563 32.6921C32.9297 31.7871 32.1741 31.0367 31.2656 30.5162L23.7656 26.2502V22.6877C24.7327 21.4757 25.2614 19.9722 25.2656 18.4217V16.4057C25.3139 16.2534 25.3139 16.09 25.2656 15.9377V14.3972C26.3125 14.0906 27.3968 13.9306 28.4876 13.9217ZM15.7496 14.1557C16.2746 14.6657 16.7636 15.2492 17.3906 15.4217C18.3401 15.6842 19.3106 15.6467 20.2031 15.6092C21.0956 15.5717 21.9281 15.5417 22.5461 15.6557C23.1011 15.7592 23.4671 15.9707 23.7656 16.4057V18.4217C23.7656 21.3917 21.4316 23.7182 18.5156 23.7182C15.5981 23.7182 13.2656 21.3902 13.2656 18.4232V16.3127C13.4141 16.2407 13.5401 16.1252 13.6871 16.0307C14.0411 15.8057 14.3756 15.5417 14.7191 15.2357C15.0522 14.9444 15.3649 14.6307 15.6551 14.2967C15.6941 14.2517 15.7136 14.1992 15.7496 14.1557ZM28.2656 15.4217V18.4217H29.7656V15.4217H28.2656ZM35.9051 18.4817L33.7841 20.6012L34.8446 21.6617L36.9671 19.5407L35.9066 18.4802L35.9051 18.4817ZM28.2656 19.9217V24.6542C28.0416 24.7825 27.8547 24.9667 27.7232 25.1889C27.5917 25.4111 27.5202 25.6636 27.5156 25.9217C27.5156 26.7422 28.1951 27.4217 29.0156 27.4217C29.2733 27.4168 29.5252 27.345 29.7469 27.2136C29.9685 27.0821 30.1523 26.8954 30.2801 26.6717H33.5156V25.1717H30.2801C30.1539 24.9595 29.9771 24.7817 29.7656 24.6542V19.9202H28.2656V19.9217ZM14.7656 24.1412C15.8321 24.8507 17.1386 25.2182 18.5156 25.2182C19.8926 25.2182 21.1976 24.8507 22.2656 24.1412V27.0002C21.6611 28.1312 21.1256 29.3222 19.7816 30.4697L19.7336 30.5147L18.5156 31.6397L17.3906 30.5147L17.2961 30.4217C16.2461 29.2892 15.2561 27.9482 14.7656 26.6717V24.1412ZM36.5156 25.1612V26.6612H39.5156V25.1612H36.5156ZM12.7031 28.3112L11.7656 31.6397V31.7327C11.6246 32.8997 12.8906 33.8852 13.9676 33.3737V33.3272L16.7336 31.9667L17.7656 32.9522V40.9202H10.2656V37.1702H8.76564V40.9202H4.26564V35.8112C4.26564 34.1342 5.15364 32.5652 6.60864 31.7327L12.7031 28.3112ZM14.2031 28.3112C14.6831 29.1752 15.1586 30.0062 15.7961 30.7487L13.3121 32.0147C13.2551 32.0417 13.2506 32.0462 13.2656 31.9202L14.2031 28.3112ZM24.5621 28.4057L30.5156 31.8257C31.1955 32.2122 31.7614 32.7711 32.1564 33.4461C32.5515 34.121 32.7616 34.8882 32.7656 35.6702V40.9202H28.3121V37.1702H26.8121V40.9202H19.2656V33.0002L20.3906 31.9682L23.3441 33.3752C24.4361 33.8702 25.6976 32.9252 25.5461 31.7342V31.5932C25.5461 31.5932 25.1306 30.3287 24.7496 29.0627C24.6776 28.8227 24.6311 28.6337 24.5621 28.4057ZM23.0621 28.6397C23.1491 28.9382 23.2031 29.2187 23.2961 29.5292C23.6606 30.7412 24.0056 31.7927 24.0461 31.9202C24.0596 32.0222 24.0461 32.0552 23.9531 32.0102L21.4211 30.7922C22.1171 30.0317 22.6931 29.3252 23.0621 28.6397ZM34.8446 30.1697L33.7841 31.2287L35.9066 33.3497L36.9671 32.2892L34.8446 30.1682V30.1697ZM20.7656 35.6702C20.5667 35.6702 20.376 35.7492 20.2353 35.8899C20.0947 36.0305 20.0156 36.2213 20.0156 36.4202C20.0156 36.6191 20.0947 36.8099 20.2353 36.9505C20.376 37.0912 20.5667 37.1702 20.7656 37.1702C20.9646 37.1702 21.1553 37.0912 21.296 36.9505C21.4366 36.8099 21.5156 36.6191 21.5156 36.4202C21.5156 36.2213 21.4366 36.0305 21.296 35.8899C21.1553 35.7492 20.9646 35.6702 20.7656 35.6702ZM20.7656 38.6702C20.5667 38.6702 20.376 38.7492 20.2353 38.8899C20.0947 39.0305 20.0156 39.2213 20.0156 39.4202C20.0156 39.6191 20.0947 39.8099 20.2353 39.9505C20.376 40.0912 20.5667 40.1702 20.7656 40.1702C20.9646 40.1702 21.1553 40.0912 21.296 39.9505C21.4366 39.8099 21.5156 39.6191 21.5156 39.4202C21.5156 39.2213 21.4366 39.0305 21.296 38.8899C21.1553 38.7492 20.9646 38.6702 20.7656 38.6702Z" fill="white"/>
</g>
</svg>
