<svg width="48" height="48" viewBox="0 0 48 48" fill="none" xmlns="http://www.w3.org/2000/svg">
<g id="Payment">
<path id="Vector" d="M6.2052 40.61H6.20548C7.10981 40.609 7.97678 40.2492 8.61618 39.6097C9.19381 39.032 9.54307 38.2685 9.60578 37.4597C10.8743 37.5618 12.126 37.8848 13.2682 38.4332L22.7182 42.9704C23.3845 43.2902 24.1031 43.451 24.8232 43.451H24.8234C25.515 43.4506 26.1985 43.3026 26.8284 43.0171L44.4863 35.024L44.4864 35.0243L44.498 35.0183C44.8394 34.8418 45.0936 34.5289 45.1975 34.1595L45.1975 34.1592C45.2488 33.9761 45.2622 33.7844 45.2368 33.5959C45.2114 33.4075 45.1478 33.2261 45.0499 33.0631L45.0495 33.0625C43.6428 30.7353 40.9949 29.5008 38.3335 29.9177L30.0023 30.9068C30.0697 30.6356 30.1042 30.3569 30.1048 30.0765V30.0757C30.1038 29.1502 29.7357 28.2629 29.0812 27.6084C28.4267 26.954 27.5394 26.5858 26.6139 26.5848H26.6136H22.0838C21.2169 25.728 20.1919 25.0472 19.0653 24.5806C17.9139 24.1036 16.6794 23.8598 15.4331 23.8632H9.616V23.7532V23.753C9.61514 22.8486 9.25557 21.9816 8.61618 21.3421C7.97678 20.7026 7.10981 20.3428 6.20548 20.3418H6.2052H3.6C3.37457 20.3418 3.15837 20.4314 2.99896 20.5908H2.99896C2.83955 20.7502 2.75 20.9664 2.75 21.1918V39.76C2.75 39.9854 2.83955 40.2016 2.99896 40.361C3.15837 40.5205 3.37457 40.61 3.6 40.61H6.2052ZM41.4178 31.9865C42.2213 32.3522 42.9115 32.9242 43.4194 33.6421L26.1277 41.4685L26.1276 41.4685C25.7068 41.6593 25.2493 41.7555 24.7873 41.7502C24.3253 41.7449 23.8701 41.6383 23.4538 41.4379L23.4536 41.4378L14.0036 36.9006L14.0032 36.9005C12.6258 36.2419 11.1375 35.8486 9.616 35.7401V25.5638L15.4338 25.5632C17.5131 25.5632 19.4679 26.3727 20.9384 27.8432L21.1301 28.0349C21.209 28.114 21.3026 28.1768 21.4058 28.2197C21.5089 28.2625 21.6194 28.2847 21.7311 28.2848H21.7314H26.6136C27.6011 28.2848 28.4048 29.0885 28.4048 30.076C28.4048 31.0634 27.6012 31.8666 26.6136 31.8666H16.0494C15.824 31.8666 15.6078 31.9562 15.4484 32.1156C15.289 32.275 15.1994 32.4912 15.1994 32.7166C15.1994 32.942 15.289 33.1582 15.4484 33.3176C15.6078 33.4771 15.824 33.5666 16.0494 33.5666H26.6136C27.4299 33.5665 28.2192 33.2791 28.8437 32.7561L38.5603 31.6029L38.5603 31.6031L38.5702 31.6015C39.5366 31.4471 40.5271 31.581 41.4178 31.9865ZM4.45 22.0418H6.20489C6.65863 22.0424 7.09361 22.2229 7.4144 22.5438C7.73519 22.8647 7.91558 23.2997 7.916 23.7534V37.1984C7.91558 37.6521 7.73519 38.0872 7.4144 38.408C7.09361 38.7289 6.65863 38.9095 6.2049 38.91H4.45V22.0418ZM43.8 4.5498H17.4C16.6001 4.5498 15.95 5.19993 15.95 5.9998V21.5998C15.95 22.3997 16.6001 23.0498 17.4 23.0498H43.8C44.5999 23.0498 45.25 22.3997 45.25 21.5998V5.9998C45.25 5.19993 44.5999 4.5498 43.8 4.5498ZM43.55 6.2498V9.40569C42.7775 9.24085 42.0668 8.85589 41.5053 8.29446C40.9439 7.73303 40.559 7.0223 40.3941 6.2498H43.55ZM17.65 6.2498H20.8059C20.641 7.0223 20.2561 7.73303 19.6947 8.29446C19.1332 8.85589 18.4225 9.24085 17.65 9.40569V6.2498ZM17.65 21.3498V18.1939C18.4225 18.3588 19.1332 18.7437 19.6947 19.3052C20.2561 19.8666 20.641 20.5773 20.8059 21.3498H17.65ZM22.5372 21.3498C22.3535 20.1213 21.7805 18.9817 20.8993 18.1005C20.0181 17.2194 18.8786 16.6463 17.65 16.4626V11.137C18.8786 10.9533 20.0181 10.3803 20.8993 9.4991C21.7805 8.61795 22.3535 7.47836 22.5372 6.2498H38.6628C38.8465 7.47836 39.4195 8.61795 40.3007 9.4991C41.1819 10.3803 42.3215 10.9533 43.55 11.137V16.4626C42.3215 16.6463 41.1819 17.2194 40.3007 18.1005C39.4195 18.9817 38.8465 20.1213 38.6628 21.3498H22.5372ZM43.55 21.3498H40.3941C40.559 20.5773 40.9439 19.8666 41.5053 19.3052C42.0668 18.7437 42.7775 18.3588 43.55 18.1939V21.3498Z" fill="white" stroke="white" stroke-width="0.5"/>
<path id="Vector_2" d="M22.1996 11.7498H23.9996C24.225 11.7498 24.4412 11.8394 24.6007 11.9988C24.7601 12.1582 24.8496 12.3744 24.8496 12.5998C24.8496 12.8252 24.7601 13.0414 24.6007 13.2008C24.4412 13.3603 24.225 13.4498 23.9996 13.4498H22.1996C21.9742 13.4498 21.758 13.3603 21.5986 13.2008M22.1996 11.7498L21.5986 13.2008C21.5986 13.2008 21.5986 13.2008 21.5986 13.2008M22.1996 11.7498C21.9742 11.7498 21.758 11.8394 21.5986 11.9988M22.1996 11.7498L21.5986 11.9988M21.5986 13.2008C21.4392 13.0414 21.3496 12.8252 21.3496 12.5998C21.3496 12.3744 21.4392 12.1582 21.5986 11.9988M21.5986 13.2008V11.9988M22.1996 14.1498H23.9996C24.225 14.1498 24.4412 14.2394 24.6007 14.3988C24.7601 14.5582 24.8496 14.7744 24.8496 14.9998C24.8496 15.2252 24.7601 15.4414 24.6007 15.6008C24.4412 15.7603 24.225 15.8498 23.9996 15.8498H22.1996C21.9742 15.8498 21.758 15.7603 21.5986 15.6008M22.1996 14.1498L21.5986 15.6008C21.5986 15.6008 21.5986 15.6008 21.5986 15.6008M22.1996 14.1498C21.9742 14.1498 21.758 14.2394 21.5986 14.3988M22.1996 14.1498L21.5986 14.3988M21.5986 15.6008C21.4392 15.4414 21.3496 15.2252 21.3496 14.9998C21.3496 14.7744 21.4392 14.5582 21.5986 14.3988M21.5986 15.6008V14.3988M30.5996 10.2008C31.4787 10.2008 32.1496 10.8414 32.1496 11.575C32.1496 11.8004 32.2392 12.0166 32.3986 12.176L32.5753 11.9993L32.3986 12.176C32.558 12.3355 32.7742 12.425 32.9996 12.425C33.225 12.425 33.4412 12.3355 33.6007 12.176C33.7601 12.0166 33.8496 11.8004 33.8496 11.575C33.8496 10.1481 32.8221 8.95978 31.4496 8.6077V8.3998C31.4496 8.17437 31.3601 7.95817 31.2007 7.79876C31.0412 7.63936 30.825 7.5498 30.5996 7.5498C30.3742 7.5498 30.158 7.63936 29.9986 7.79876V7.79876C29.8392 7.95817 29.7496 8.17437 29.7496 8.3998V8.6077C28.3771 8.95978 27.3496 10.1481 27.3496 11.575C27.3496 13.2846 28.8217 14.6498 30.5996 14.6498C31.4786 14.6498 32.1496 15.2903 32.1496 16.0246C32.1496 16.7582 31.4787 17.3988 30.5996 17.3988C29.7205 17.3988 29.0496 16.7582 29.0496 16.0246C29.0496 15.7992 28.9601 15.583 28.8007 15.4236C28.6412 15.2642 28.425 15.1746 28.1996 15.1746C27.9742 15.1746 27.758 15.2642 27.5986 15.4236C27.4392 15.583 27.3496 15.7992 27.3496 16.0246C27.3496 17.4515 28.3771 18.6398 29.7496 18.9919V19.1998C29.7496 19.4252 29.8392 19.6414 29.9986 19.8008C30.158 19.9603 30.3742 20.0498 30.5996 20.0498C30.825 20.0498 31.0412 19.9603 31.2007 19.8008C31.3601 19.6414 31.4496 19.4252 31.4496 19.1998V18.9919C32.8221 18.6398 33.8496 17.4515 33.8496 16.0246C33.8496 14.315 32.3775 12.9498 30.5996 12.9498C29.7206 12.9498 29.0496 12.3093 29.0496 11.575C29.0496 10.8414 29.7205 10.2008 30.5996 10.2008ZM38.9996 11.7498H37.1996C36.9742 11.7498 36.758 11.8394 36.5986 11.9988C36.4392 12.1582 36.3496 12.3744 36.3496 12.5998C36.3496 12.8252 36.4392 13.0414 36.5986 13.2008C36.758 13.3603 36.9742 13.4498 37.1996 13.4498H38.9996C39.225 13.4498 39.4412 13.3603 39.6007 13.2008C39.7601 13.0414 39.8496 12.8252 39.8496 12.5998C39.8496 12.3744 39.7601 12.1582 39.6007 11.9988C39.4412 11.8394 39.225 11.7498 38.9996 11.7498ZM38.9996 14.1498H37.1996C36.9742 14.1498 36.758 14.2394 36.5986 14.3988C36.4392 14.5582 36.3496 14.7744 36.3496 14.9998C36.3496 15.2252 36.4392 15.4414 36.5986 15.6008C36.758 15.7603 36.9742 15.8498 37.1996 15.8498H38.9996C39.225 15.8498 39.4412 15.7603 39.6007 15.6008C39.7601 15.4414 39.8496 15.2252 39.8496 14.9998C39.8496 14.7744 39.7601 14.5582 39.6007 14.3988C39.4412 14.2394 39.225 14.1498 38.9996 14.1498Z" fill="white" stroke="white" stroke-width="0.5"/>
</g>
</svg>
