<svg width="17" height="16" viewBox="0 0 17 16" fill="none" xmlns="http://www.w3.org/2000/svg">
<g id="Group 63">
<path id="Vector" d="M13.153 10.1735L11.4597 9.98017C11.053 9.9335 10.653 10.0735 10.3664 10.3602L9.1397 11.5868C7.25304 10.6268 5.70637 9.08684 4.74637 7.1935L5.9797 5.96017C6.26637 5.6735 6.40637 5.2735 6.3597 4.86684L6.16637 3.18684C6.08637 2.5135 5.5197 2.00684 4.8397 2.00684H3.68637C2.93304 2.00684 2.30637 2.6335 2.35303 3.38684C2.70637 9.08017 7.2597 13.6268 12.9464 13.9802C13.6997 14.0268 14.3264 13.4002 14.3264 12.6468V11.4935C14.333 10.8202 13.8264 10.2535 13.153 10.1735Z" fill="white"/>
</g>
</svg>
