<svg width="40" height="40" viewBox="0 0 40 40" fill="none" xmlns="http://www.w3.org/2000/svg">
<g id="icon">
<path id="Vector" d="M19.9997 3.33398C10.7997 3.33398 3.33301 10.8007 3.33301 20.0007C3.33301 29.2007 10.7997 36.6673 19.9997 36.6673C29.1997 36.6673 36.6663 29.2007 36.6663 20.0007C36.6663 10.8007 29.1997 3.33398 19.9997 3.33398ZM19.9997 33.334C12.6497 33.334 6.66634 27.3507 6.66634 20.0007C6.66634 12.6507 12.6497 6.66732 19.9997 6.66732C27.3497 6.66732 33.333 12.6507 33.333 20.0007C33.333 27.3507 27.3497 33.334 19.9997 33.334ZM18.333 26.6673H21.6663V30.0007H18.333V26.6673ZM21.0163 10.0673C17.583 9.56732 14.5497 11.684 13.633 14.7173C13.333 15.684 14.0663 16.6673 15.083 16.6673H15.4163C16.0997 16.6673 16.6497 16.184 16.883 15.5507C17.4163 14.0673 18.9997 13.0507 20.7163 13.4173C22.2997 13.7507 23.4663 15.3006 23.333 16.9173C23.1663 19.1507 20.633 19.634 19.2497 21.7173C19.2497 21.734 19.233 21.734 19.233 21.7507C19.2163 21.784 19.1997 21.8007 19.183 21.834C19.033 22.084 18.883 22.3673 18.7663 22.6673C18.7497 22.7173 18.7163 22.7507 18.6997 22.8007C18.683 22.834 18.683 22.8673 18.6663 22.9173C18.4663 23.484 18.333 24.1673 18.333 25.0007H21.6663C21.6663 24.3006 21.8497 23.7173 22.133 23.2173C22.1663 23.1673 22.183 23.1173 22.2163 23.0673C22.3497 22.834 22.5163 22.6173 22.683 22.4173C22.6997 22.4007 22.7163 22.3673 22.733 22.3507C22.8997 22.1507 23.083 21.9673 23.283 21.784C24.883 20.2673 27.0497 19.034 26.5997 15.8507C26.1997 12.9507 23.9163 10.5007 21.0163 10.0673Z" fill="#0155A5"/>
</g>
</svg>
