<svg width="48" height="48" viewBox="0 0 48 48" fill="none" xmlns="http://www.w3.org/2000/svg">
<g id="Route">
<path id="Vector" fill-rule="evenodd" clip-rule="evenodd" d="M33.252 22.5H27.582C23.9475 22.5 21 25.4475 21 29.082V29.418C21 33.0525 23.9475 36 27.582 36H33.147C33.9045 36 34.629 36.3 35.1645 36.8355C35.7 37.371 36 38.0955 36 38.853V39.147C36 39.9045 35.7 40.629 35.1645 41.1645C34.629 41.7 33.9045 42 33.147 42H14.748C16.695 38.9445 18 33.909 18 31.5C18 27.36 14.64 24 10.5 24C6.36 24 3 27.36 3 31.5C3 34.0155 4.422 39.393 6.513 42.3915C7.6755 44.058 9.102 45 10.5 45H33.147C34.6995 45 36.1875 44.3835 37.2855 43.2855C38.3835 42.1875 39 40.6995 39 39.147C39 39.0495 39 38.9505 39 38.853C39 37.3005 38.3835 35.8125 37.2855 34.7145C36.1875 33.6165 34.6995 33 33.147 33H31.5H27.582C25.6035 33 24 31.3965 24 29.418V29.082C24 27.1035 25.6035 25.5 27.582 25.5H37.5C38.898 25.5 40.3245 24.558 41.487 22.8915C43.578 19.893 45 14.5155 45 12C45 7.86 41.64 4.5 37.5 4.5C33.36 4.5 30 7.86 30 12C30 14.409 31.305 19.4445 33.252 22.5ZM10.5 42C10.191 42 9.9315 41.769 9.6525 41.4975C9.153 41.0085 8.7 40.317 8.2845 39.5295C6.912 36.933 6 33.3285 6 31.5C6 29.016 8.016 27 10.5 27C12.984 27 15 29.016 15 31.5C15 33.3285 14.088 36.933 12.7155 39.5295C12.3 40.317 11.847 41.0085 11.3475 41.4975C11.0685 41.769 10.809 42 10.5 42ZM10.5 29.25C11.742 29.25 12.75 30.258 12.75 31.5C12.75 32.742 11.742 33.75 10.5 33.75C9.258 33.75 8.25 32.742 8.25 31.5C8.25 30.258 9.258 29.25 10.5 29.25ZM37.5 7.5C39.984 7.5 42 9.516 42 12C42 13.8285 41.088 17.433 39.7155 20.0295C39.3 20.817 38.847 21.5085 38.3475 21.9975C38.0685 22.269 37.809 22.5 37.5 22.5C37.191 22.5 36.9315 22.269 36.6525 21.9975C36.153 21.5085 35.7 20.817 35.2845 20.0295C33.912 17.433 33 13.8285 33 12C33 9.516 35.016 7.5 37.5 7.5ZM37.5 9.75C38.742 9.75 39.75 10.758 39.75 12C39.75 13.242 38.742 14.25 37.5 14.25C36.258 14.25 35.25 13.242 35.25 12C35.25 10.758 36.258 9.75 37.5 9.75Z" fill="white"/>
</g>
</svg>
