<svg width="40" height="40" viewBox="0 0 40 40" fill="none" xmlns="http://www.w3.org/2000/svg">
<g id="Service">
<path id="Vector" d="M17.5 23.75C16.1213 23.75 15 24.8712 15 26.25V35.625C15 37.0037 16.1213 38.125 17.5 38.125H22.5C23.8787 38.125 25 37.0037 25 35.625V26.25C25 24.8712 23.8787 23.75 22.5 23.75H17.5ZM19.375 36.25C19.375 35.9056 19.655 35.625 20 35.625C20.345 35.625 20.625 35.9056 20.625 36.25C20.625 36.5944 20.345 36.875 20 36.875C19.655 36.875 19.375 36.5944 19.375 36.25ZM23.75 26.25V35.625C23.75 36.3144 23.1894 36.875 22.5 36.875H21.76C21.83 36.6788 21.875 36.47 21.875 36.25C21.875 35.2163 21.0338 34.375 20 34.375C18.9662 34.375 18.125 35.2163 18.125 36.25C18.125 36.47 18.17 36.6788 18.24 36.875H17.5C16.8106 36.875 16.25 36.3144 16.25 35.625V26.25C16.25 25.5606 16.8106 25 17.5 25H22.5C23.1894 25 23.75 25.5606 23.75 26.25ZM1.25 32.5H12.5C12.8456 32.5 13.125 32.22 13.125 31.875V24.375C13.125 24.03 12.8456 23.75 12.5 23.75H1.25C0.904375 23.75 0.625 24.03 0.625 24.375V31.875C0.625 32.22 0.904375 32.5 1.25 32.5ZM6.46 29.8425C6.57813 29.9475 6.72687 30 6.875 30C7.02313 30 7.17187 29.9475 7.29 29.8425L8.72375 28.5681L11.1081 31.25H2.64188L5.02625 28.5675L6.46 29.8425ZM9.65812 27.7375L11.875 25.7669V30.2312L9.65812 27.7375ZM6.875 28.5387L2.89375 25H10.8563L6.875 28.5387ZM4.09188 27.7375L1.875 30.2312V25.7669L4.09188 27.7375ZM36.875 23.75H29.375C27.9963 23.75 26.875 24.8712 26.875 26.25V30C26.875 31.3787 27.9963 32.5 29.375 32.5H35.8638L36.9406 34.6537C37.0462 34.8656 37.2631 34.9994 37.5 34.9994C37.7369 34.9994 37.9531 34.8656 38.0594 34.6537C38.9194 32.9319 39.375 31.0044 39.375 29.08V26.25C39.375 24.8712 38.2537 23.75 36.875 23.75ZM38.125 29.08C38.125 30.3744 37.8963 31.6713 37.4562 32.89L36.8094 31.595C36.7038 31.3837 36.4869 31.25 36.25 31.25H29.375C28.6856 31.25 28.125 30.6894 28.125 30V26.25C28.125 25.5606 28.6856 25 29.375 25H36.875C37.5644 25 38.125 25.5606 38.125 26.25V29.08Z" fill="white"/>
<path id="Vector_2" d="M36.25 26.2493H30V27.4993H36.25V26.2493Z" fill="white"/>
<path id="Vector_3" d="M36.25 28.7493H30V29.9993H36.25V28.7493Z" fill="white"/>
<path id="Vector_4" d="M7.5 20H19.375V22.5H20.625V20H32.5V22.5H33.75V19.375C33.75 19.03 33.4706 18.75 33.125 18.75H6.875C6.52938 18.75 6.25 19.03 6.25 19.375V22.5H7.5V20ZM12.5 17.5H27.5C27.8456 17.5 28.125 17.22 28.125 16.875V2.5C28.125 2.155 27.8456 1.875 27.5 1.875H12.5C12.1544 1.875 11.875 2.155 11.875 2.5V16.875C11.875 17.22 12.1544 17.5 12.5 17.5ZM18.75 3.125H21.25V7.58187L20.3469 6.98C20.1369 6.84 19.8637 6.84 19.6537 6.98L18.75 7.58187V3.125ZM13.125 3.125H17.5V8.75C17.5 8.98063 17.6269 9.1925 17.83 9.30125C18.0325 9.41 18.28 9.3975 18.4713 9.27L20 8.25125L21.5281 9.27C21.6325 9.34 21.7537 9.375 21.875 9.375C21.9762 9.375 22.0775 9.35063 22.17 9.30125C22.3731 9.1925 22.5 8.98063 22.5 8.75V3.125H26.875V16.25H13.125V3.125Z" fill="white"/>
</g>
</svg>
