<svg width="52" height="58" viewBox="0 0 52 58" fill="none" xmlns="http://www.w3.org/2000/svg">
<g id="Icon">
<g id="Icon_2">
<path id="Vector" d="M26.2852 7.81435V1.64941" stroke="#1C1F35" stroke-width="2" stroke-linecap="round" stroke-linejoin="round"/>
<path id="Vector_2" d="M50.9445 36.5841C47.1942 49.6846 29.8296 54.257 26.7471 54.9762C26.4437 55.0534 26.1258 55.0534 25.8224 54.9762C22.7399 54.257 5.37534 49.6846 1.625 36.5841V27.7991C1.62496 27.3664 1.76152 26.9447 2.01521 26.5942C2.26889 26.2436 2.62676 25.9821 3.0378 25.8469L25.6426 18.2948C26.061 18.1661 26.5085 18.1661 26.9269 18.2948L49.5317 25.8469C49.9428 25.9821 50.3006 26.2436 50.5543 26.5942C50.808 26.9447 50.9445 27.3664 50.9445 27.7991V36.5841Z" stroke="#1C1F35" stroke-width="2" stroke-linecap="round" stroke-linejoin="round"/>
<path id="Vector_3" d="M26.7521 48.3146C24.3133 47.7531 10.5746 44.1835 7.60742 33.9561" stroke="#1C1F35" stroke-width="2" stroke-linecap="round" stroke-linejoin="round"/>
<path id="Vector 1" d="M7.60742 10.6318V23.7852L26.1538 17.2042L44.7002 23.7852V10.6318C44.7002 8.97498 43.3571 7.63184 41.7002 7.63184H10.6074C8.95057 7.63184 7.60742 8.97498 7.60742 10.6318Z" fill="#0155A5" stroke="#1C1F35" stroke-width="2"/>
<path id="Vector_4" d="M26.2852 38.6392V18.1921" stroke="#1C1F35" stroke-width="2" stroke-linecap="round" stroke-linejoin="round"/>
<path id="Vector_5" d="M31.5391 37.5457L31.5391 29.1699" stroke="#1C1F35" stroke-width="2" stroke-linecap="round" stroke-linejoin="round"/>
<path id="Vector_6" d="M12.3936 18.4007V12.418" stroke="#1C1F35" stroke-width="2" stroke-linecap="round" stroke-linejoin="round"/>
<path id="Vector_7" d="M49.4863 20.794V10.0251" stroke="#1C1F35" stroke-width="2" stroke-linecap="round" stroke-linejoin="round"/>
</g>
</g>
</svg>
