<svg width="50" height="56" viewBox="0 0 50 56" fill="none" xmlns="http://www.w3.org/2000/svg">
<g id="Temperature" clip-path="url(#clip0_59_4326)">
<g id="Layer 2">
<path id="Vector" d="M13.3338 56H13.1424C5.86621 55.8983 -0.031967 49.9625 0.000130385 42.7656C0.00703834 40.6837 0.514385 38.6331 1.48038 36.7828C2.44637 34.9326 3.84337 33.3356 5.5563 32.1234V7.6825C5.58071 5.66071 6.41058 3.7299 7.86598 2.30873C9.32138 0.887563 11.285 0.0905762 13.3311 0.0905762C15.3771 0.0905762 17.3408 0.887563 18.7962 2.30873C20.2515 3.7299 21.0814 5.66071 21.1058 7.6825V32.1234C23.3981 33.7495 25.1091 36.0523 25.9927 38.7004C26.8763 41.3486 26.8868 44.2055 26.0228 46.8599C25.1587 49.5144 23.4647 51.8294 21.1845 53.4719C18.9043 55.1144 16.1555 55.9995 13.3338 56ZM13.3338 2.1875C11.859 2.18837 10.4448 2.76748 9.40169 3.79771C8.35854 4.82794 7.77167 6.2251 7.76991 7.6825V32.7031C7.77007 32.8851 7.72431 33.0642 7.63676 33.2242C7.54921 33.3842 7.42265 33.5202 7.26853 33.6197C5.72291 34.6113 4.45148 35.9676 3.569 37.5663C2.68651 39.1649 2.22075 40.9555 2.21374 42.7766C2.18718 48.7812 7.10362 53.7272 13.1711 53.8125H13.3316C15.7284 53.8123 18.0609 53.0468 19.9816 51.6299C21.9022 50.2131 23.3081 48.2208 23.9897 45.9501C24.6712 43.6793 24.592 41.2518 23.7638 39.0292C22.9355 36.8066 21.4026 34.908 19.3936 33.6164C19.2393 33.517 19.1125 33.3811 19.0248 33.2211C18.937 33.061 18.8911 32.8819 18.8911 32.6998V7.6825C18.8894 6.22586 18.3031 4.82936 17.2609 3.79925C16.2187 2.76915 14.8056 2.18952 13.3316 2.1875H13.3338Z" fill="white"/>
<path id="Vector_2" d="M13.3336 51.6064C13.2617 51.6064 13.1886 51.6064 13.1123 51.6064C11.0684 51.5583 9.10395 50.8152 7.55002 49.5024C5.9961 48.1896 4.94781 46.3874 4.58194 44.3997C4.21607 42.4121 4.55499 40.3605 5.54155 38.591C6.52811 36.8216 8.10196 35.4424 9.99771 34.6861V25.2547C9.99771 24.8227 10.0838 24.3948 10.2511 23.9957C10.4184 23.5965 10.6637 23.2338 10.9728 22.9283C11.282 22.6228 11.649 22.3805 12.0529 22.2151C12.4569 22.0498 12.8898 21.9647 13.327 21.9647C13.7642 21.9647 14.1971 22.0498 14.601 22.2151C15.005 22.3805 15.372 22.6228 15.6811 22.9283C15.9903 23.2338 16.2355 23.5965 16.4028 23.9957C16.5701 24.3948 16.6563 24.8227 16.6563 25.2547V34.685C18.146 35.2824 19.4457 36.2646 20.4194 37.5288C21.4163 38.8315 22.0257 40.3832 22.1791 42.0095C22.3326 43.6357 22.024 45.272 21.2881 46.7344C20.5521 48.1968 19.418 49.4275 18.0132 50.2879C16.6084 51.1484 14.9886 51.6046 13.3358 51.6053L13.3336 51.6064ZM13.3336 24.1533C13.0377 24.1539 12.7541 24.2704 12.545 24.4772C12.3359 24.6841 12.2183 24.9645 12.218 25.2569V35.4605C12.2178 35.6961 12.1407 35.9253 11.9982 36.1141C11.8556 36.3029 11.6551 36.4412 11.4266 36.5083C9.89094 36.961 8.57144 37.9447 7.70938 39.2797C6.84733 40.6146 6.5003 42.2116 6.73175 43.7786C6.9632 45.3456 7.75767 46.778 8.9699 47.8137C10.1821 48.8495 11.7311 49.4195 13.3336 49.4195C14.9361 49.4195 16.4851 48.8495 17.6974 47.8137C18.9096 46.778 19.7041 45.3456 19.9355 43.7786C20.167 42.2116 19.8199 40.6146 18.9579 39.2797C18.0958 37.9447 16.7763 36.961 15.2407 36.5083C15.0121 36.4412 14.8117 36.3029 14.6691 36.1141C14.5265 35.9253 14.4494 35.6961 14.4493 35.4605V25.2547C14.449 24.9619 14.3311 24.6812 14.1215 24.4743C13.9119 24.2674 13.6277 24.1511 13.3314 24.1511L13.3336 24.1533ZM36.6684 27.4466C34.0317 27.4466 31.4542 26.6739 29.2619 25.2263C27.0695 23.7787 25.3608 21.7212 24.3517 19.3139C23.3427 16.9066 23.0787 14.2578 23.5931 11.7022C24.1075 9.14666 25.3772 6.79924 27.2416 4.95679C29.1061 3.11434 31.4815 1.85962 34.0676 1.35129C36.6536 0.842959 39.3342 1.10385 41.7702 2.10098C44.2062 3.0981 46.2883 4.78668 47.7532 6.95317C49.218 9.11965 49.9999 11.6668 49.9999 14.2724C49.9958 17.7651 48.5899 21.1137 46.0907 23.5835C43.5914 26.0532 40.2029 27.4425 36.6684 27.4466ZM36.6684 3.28565C34.4695 3.28565 32.32 3.93001 30.4917 5.13725C28.6634 6.34448 27.2383 8.06037 26.3969 10.0679C25.5554 12.0755 25.3352 14.2846 25.7642 16.4158C26.1932 18.547 27.252 20.5046 28.8069 22.0412C30.3618 23.5777 32.3428 24.6241 34.4994 25.048C36.6561 25.4719 38.8915 25.2543 40.9231 24.4228C42.9546 23.5912 44.691 22.183 45.9126 20.3763C47.1343 18.5695 47.7863 16.4453 47.7863 14.2724C47.7843 11.3587 46.6124 8.56494 44.528 6.50428C42.4435 4.44361 39.6169 3.28446 36.6684 3.28128V3.28565Z" fill="white"/>
<path id="Vector_3" d="M36.669 17.5624C36.0106 17.5622 35.367 17.3691 34.8196 17.0074C34.2723 16.6458 33.8457 16.1319 33.5939 15.5307C33.3421 14.9295 33.2763 14.268 33.4049 13.6299C33.5335 12.9918 33.8507 12.4057 34.3163 11.9457C34.782 11.4857 35.3752 11.1724 36.021 11.0456C36.6668 10.9187 37.3361 10.9839 37.9444 11.233C38.5527 11.482 39.0726 11.9037 39.4384 12.4447C39.8041 12.9857 39.9994 13.6218 39.9994 14.2724C39.9982 15.1448 39.6469 15.9811 39.0226 16.5979C38.3982 17.2147 37.5518 17.5616 36.669 17.5624ZM36.669 13.1699C36.4484 13.1701 36.2328 13.235 36.0495 13.3563C35.8661 13.4775 35.7233 13.6498 35.639 13.8513C35.5548 14.0527 35.5328 14.2744 35.576 14.4882C35.6192 14.702 35.7255 14.8983 35.8816 15.0524C36.0377 15.2065 36.2365 15.3114 36.4528 15.3538C36.6692 15.3963 36.8935 15.3744 37.0973 15.2909C37.3011 15.2074 37.4753 15.0661 37.5978 14.8848C37.7204 14.7035 37.7858 14.4904 37.7858 14.2724C37.7852 13.98 37.6673 13.6998 37.4579 13.4931C37.2486 13.2864 36.9649 13.1702 36.669 13.1699Z" fill="white"/>
<path id="Vector_4" d="M36.6683 13.1699C36.3748 13.1699 36.0933 13.0547 35.8857 12.8496C35.6781 12.6445 35.5615 12.3663 35.5615 12.0762V6.58447C35.5615 6.29439 35.6781 6.01619 35.8857 5.81107C36.0933 5.60596 36.3748 5.49072 36.6683 5.49072C36.9619 5.49072 37.2434 5.60596 37.451 5.81107C37.6585 6.01619 37.7751 6.29439 37.7751 6.58447V12.0762C37.7751 12.3663 37.6585 12.6445 37.451 12.8496C37.2434 13.0547 36.9619 13.1699 36.6683 13.1699Z" fill="white"/>
<path id="Vector_5" d="M36.6684 10.9736C36.3748 10.9736 36.0934 10.8583 35.8859 10.6532L33.6634 8.45691C33.4557 8.25182 33.339 7.97361 33.3389 7.68347C33.3388 7.39333 33.4553 7.11503 33.6628 6.9098C33.8704 6.70457 34.1519 6.58921 34.4455 6.58911C34.7391 6.58901 35.0207 6.70417 35.2284 6.90925L36.6673 8.33113L38.1061 6.90925C38.3138 6.70417 38.5954 6.58901 38.889 6.58911C39.1826 6.58921 39.4642 6.70457 39.6717 6.9098C39.8792 7.11503 39.9958 7.39333 39.9957 7.68347C39.9955 7.97361 39.8788 8.25182 39.6711 8.45691L37.452 10.6532C37.3491 10.7549 37.2269 10.8355 37.0925 10.8905C36.958 10.9455 36.8139 10.9737 36.6684 10.9736ZM44.4481 15.3661H38.8919C38.5984 15.3661 38.3169 15.2509 38.1093 15.0458C37.9017 14.8407 37.7851 14.5625 37.7851 14.2724C37.7851 13.9823 37.9017 13.7041 38.1093 13.499C38.3169 13.2939 38.5984 13.1786 38.8919 13.1786H44.4481C44.7417 13.1786 45.0232 13.2939 45.2307 13.499C45.4383 13.7041 45.5549 13.9823 45.5549 14.2724C45.5549 14.5625 45.4383 14.8407 45.2307 15.0458C45.0232 15.2509 44.7417 15.3661 44.4481 15.3661Z" fill="white"/>
<path id="Vector_6" d="M43.3368 17.5624C43.0433 17.5624 42.7619 17.4471 42.5543 17.242L40.3319 15.0457C40.1244 14.8406 40.0078 14.5625 40.0078 14.2724C40.0078 13.9824 40.1244 13.7043 40.3319 13.4992L42.5543 11.3029C42.6564 11.1984 42.7786 11.1151 42.9136 11.0578C43.0486 11.0005 43.1939 10.9703 43.3408 10.969C43.4878 10.9678 43.6335 10.9954 43.7696 11.0504C43.9056 11.1054 44.0292 11.1867 44.1331 11.2893C44.237 11.392 44.3192 11.5142 44.3748 11.6486C44.4305 11.783 44.4585 11.927 44.4572 12.0722C44.4559 12.2175 44.4254 12.361 44.3674 12.4944C44.3094 12.6279 44.2251 12.7486 44.1194 12.8495L42.6805 14.2713L44.1194 15.6932C44.2741 15.8462 44.3795 16.041 44.4222 16.2532C44.4648 16.4653 44.4429 16.6852 44.3592 16.885C44.2754 17.0849 44.1336 17.2557 43.9516 17.3758C43.7697 17.496 43.5557 17.5602 43.3368 17.5602V17.5624ZM36.6683 23.0531C36.3748 23.0531 36.0933 22.9378 35.8857 22.7327C35.6781 22.5276 35.5615 22.2494 35.5615 21.9593V16.4687C35.5615 16.1786 35.6781 15.9004 35.8857 15.6953C36.0933 15.4902 36.3748 15.3749 36.6683 15.3749C36.9619 15.3749 37.2434 15.4902 37.451 15.6953C37.6585 15.9004 37.7751 16.1786 37.7751 16.4687V21.9593C37.7751 22.2494 37.6585 22.5276 37.451 22.7327C37.2434 22.9378 36.9619 23.0531 36.6683 23.0531Z" fill="white"/>
<path id="Vector_7" d="M38.8925 21.955C38.7471 21.9553 38.6031 21.9272 38.4687 21.8722C38.3344 21.8172 38.2125 21.7364 38.11 21.6345L36.6711 20.2126L35.2323 21.6345C35.0235 21.8337 34.7439 21.944 34.4537 21.9415C34.1635 21.939 33.8859 21.824 33.6807 21.6212C33.4755 21.4184 33.3591 21.1441 33.3566 20.8573C33.3541 20.5705 33.4656 20.2942 33.6672 20.0879L35.8897 17.8917C35.9925 17.79 36.1146 17.7093 36.2489 17.6543C36.3833 17.5992 36.5273 17.5709 36.6728 17.5709C36.8182 17.5709 36.9623 17.5992 37.0966 17.6543C37.231 17.7093 37.3531 17.79 37.4558 17.8917L39.6783 20.0879C39.8331 20.2409 39.9384 20.4358 39.9811 20.6479C40.0238 20.86 40.0019 21.0799 39.9181 21.2797C39.8344 21.4796 39.6926 21.6504 39.5106 21.7706C39.3286 21.8907 39.1147 21.9549 38.8958 21.955H38.8925ZM34.4464 15.3662H28.8881C28.5945 15.3662 28.313 15.251 28.1054 15.0459C27.8979 14.8407 27.7812 14.5625 27.7812 14.2725C27.7812 13.9824 27.8979 13.7042 28.1054 13.4991C28.313 13.2939 28.5945 13.1787 28.8881 13.1787H34.4442C34.7378 13.1787 35.0193 13.2939 35.2269 13.4991C35.4344 13.7042 35.551 13.9824 35.551 14.2725C35.551 14.5625 35.4344 14.8407 35.2269 15.0459C35.0193 15.251 34.7378 15.3662 34.4442 15.3662H34.4464Z" fill="white"/>
<path id="Vector_8" d="M30.0011 17.5624C29.7824 17.5622 29.5686 17.4979 29.3868 17.3776C29.205 17.2573 29.0633 17.0865 28.9797 16.8867C28.8961 16.6869 28.8743 16.4671 28.917 16.2551C28.9597 16.0431 29.0651 15.8483 29.2197 15.6954L30.6586 14.2735L29.2197 12.8517C29.114 12.7508 29.0297 12.6301 28.9717 12.4966C28.9137 12.3632 28.8832 12.2197 28.8819 12.0744C28.8806 11.9292 28.9086 11.7852 28.9643 11.6508C29.0199 11.5164 29.1021 11.3942 29.206 11.2915C29.3099 11.1888 29.4335 11.1076 29.5695 11.0526C29.7056 10.9976 29.8513 10.97 29.9983 10.9712C30.1452 10.9725 30.2905 11.0027 30.4255 11.06C30.5605 11.1173 30.6827 11.2006 30.7848 11.3051L33.0072 13.5014C33.2147 13.7065 33.3313 13.9846 33.3313 14.2746C33.3313 14.5647 33.2147 14.8428 33.0072 15.0479L30.7848 17.2442C30.6817 17.3455 30.5594 17.4257 30.425 17.4803C30.2905 17.5349 30.1465 17.5628 30.0011 17.5624Z" fill="white"/>
</g>
</g>
<defs>
<clipPath id="clip0_59_4326">
<rect width="50" height="56" fill="white"/>
</clipPath>
</defs>
</svg>
