<svg width="21" height="20" viewBox="0 0 21 20" fill="none" xmlns="http://www.w3.org/2000/svg">
<path id="Vector" d="M11.1816 10.175L13.4316 12.425C13.615 12.6083 13.7066 12.8377 13.7066 13.113C13.7066 13.3877 13.615 13.625 13.4316 13.825C13.2316 14.025 12.9943 14.125 12.7196 14.125C12.4443 14.125 12.2066 14.025 12.0066 13.825L9.88164 11.7C9.64831 11.4667 9.47331 11.2083 9.35664 10.925C9.23997 10.6417 9.18164 10.3333 9.18164 10V7C9.18164 6.71667 9.27764 6.479 9.46964 6.287C9.66097 6.09567 9.89831 6 10.1816 6C10.465 6 10.7026 6.09567 10.8946 6.287C11.086 6.479 11.1816 6.71667 11.1816 7V10.175ZM10.1816 2C10.465 2 10.7026 2.09567 10.8946 2.287C11.086 2.479 11.1816 2.71667 11.1816 3C11.1816 3.28333 11.086 3.521 10.8946 3.713C10.7026 3.90433 10.465 4 10.1816 4C9.89831 4 9.66097 3.90433 9.46964 3.713C9.27764 3.521 9.18164 3.28333 9.18164 3C9.18164 2.71667 9.27764 2.479 9.46964 2.287C9.66097 2.09567 9.89831 2 10.1816 2ZM18.1816 10C18.1816 10.2833 18.0856 10.5207 17.8936 10.712C17.7023 10.904 17.465 11 17.1816 11C16.8983 11 16.661 10.904 16.4696 10.712C16.2776 10.5207 16.1816 10.2833 16.1816 10C16.1816 9.71667 16.2776 9.479 16.4696 9.287C16.661 9.09567 16.8983 9 17.1816 9C17.465 9 17.7023 9.09567 17.8936 9.287C18.0856 9.479 18.1816 9.71667 18.1816 10ZM10.1816 16C10.465 16 10.7026 16.096 10.8946 16.288C11.086 16.4793 11.1816 16.7167 11.1816 17C11.1816 17.2833 11.086 17.5207 10.8946 17.712C10.7026 17.904 10.465 18 10.1816 18C9.89831 18 9.66097 17.904 9.46964 17.712C9.27764 17.5207 9.18164 17.2833 9.18164 17C9.18164 16.7167 9.27764 16.4793 9.46964 16.288C9.66097 16.096 9.89831 16 10.1816 16ZM4.18164 10C4.18164 10.2833 4.08597 10.5207 3.89464 10.712C3.70264 10.904 3.46497 11 3.18164 11C2.89831 11 2.66064 10.904 2.46864 10.712C2.27731 10.5207 2.18164 10.2833 2.18164 10C2.18164 9.71667 2.27731 9.479 2.46864 9.287C2.66064 9.09567 2.89831 9 3.18164 9C3.46497 9 3.70264 9.09567 3.89464 9.287C4.08597 9.479 4.18164 9.71667 4.18164 10ZM10.1816 20C8.79831 20 7.49831 19.7373 6.28164 19.212C5.06497 18.6873 4.00664 17.975 3.10664 17.075C2.20664 16.175 1.49431 15.1167 0.969641 13.9C0.444307 12.6833 0.181641 11.3833 0.181641 10C0.181641 8.61667 0.444307 7.31667 0.969641 6.1C1.49431 4.88333 2.20664 3.825 3.10664 2.925C4.00664 2.025 5.06497 1.31233 6.28164 0.787C7.49831 0.262333 8.79831 0 10.1816 0C11.565 0 12.865 0.262333 14.0816 0.787C15.2983 1.31233 16.3566 2.025 17.2566 2.925C18.1566 3.825 18.869 4.88333 19.3936 6.1C19.919 7.31667 20.1816 8.61667 20.1816 10C20.1816 11.3833 19.919 12.6833 19.3936 13.9C18.869 15.1167 18.1566 16.175 17.2566 17.075C16.3566 17.975 15.2983 18.6873 14.0816 19.212C12.865 19.7373 11.565 20 10.1816 20ZM10.1816 18C12.415 18 14.3066 17.225 15.8566 15.675C17.4066 14.125 18.1816 12.2333 18.1816 10C18.1816 7.76667 17.4066 5.875 15.8566 4.325C14.3066 2.775 12.415 2 10.1816 2C7.94831 2 6.05664 2.775 4.50664 4.325C2.95664 5.875 2.18164 7.76667 2.18164 10C2.18164 12.2333 2.95664 14.125 4.50664 15.675C6.05664 17.225 7.94831 18 10.1816 18Z" fill="#0155A5"/>
</svg>
