<svg width="40" height="40" viewBox="0 0 40 40" fill="none" xmlns="http://www.w3.org/2000/svg">
<g id="Delivery Truck">
<g id="4-COURIER">
<path id="Vector" d="M24.375 4.375H2.5C2.33424 4.375 2.17527 4.44085 2.05806 4.55806C1.94085 4.67527 1.875 4.83424 1.875 5V31.25C1.875 31.4158 1.94085 31.5747 2.05806 31.6919C2.17527 31.8092 2.33424 31.875 2.5 31.875H6.9175C7.06419 32.9197 7.58341 33.8762 8.37953 34.5683C9.17566 35.2605 10.1951 35.6417 11.25 35.6417C12.3049 35.6417 13.3243 35.2605 14.1205 34.5683C14.9166 33.8762 15.4358 32.9197 15.5825 31.875H24.4175C24.5642 32.9197 25.0834 33.8762 25.8795 34.5683C26.6757 35.2605 27.6951 35.6417 28.75 35.6417C29.8049 35.6417 30.8243 35.2605 31.6205 34.5683C32.4166 33.8762 32.9358 32.9197 33.0825 31.875H37.5C37.6658 31.875 37.8247 31.8092 37.9419 31.6919C38.0592 31.5747 38.125 31.4158 38.125 31.25V17.5C38.125 10.2625 31.9569 4.375 24.375 4.375ZM25 8.15438C30 8.44688 34.0094 12.1919 34.3412 16.875H25V8.15438ZM11.6062 12.5075C11.6025 12.5075 11.5981 12.5075 11.5944 12.5025C11.5003 12.4295 11.3816 12.3954 11.2631 12.4075C11.2187 12.4025 11.1738 12.4025 11.1294 12.4075C11.1018 12.4159 11.0748 12.4263 11.0487 12.4388C10.9984 12.4535 10.9501 12.4745 10.905 12.5013C10.9012 12.5013 10.8969 12.5013 10.8938 12.5063L8.125 14.43V5.625H14.375V14.43L11.6062 12.5075ZM3.125 5.625H6.875V15.625C6.87507 15.7391 6.90636 15.8509 6.96548 15.9485C7.0246 16.0461 7.10929 16.1256 7.21038 16.1784C7.31146 16.2313 7.42509 16.2555 7.53894 16.2484C7.65279 16.2413 7.76252 16.2031 7.85625 16.1381L11.25 13.7819L14.6438 16.1381C14.7483 16.2108 14.8726 16.2499 15 16.25C15.1658 16.25 15.3247 16.1842 15.4419 16.0669C15.5592 15.9497 15.625 15.7908 15.625 15.625V5.625H23.75V23.75H3.125V5.625ZM11.2437 34.375C10.8333 34.3762 10.4267 34.2962 10.0473 34.1395C9.66799 33.9828 9.32341 33.7526 9.03348 33.4621C8.74354 33.1716 8.514 32.8265 8.35807 32.4469C8.20215 32.0672 8.12294 31.6604 8.125 31.25C8.125 31.1919 8.13063 31.1337 8.13562 31.0694C8.19411 30.2975 8.54138 29.5761 9.10819 29.0489C9.67499 28.5217 10.4197 28.2275 11.1938 28.225C11.9764 28.2222 12.7315 28.5138 13.3093 29.0419C13.887 29.5699 14.2451 30.2959 14.3125 31.0756C14.3215 31.1615 14.3425 31.2456 14.375 31.3256C14.3604 32.144 14.0232 32.9235 13.4368 33.4946C12.8504 34.0656 12.0622 34.3821 11.2437 34.375ZM28.7438 34.375C28.3333 34.3762 27.9267 34.2962 27.5473 34.1395C27.168 33.9828 26.8234 33.7526 26.5335 33.4621C26.2435 33.1716 26.014 32.8265 25.8581 32.4469C25.7022 32.0672 25.6229 31.6604 25.625 31.25C25.625 31.1919 25.6306 31.1337 25.6356 31.0694C25.6941 30.2975 26.0414 29.5761 26.6082 29.0489C27.175 28.5217 27.9197 28.2275 28.6938 28.225C29.4764 28.2222 30.2315 28.5138 30.8093 29.0419C31.387 29.5699 31.7451 30.2959 31.8125 31.0756C31.8215 31.1615 31.8425 31.2456 31.875 31.3256C31.8604 32.144 31.5232 32.9235 30.9368 33.4946C30.3504 34.0656 29.5622 34.3821 28.7438 34.375ZM33.0156 30.625C32.8428 29.604 32.3139 28.6772 31.5227 28.009C30.7316 27.3408 29.7293 26.9745 28.6938 26.975C27.6657 26.9786 26.6725 27.3478 25.8916 28.0165C25.1107 28.6852 24.5931 29.6098 24.4312 30.625H15.5156C15.3428 29.604 14.8139 28.6772 14.0227 28.009C13.2316 27.3408 12.2293 26.9745 11.1938 26.975C10.1657 26.9786 9.17245 27.3478 8.39157 28.0165C7.61068 28.6852 7.09307 29.6098 6.93125 30.625H3.125V25H24.375C24.5408 25 24.6997 24.9342 24.8169 24.8169C24.9342 24.6997 25 24.5408 25 24.375V18.125H35C35.1658 18.125 35.3247 18.0592 35.4419 17.9419C35.5592 17.8247 35.625 17.6658 35.625 17.5C35.625 11.8406 30.9119 7.21375 25 6.905V5.655C31.6012 5.9675 36.875 11.155 36.875 17.5V19.62C35.4137 19.7981 34.375 20.5944 34.375 21.6125C34.375 22.6306 35.4137 23.425 36.875 23.605V30.625H33.0156ZM36.875 22.3431C36.105 22.2131 35.625 21.8619 35.625 21.6125C35.625 21.3906 36.0869 21.0194 36.875 20.8831V22.3431Z" fill="white"/>
<path id="Vector_2" d="M28.75 20H26.875C26.7092 20 26.5503 20.0658 26.4331 20.1831C26.3158 20.3003 26.25 20.4592 26.25 20.625C26.25 20.7908 26.3158 20.9497 26.4331 21.0669C26.5503 21.1842 26.7092 21.25 26.875 21.25H28.75C28.9158 21.25 29.0747 21.1842 29.1919 21.0669C29.3092 20.9497 29.375 20.7908 29.375 20.625C29.375 20.4592 29.3092 20.3003 29.1919 20.1831C29.0747 20.0658 28.9158 20 28.75 20ZM7.5 20H11.25C11.4158 20 11.5747 19.9342 11.6919 19.8169C11.8092 19.6997 11.875 19.5408 11.875 19.375C11.875 19.2092 11.8092 19.0503 11.6919 18.9331C11.5747 18.8158 11.4158 18.75 11.25 18.75H7.5C7.33424 18.75 7.17527 18.8158 7.05806 18.9331C6.94085 19.0503 6.875 19.2092 6.875 19.375C6.875 19.5408 6.94085 19.6997 7.05806 19.8169C7.17527 19.9342 7.33424 20 7.5 20ZM15 20.625H7.5C7.33424 20.625 7.17527 20.6908 7.05806 20.8081C6.94085 20.9253 6.875 21.0842 6.875 21.25C6.875 21.4158 6.94085 21.5747 7.05806 21.6919C7.17527 21.8092 7.33424 21.875 7.5 21.875H15C15.1658 21.875 15.3247 21.8092 15.4419 21.6919C15.5592 21.5747 15.625 21.4158 15.625 21.25C15.625 21.0842 15.5592 20.9253 15.4419 20.8081C15.3247 20.6908 15.1658 20.625 15 20.625Z" fill="white"/>
</g>
</g>
</svg>
