<svg width="85" height="85" viewBox="0 0 85 85" fill="none" xmlns="http://www.w3.org/2000/svg">
<g id="icon Delivered">
<ellipse id="Ellipse 2" cx="42.4999" cy="42.5" rx="42.1554" ry="42.5" fill="#D9E6F2"/>
<g id="Group 82">
<g id="Group 120">
<g id="Group 117">
<g id="Group">
<path id="Vector" d="M36.3177 19.8312L13.001 29.4496L36.3177 39.0679L59.6344 29.4496L36.3177 19.8312Z" fill="#0155A5"/>
</g>
<g id="Group_2">
<path id="Vector_2" d="M26.8537 23.7554L22.4651 25.5252L45.7818 35.182L50.1322 33.3737L26.8537 23.7554Z" fill="#F7C604"/>
</g>
<g id="Group_3">
<path id="Vector_3" d="M13.001 29.4496V55.9578L36.3177 65.5762V39.068L13.001 29.4496Z" fill="#004588"/>
</g>
<g id="Group_4">
<path id="Vector_4" d="M59.6343 29.4496V55.9578L36.3176 65.5762V39.068L59.6343 29.4496Z" fill="#579BDC"/>
</g>
<g id="Group_5">
<path id="Vector_5" opacity="0.1" d="M59.6343 42.9923C58.9474 42.8384 58.2605 42.7615 57.5354 42.7615C51.8875 42.7615 47.3081 47.3783 47.3081 53.0724C47.3081 55.727 48.3003 58.1509 49.9413 59.9591L59.6343 55.9579V42.9923Z" fill="#0C1E5B"/>
</g>
<g id="Group_6">
<path id="Vector_6" d="M45.7817 35.182V46.3009L50.1322 44.4926V33.3738L45.7817 35.182Z" fill="#F7C604"/>
</g>
<g id="Group_7">
<path id="Vector_7" d="M61.6951 62.6137C67.3435 62.6137 71.9224 57.9974 71.9224 52.3028C71.9224 46.6083 67.3435 41.9919 61.6951 41.9919C56.0467 41.9919 51.4678 46.6083 51.4678 52.3028C51.4678 57.9974 56.0467 62.6137 61.6951 62.6137Z" fill="#FF5B5B"/>
</g>
<g id="Group_8">
<path id="Vector_8" d="M60.6269 56.3041C60.3216 56.3041 60.0544 56.1887 59.8255 55.9578L56.5817 52.6876C56.1238 52.2259 56.1238 51.4949 56.5817 51.0717C57.0397 50.61 57.7647 50.61 58.1845 51.0717L60.6269 53.534L65.2063 48.9172C65.6642 48.4555 66.3893 48.4555 66.809 48.9172C67.267 49.3789 67.267 50.1099 66.809 50.5331L61.4283 55.9578C61.1993 56.1887 60.9322 56.3041 60.6269 56.3041Z" fill="white"/>
</g>
<g id="Group_9">
<path id="Vector_9" d="M20.5568 52.3799L18.0381 47.1475L15.6721 50.2638L16.9696 50.8409V54.2266L19.0685 55.1884V51.7643L20.5568 52.3799Z" fill="#F2F5F3"/>
</g>
</g>
</g>
</g>
</g>
</svg>
