<svg width="86" height="85" viewBox="0 0 86 85" fill="none" xmlns="http://www.w3.org/2000/svg">
<g id="icon Delivered">
<ellipse id="Ellipse 2" cx="42.9992" cy="42.5" rx="42.1554" ry="42.5" fill="#D9E6F2"/>
<g id="Icon_Order">
<g id="freepik--Truck--inject-31">
<path id="Vector" d="M51.1697 55.0662H48.3606C46.8983 55.0662 45.7168 57.1908 45.7168 59.8123C45.7168 62.4337 46.9016 64.5567 48.3606 64.5567H51.1697C52.632 64.5567 53.8135 62.4321 53.8135 59.8123C53.8135 57.1925 52.632 55.0662 51.1697 55.0662Z" fill="#263238"/>
<g id="Clip path group">
<mask id="mask0_721_448" style="mask-type:luminance" maskUnits="userSpaceOnUse" x="45" y="55" width="9" height="10">
<g id="freepik--clip-path--inject-31">
<path id="Vector_2" d="M51.113 55.061H48.304C46.8416 55.061 45.6602 57.1857 45.6602 59.8071C45.6602 62.4286 46.8449 64.5516 48.304 64.5516H51.113C52.5754 64.5516 53.7568 62.4269 53.7568 59.8071C53.7568 57.1873 52.5754 55.061 51.113 55.061Z" fill="white"/>
</g>
</mask>
<g mask="url(#mask0_721_448)">
<g id="Group">
<path id="Vector_3" opacity="0.05" d="M54.4763 55.061H51.6673C50.2049 55.061 49.0234 57.1857 49.0234 59.8071C49.0234 62.4286 50.2082 64.5516 51.6673 64.5516H54.4763C55.9387 64.5516 57.1201 62.4269 57.1201 59.8071C57.1201 57.1873 55.9387 55.061 54.4763 55.061Z" fill="#0155A5"/>
</g>
</g>
</g>
<path id="Vector_4" d="M73.9086 56.0803L24.7188 56.0455V24.5566H73.9086V56.0803Z" fill="#0155A5"/>
<path id="Vector_5" opacity="0.3" d="M73.8717 24.5566H40.5332V56.0786H73.8717V24.5566Z" fill="#263238"/>
<path id="Vector_6" opacity="0.2" d="M40.5701 24.5566H24.7188V56.7013H40.5701V24.5566Z" fill="#0155A5"/>
<path id="Vector_7" opacity="0.1" d="M24.8398 26.022H73.9107" stroke="#0155A5" stroke-width="1.504" stroke-linecap="round" stroke-linejoin="round"/>
<path id="Vector_8" opacity="0.1" d="M24.8398 27.3882H73.9107" stroke="#0155A5" stroke-width="1.504" stroke-linecap="round" stroke-linejoin="round"/>
<path id="Vector_9" opacity="0.1" d="M24.8398 28.7487H73.9107" stroke="#0155A5" stroke-width="1.504" stroke-linecap="round" stroke-linejoin="round"/>
<path id="Vector_10" opacity="0.1" d="M24.8398 30.1073H73.9107" stroke="#0155A5" stroke-width="1.504" stroke-linecap="round" stroke-linejoin="round"/>
<path id="Vector_11" opacity="0.1" d="M24.8398 31.4688H73.9107" stroke="#0155A5" stroke-width="1.504" stroke-linecap="round" stroke-linejoin="round"/>
<path id="Vector_12" opacity="0.1" d="M24.8398 32.8274H73.9107" stroke="#0155A5" stroke-width="1.504" stroke-linecap="round" stroke-linejoin="round"/>
<path id="Vector_13" opacity="0.1" d="M24.8398 34.1869H73.9107" stroke="#0155A5" stroke-width="1.504" stroke-linecap="round" stroke-linejoin="round"/>
<path id="Vector_14" opacity="0.1" d="M24.8398 35.5521H73.9107" stroke="#0155A5" stroke-width="1.504" stroke-linecap="round" stroke-linejoin="round"/>
<path id="Vector_15" opacity="0.1" d="M24.8398 36.9165H73.9107" stroke="#0155A5" stroke-width="1.504" stroke-linecap="round" stroke-linejoin="round"/>
<path id="Vector_16" opacity="0.1" d="M24.8398 38.2817H73.9107" stroke="#0155A5" stroke-width="1.504" stroke-linecap="round" stroke-linejoin="round"/>
<path id="Vector_17" opacity="0.1" d="M24.8398 39.6404H73.9107" stroke="#0155A5" stroke-width="1.504" stroke-linecap="round" stroke-linejoin="round"/>
<path id="Vector_18" opacity="0.1" d="M24.8398 41.0018H73.9107" stroke="#0155A5" stroke-width="1.504" stroke-linecap="round" stroke-linejoin="round"/>
<path id="Vector_19" opacity="0.1" d="M24.8398 42.3605H73.9107" stroke="#0155A5" stroke-width="1.504" stroke-linecap="round" stroke-linejoin="round"/>
<path id="Vector_20" opacity="0.1" d="M24.8398 43.72H73.9107" stroke="#0155A5" stroke-width="1.504" stroke-linecap="round" stroke-linejoin="round"/>
<path id="Vector_21" opacity="0.1" d="M24.8398 45.0834H73.9107" stroke="#0155A5" stroke-width="1.504" stroke-linecap="round" stroke-linejoin="round"/>
<path id="Vector_22" opacity="0.1" d="M24.8398 46.4486H73.9107" stroke="#0155A5" stroke-width="1.504" stroke-linecap="round" stroke-linejoin="round"/>
<path id="Vector_23" opacity="0.1" d="M24.8398 47.812H73.9107" stroke="#0155A5" stroke-width="1.504" stroke-linecap="round" stroke-linejoin="round"/>
<path id="Vector_24" opacity="0.1" d="M24.8398 49.1735H73.9107" stroke="#0155A5" stroke-width="1.504" stroke-linecap="round" stroke-linejoin="round"/>
<path id="Vector_25" opacity="0.1" d="M24.8398 50.5349H73.9107" stroke="#0155A5" stroke-width="1.504" stroke-linecap="round" stroke-linejoin="round"/>
<path id="Vector_26" opacity="0.1" d="M24.8398 51.8936H73.9107" stroke="#0155A5" stroke-width="1.504" stroke-linecap="round" stroke-linejoin="round"/>
<path id="Vector_27" opacity="0.1" d="M24.8398 53.2531H73.9107" stroke="#0155A5" stroke-width="1.504" stroke-linecap="round" stroke-linejoin="round"/>
<path id="Vector_28" opacity="0.1" d="M24.8398 54.6145H73.9107" stroke="#0155A5" stroke-width="1.504" stroke-linecap="round" stroke-linejoin="round"/>
<path id="Vector_29" d="M15.6842 55.6816H13.085C11.73 55.6816 10.6328 57.649 10.6328 60.0767C10.6328 62.5044 11.73 64.47 13.085 64.47H15.6842C17.0391 64.47 18.1363 62.5027 18.1363 60.0767C18.1363 57.6506 17.0391 55.6816 15.6842 55.6816Z" fill="#263238"/>
<path id="Vector_30" opacity="0.05" d="M18.9631 55.6816H16.3623C15.0073 55.6816 13.9102 57.649 13.9102 60.0767C13.9102 62.5044 15.0073 64.47 16.3623 64.47H18.9631C20.3165 64.47 21.4153 62.5027 21.4153 60.0767C21.4153 57.6506 20.3165 55.6816 18.9631 55.6816Z" fill="#0155A5"/>
<path id="Vector_31" d="M14.2603 47.0997H13.0309C12.7897 47.108 12.5914 46.8497 12.5865 46.5218C12.5832 46.4876 12.5832 46.4533 12.5865 46.4191L12.9169 42.6981C12.9582 42.3155 13.1945 42.0357 13.4787 42.0175H14.7197C14.9593 42.0175 15.1576 42.2708 15.1625 42.5987C15.1625 42.6318 15.1625 42.665 15.1625 42.6981L14.832 46.4191C14.7825 46.7967 14.5379 47.0898 14.2603 47.0997Z" fill="#263238"/>
<path id="Vector_32" d="M15.4571 34.8111L13.0859 47.6269L38.9011 57.7616L38.721 32.5043L33.0434 32.3387H17.4912C16.5559 32.3304 15.7314 33.3372 15.4571 34.8111Z" fill="#0155A5"/>
<path id="Vector_33" d="M34.7187 36.8734C33.7553 36.8303 32.8912 37.6219 32.6086 38.8026L30.6555 47.0031H26.8963L26.6914 57.8218H39.0562" fill="#0155A5"/>
<path id="Vector_34" d="M15.8442 46.3068C15.4658 46.3068 15.1602 45.8199 15.1602 45.2205C15.16 45.116 15.1699 45.0117 15.1899 44.9091L16.6093 37.3843C16.7283 36.7599 17.0918 36.3327 17.5032 36.3344H31.0825C31.2296 36.3344 31.3502 36.5231 31.3502 36.7583C31.3505 36.8 31.3467 36.8416 31.3387 36.8825C31.0412 38.4325 30.0746 43.5678 29.7044 45.5318C29.6185 45.9922 29.3508 46.3068 29.0435 46.3068H15.8442Z" fill="#263238"/>
<path id="Vector_35" d="M28.3105 49.6444C28.3103 49.7763 28.3009 49.908 28.2824 50.0385L28.2114 50.5238L28.1701 50.8102L27.866 52.9034L27.3703 56.3065L27.2332 57.2521H8.01758V56.3065L8.0308 52.9034L8.04897 50.8682V50.0402C7.88373 48.9472 8.41085 47.8874 9.2139 47.6671C9.30812 47.6414 9.4054 47.6286 9.50307 47.6291H26.83C27.6479 47.6224 28.3105 48.5299 28.3105 49.6444Z" fill="#0155A5"/>
<path id="Vector_36" d="M38.1373 37.3586V45.425C38.1373 45.9135 37.8878 46.3109 37.5788 46.3126H32.8827C32.5737 46.3126 32.3242 45.9151 32.3242 45.425C32.3241 45.345 32.3308 45.2653 32.344 45.1865L33.7915 36.9396C33.8609 36.5438 34.0923 36.2772 34.35 36.2921L37.5986 36.4709C37.8994 36.4892 38.1373 36.8816 38.1373 37.3586Z" fill="#263238"/>
<path id="Vector_37" opacity="0.1" d="M23.7825 36.3344H21.1882L18.209 46.3068H20.8049L23.7825 36.3344Z" fill="#0155A5"/>
<path id="Vector_38" opacity="0.1" d="M25.7872 36.3344H24.5479L21.5703 46.3068H22.8079L25.7872 36.3344Z" fill="#0155A5"/>
<path id="Vector_39" d="M33.2858 52.9034V56.3065H8.01758L8.0308 52.9034H33.2858Z" fill="black"/>
<path id="Vector_40" d="M29.8158 52.9034H27.4794L23.2773 55.3775V56.3065H33.3354V52.9034H29.8158Z" fill="#0155A5"/>
<path id="Vector_41" d="M12.3733 55.3775V56.3065H8.01758L8.0308 52.9034H8.1729L12.3733 55.3775Z" fill="#0155A5"/>
<path id="Vector_42" opacity="0.3" d="M38.9162 57.8206L38.7245 32.5036L35.2545 32.338C34.3887 32.2949 33.389 33.3035 33.1362 34.4726L30.6213 47.6262H29.6414C28.5409 47.6262 27.7874 48.4294 27.7891 49.2822L27.8039 57.8239H38.9162" fill="#263238"/>
<path id="Vector_43" d="M28.2459 50.6484C28.2456 50.6798 28.2386 50.7108 28.2255 50.7393C28.2124 50.7678 28.1935 50.7933 28.1699 50.814C28.1295 50.8516 28.0763 50.8723 28.0212 50.8719H8.04883V50.4215H28.0262C28.0642 50.4216 28.1016 50.4314 28.1348 50.4499C28.1681 50.4685 28.196 50.4952 28.2162 50.5275C28.2371 50.5643 28.2474 50.6061 28.2459 50.6484Z" fill="#0155A5"/>
<path id="Vector_44" d="M11.5783 50.4235V50.8739H8.04883L8.05048 50.4235H11.5783Z" fill="#263238"/>
<path id="Vector_45" d="M28.3019 50.6484C28.3016 50.6798 28.2946 50.7108 28.2815 50.7393C28.2684 50.7678 28.2495 50.7933 28.2259 50.814C28.1855 50.8516 28.1323 50.8723 28.0772 50.8719H23.2324V50.4215H28.0772C28.1152 50.4216 28.1526 50.4314 28.1859 50.4499C28.2191 50.4685 28.2471 50.4952 28.2672 50.5275C28.2899 50.5637 28.3019 50.6056 28.3019 50.6484Z" fill="#263238"/>
<path id="Vector_46" d="M74.7851 56.8955V56.9849C74.7851 57.2045 74.698 57.4151 74.5431 57.5704C74.3882 57.7257 74.178 57.8129 73.9589 57.8129H8.32619C8.10707 57.8129 7.89693 57.7257 7.74199 57.5704C7.58704 57.4151 7.5 57.2045 7.5 56.9849V56.8955C7.5 56.6759 7.58704 56.4653 7.74199 56.31C7.89693 56.1547 8.10707 56.0675 8.32619 56.0675H73.9589C74.178 56.0675 74.3882 56.1547 74.5431 56.31C74.698 56.4653 74.7851 56.6759 74.7851 56.8955Z" fill="#263238"/>
<path id="Vector_47" d="M22.8681 56.7534H13.0859V57.232H22.8681V56.7534Z" fill="black"/>
<path id="Vector_48" d="M10.4691 56.9886C10.4691 57.0425 10.4532 57.0953 10.4233 57.1402C10.3934 57.1851 10.3509 57.2201 10.3012 57.2409C10.2515 57.2616 10.1967 57.2671 10.1439 57.2567C10.091 57.2463 10.0425 57.2204 10.0043 57.1824C9.96607 57.1443 9.93998 57.0958 9.92927 57.0429C9.91856 56.99 9.92373 56.9351 9.94411 56.8852C9.96449 56.8352 9.99918 56.7924 10.0438 56.7622C10.0884 56.732 10.141 56.7157 10.1948 56.7153C10.2308 56.7151 10.2664 56.722 10.2997 56.7357C10.3329 56.7493 10.3632 56.7694 10.3887 56.7948C10.4142 56.8202 10.4344 56.8504 10.4482 56.8836C10.462 56.9169 10.4691 56.9526 10.4691 56.9886Z" fill="#0155A5"/>
<path id="Vector_49" d="M25.2172 56.9886C25.2172 57.0426 25.2012 57.0954 25.1712 57.1404C25.1413 57.1853 25.0987 57.2203 25.0489 57.241C24.999 57.2617 24.9442 57.2671 24.8913 57.2566C24.8384 57.246 24.7899 57.22 24.7517 57.1818C24.7136 57.1436 24.6876 57.0949 24.6771 57.0419C24.6666 56.9889 24.672 56.9339 24.6926 56.884C24.7133 56.8341 24.7482 56.7914 24.793 56.7614C24.8379 56.7314 24.8906 56.7153 24.9445 56.7153C24.9803 56.7153 25.0158 56.7224 25.0489 56.7361C25.0819 56.7499 25.112 56.77 25.1373 56.7954C25.1626 56.8207 25.1827 56.8509 25.1964 56.884C25.2101 56.9172 25.2172 56.9527 25.2172 56.9886Z" fill="#0155A5"/>
<path id="Vector_50" d="M33.1191 59.6979C33.1191 57.0632 34.3105 54.927 35.7811 54.927H32.9572C31.4882 54.927 30.2969 57.0632 30.2969 59.6979C30.2969 62.3326 31.4882 64.4672 32.9572 64.4672H35.7811C34.3105 64.4722 33.1191 62.3376 33.1191 59.6979Z" fill="black"/>
<path id="Vector_51" opacity="0.7" d="M33.1191 59.6979C33.1191 57.0632 34.3105 54.927 35.7811 54.927H32.9572C31.4882 54.927 30.2969 57.0632 30.2969 59.6979C30.2969 62.3326 31.4882 64.4672 32.9572 64.4672H35.7811C34.3105 64.4722 33.1191 62.3376 33.1191 59.6979Z" fill="#263238"/>
<path id="Vector_52" d="M35.7792 64.4766C37.2494 64.4766 38.4412 62.3406 38.4412 59.7056C38.4412 57.0707 37.2494 54.9347 35.7792 54.9347C34.309 54.9347 33.1172 57.0707 33.1172 59.7056C33.1172 62.3406 34.309 64.4766 35.7792 64.4766Z" fill="#263238"/>
<path id="Vector_53" d="M36.0257 63.4224C37.0679 63.4224 37.9127 61.7572 37.9127 59.703C37.9127 57.6489 37.0679 55.9836 36.0257 55.9836C34.9835 55.9836 34.1387 57.6489 34.1387 59.703C34.1387 61.7572 34.9835 63.4224 36.0257 63.4224Z" fill="#0155A5"/>
<path id="Vector_54" d="M35.8158 62.9271C36.8133 62.9271 37.6219 61.4857 37.6219 59.7078C37.6219 57.9298 36.8133 56.4885 35.8158 56.4885C34.8184 56.4885 34.0098 57.9298 34.0098 59.7078C34.0098 61.4857 34.8184 62.9271 35.8158 62.9271Z" fill="#263238"/>
<path id="Vector_55" d="M35.4573 62.0524C36.1855 62.0524 36.7759 61.0003 36.7759 59.7025C36.7759 58.4047 36.1855 57.3527 35.4573 57.3527C34.729 57.3527 34.1387 58.4047 34.1387 59.7025C34.1387 61.0003 34.729 62.0524 35.4573 62.0524Z" fill="black"/>
<path id="Vector_56" opacity="0.5" d="M74.7541 56.8955V56.9849C74.7541 57.2045 74.667 57.4151 74.5121 57.5704C74.3572 57.7257 74.147 57.8129 73.9279 57.8129H40.5332V56.0675H73.9279C74.147 56.0675 74.3572 56.1547 74.5121 56.31C74.667 56.4653 74.7541 56.6759 74.7541 56.8955Z" fill="black"/>
<path id="Vector_57" d="M64.4235 59.6979C64.4235 57.0632 65.6149 54.927 67.0839 54.927H64.2616C62.791 54.927 61.5996 57.0632 61.5996 59.6979C61.5996 62.3326 62.791 64.4672 64.2616 64.4672H67.0806C65.6149 64.4722 64.4235 62.3376 64.4235 59.6979Z" fill="black"/>
<path id="Vector_58" opacity="0.7" d="M64.4235 59.6979C64.4235 57.0632 65.6149 54.927 67.0839 54.927H64.2616C62.791 54.927 61.5996 57.0632 61.5996 59.6979C61.5996 62.3326 62.791 64.4672 64.2616 64.4672H67.0806C65.6149 64.4722 64.4235 62.3376 64.4235 59.6979Z" fill="#263238"/>
<path id="Vector_59" d="M67.0897 64.4766C68.5599 64.4766 69.7517 62.3406 69.7517 59.7056C69.7517 57.0707 68.5599 54.9347 67.0897 54.9347C65.6195 54.9347 64.4277 57.0707 64.4277 59.7056C64.4277 62.3406 65.6195 64.4766 67.0897 64.4766Z" fill="#263238"/>
<path id="Vector_60" d="M67.3128 63.4224C68.355 63.4224 69.1998 61.7572 69.1998 59.703C69.1998 57.6489 68.355 55.9836 67.3128 55.9836C66.2706 55.9836 65.4258 57.6489 65.4258 59.703C65.4258 61.7572 66.2706 63.4224 67.3128 63.4224Z" fill="#0155A5"/>
<path id="Vector_61" d="M67.1029 62.9271C68.1004 62.9271 68.909 61.4857 68.909 59.7078C68.909 57.9298 68.1004 56.4885 67.1029 56.4885C66.1055 56.4885 65.2969 57.9298 65.2969 59.7078C65.2969 61.4857 66.1055 62.9271 67.1029 62.9271Z" fill="#263238"/>
<path id="Vector_62" d="M66.7444 62.0524C67.4726 62.0524 68.063 61.0003 68.063 59.7025C68.063 58.4047 67.4726 57.3527 66.7444 57.3527C66.0161 57.3527 65.4258 58.4047 65.4258 59.7025C65.4258 61.0003 66.0161 62.0524 66.7444 62.0524Z" fill="black"/>
</g>
</g>
</g>
</svg>
