<svg width="162" height="148" viewBox="0 0 162 148" fill="none" xmlns="http://www.w3.org/2000/svg">
<g id="Frame 1171275561">
<g clip-path="url(#clip0_437_2589)">
<path id="Vector" d="M122.239 97.7568C107.962 93.5481 95.9765 90.3438 95.9765 90.3438H81.3173H66.2283C66.2283 90.3438 54.625 93.5481 40.3955 97.7568C20.245 103.735 7.5435 111.913 0.90625 147.544H81.2695H161.633C155.043 111.913 142.39 103.735 122.239 97.7568Z" fill="#E43E71"/>
<path id="Vector_2" d="M81.0777 102.109C72.626 102.109 65.75 95.2217 65.75 86.7565V71.4043H96.4055V86.7565C96.4055 95.2217 89.5772 102.109 81.0777 102.109Z" fill="url(#paint0_linear_437_2589)"/>
<path id="Vector_3" d="M52.7188 58.3961C52.7188 58.3961 53.8648 65.5222 60.0245 71.4048C66.1365 77.2874 60.0245 61.8396 60.0245 61.8396L57.7325 57.6309L52.7188 58.3961Z" fill="#46345E"/>
<path id="Vector_4" d="M56.1496 30.9902C49.3691 30.9902 46.0266 39.8859 56.1496 61.3121L63.5986 67.2425L77.2551 36.8728L56.1496 30.9902Z" fill="#46345E"/>
<path id="Vector_5" d="M109.446 58.7779C109.446 58.7779 108.3 65.8083 102.283 71.5953C96.2669 77.3822 102.283 62.1257 102.283 62.1257L104.528 57.9648L109.446 58.7779Z" fill="#46345E"/>
<path id="Vector_6" d="M106.387 30.9902C113.167 30.9902 116.51 39.8859 106.387 61.3121L98.9378 67.2425L85.2812 36.8728L106.387 30.9902Z" fill="#46345E"/>
<path id="Vector_7" d="M96.4055 75.7564V84.4607C96.4055 85.8955 96.501 87.0434 96.31 88.4781C96.2622 88.4781 95.6893 88.6694 95.6415 88.6694C77.974 91.4912 70.6205 85.8477 65.75 79.3912L70.6205 74.9434L96.4055 75.7564Z" fill="#FA7782"/>
<path id="Vector_8" d="M103.712 20.2305H58.4453V62.8914C58.4453 75.2784 68.4728 85.3219 80.8401 85.3219H81.3653C93.7326 85.3219 103.76 75.2784 103.76 62.8914V20.2305H103.712Z" fill="url(#paint1_linear_437_2589)"/>
<path id="Vector_9" d="M58.4918 55.5273C55.961 51.8447 54.6718 49.0703 51.0428 50.2659C47.2228 51.5094 47.748 58.5881 50.1833 61.0751C53.4303 64.4229 58.4918 62.2225 58.4918 62.2225" fill="url(#paint2_linear_437_2589)"/>
<path id="Vector_10" d="M103.711 55.5273C106.242 51.8447 107.483 49.0703 111.16 50.2659C114.98 51.5094 114.455 58.5881 112.019 61.0751C108.772 64.4229 103.711 62.2225 103.711 62.2225" fill="url(#paint3_linear_437_2589)"/>
<path id="Vector_11" d="M81.2683 21.3789C55.7698 21.3789 50.8516 47.4441 50.8516 47.4441C60.3061 29.7485 80.9818 31.0876 81.0773 31.1354H81.2206C81.3161 31.1354 101.992 29.605 111.59 47.4441C111.637 47.4441 106.767 21.3789 81.2683 21.3789Z" fill="#CC0A31"/>
<path id="Vector_12" d="M112.977 22.813C111.496 12.0522 95.1658 0 81.2706 0C67.3753 0 51.0448 12.0522 49.5646 22.813C47.9411 34.387 50.9016 47.4435 50.9016 47.4435C50.9016 47.4435 55.7721 21.3783 81.3183 21.3783C106.817 21.3783 111.735 47.4435 111.735 47.4435C111.735 47.4435 114.6 34.387 112.977 22.813Z" fill="url(#paint4_linear_437_2589)"/>
</g>
</g>
<defs>
<linearGradient id="paint0_linear_437_2589" x1="65.7786" y1="86.7483" x2="96.4146" y2="86.7483" gradientUnits="userSpaceOnUse">
<stop stop-color="#FDD7DB"/>
<stop offset="1" stop-color="#FBADAF"/>
</linearGradient>
<linearGradient id="paint1_linear_437_2589" x1="58.4763" y1="52.7375" x2="103.724" y2="52.7375" gradientUnits="userSpaceOnUse">
<stop stop-color="#FDD7DB"/>
<stop offset="1" stop-color="#FBADAF"/>
</linearGradient>
<linearGradient id="paint2_linear_437_2589" x1="48.2332" y1="56.4915" x2="58.4751" y2="56.4915" gradientUnits="userSpaceOnUse">
<stop stop-color="#FDD7DB"/>
<stop offset="1" stop-color="#FBADAF"/>
</linearGradient>
<linearGradient id="paint3_linear_437_2589" x1="114.827" y1="56.4915" x2="103.913" y2="56.4915" gradientUnits="userSpaceOnUse">
<stop stop-color="#FDD7DB"/>
<stop offset="1" stop-color="#FBADAF"/>
</linearGradient>
<linearGradient id="paint4_linear_437_2589" x1="49.0608" y1="23.7213" x2="113.466" y2="23.7213" gradientUnits="userSpaceOnUse">
<stop stop-color="#FF5B96"/>
<stop offset="1" stop-color="#DA3362"/>
</linearGradient>
<clipPath id="clip0_437_2589">
<rect x="0.90625" width="160.727" height="147.544" rx="73.7719" fill="white"/>
</clipPath>
</defs>
</svg>
