<svg width="85" height="85" viewBox="0 0 85 85" fill="none" xmlns="http://www.w3.org/2000/svg">
<g id="Icon_Order">
<ellipse id="Ellipse 2" cx="42.4999" cy="42.5" rx="42.1554" ry="42.5" fill="#D9E6F2"/>
<g id="Group 121">
<g id="Group 118">
<g id="Group">
<path id="Vector" d="M18.9963 64.2747C22.1632 64.2747 24.7508 61.6627 24.7508 58.466V21.041H58.3506V58.466C58.3506 61.6627 55.763 64.2747 52.5961 64.2747" fill="#0155A5"/>
</g>
<g id="Group_2">
<path id="Vector_2" d="M46.8417 58.4659V54.0607H13.2419V58.4659C13.2419 61.6626 15.8295 64.2746 18.9964 64.2746H52.5962C49.4293 64.2746 46.8417 61.6626 46.8417 58.4659Z" fill="#004588"/>
</g>
<g id="Group_3">
<g id="Group_4">
<path id="Vector_3" d="M35.0625 28.4868H30.7756V30.3581H35.0625V28.4868Z" fill="white"/>
</g>
</g>
<g id="Group_5">
<g id="Group_6">
<path id="Vector_4" d="M51.5534 28.4868H38.3838V30.3581H51.5534V28.4868Z" fill="#F7C604"/>
</g>
</g>
<g id="Group_7">
<g id="Group_8">
<path id="Vector_5" d="M35.0625 35.1143H30.7756V36.9855H35.0625V35.1143Z" fill="white"/>
</g>
</g>
<g id="Group_9">
<g id="Group_10">
<path id="Vector_6" d="M51.5534 35.1143H38.3838V36.9855H51.5534V35.1143Z" fill="#F7C604"/>
</g>
</g>
<g id="Group_11">
<g id="Group_12">
<path id="Vector_7" d="M35.0625 41.7417H30.7756V43.6129H35.0625V41.7417Z" fill="white"/>
</g>
</g>
<g id="Group_13">
<g id="Group_14">
<path id="Vector_8" d="M51.5534 41.7417H38.3838V43.6129H51.5534V41.7417Z" fill="#F7C604"/>
</g>
</g>
<g id="Group_15">
<g id="Group_16">
<path id="Vector_9" d="M35.0625 48.3691H30.7756V50.2404H35.0625V48.3691Z" fill="white"/>
</g>
</g>
<g id="Group_17">
<g id="Group_18">
<path id="Vector_10" d="M51.5534 48.3691H38.3838V50.2404H51.5534V48.3691Z" fill="#F7C604"/>
</g>
</g>
<g id="Group_19">
<path id="Vector_11" opacity="0.1" d="M58.3505 48.681V26.4209C57.8871 26.3429 57.385 26.304 56.8829 26.304C50.7423 26.304 45.7603 31.3329 45.7603 37.5315C45.7603 43.73 50.7423 48.7589 56.8829 48.7589C57.385 48.7979 57.8871 48.759 58.3505 48.681Z" fill="#0C1E5B"/>
</g>
<g id="Group_20">
<path id="Vector_12" d="M60.7844 46.537C66.9274 46.537 71.9072 41.5102 71.9072 35.3094C71.9072 29.1086 66.9274 24.0818 60.7844 24.0818C54.6415 24.0818 49.6616 29.1086 49.6616 35.3094C49.6616 41.5102 54.6415 46.537 60.7844 46.537Z" fill="#FF5B5B"/>
</g>
<g id="Group_21">
<path id="Vector_13" d="M62.7535 36.0888V29.1106H58.8142V36.0888H56.188L60.7838 41.5076L65.3796 36.0888H62.7535Z" fill="white"/>
</g>
</g>
</g>
</g>
</svg>
