<svg width="86" height="85" viewBox="0 0 86 85" fill="none" xmlns="http://www.w3.org/2000/svg">
<g id="Group 148">
<g id="Icon_Order">
<ellipse id="Ellipse 2" cx="42.9999" cy="42.5" rx="42.1554" ry="42.5" fill="#D9E6F2"/>
<g id="Group 84">
<g id="Group 122">
<g id="Group 119">
<g id="Group">
<path id="Vector" d="M42.5577 23.9521C41.964 23.9521 41.4975 23.4818 41.4975 22.8832V20.1896C41.4975 17.2822 39.165 14.9306 36.3236 14.9306C34.9241 14.9306 33.6518 15.4865 32.634 16.4698C31.6162 17.4532 31.1073 18.7786 31.1073 20.1896V22.8832C31.1073 23.4818 30.6408 23.9521 30.047 23.9521C29.4533 23.9521 28.9868 23.4818 28.9868 22.8832V20.1896C28.9868 18.2228 29.7502 16.3843 31.1073 14.9734C32.5068 13.5624 34.3303 12.7928 36.2812 12.7928C40.31 12.7928 43.5755 16.085 43.5755 20.1468V22.8404C43.6179 23.4818 43.1514 23.9521 42.5577 23.9521Z" fill="#FFD497"/>
</g>
<g id="Group_2">
<path id="Vector_2" d="M59.2244 59.9952H28.3082L23.1768 20.0614H57.0616L59.2244 59.9952Z" fill="#0155A5"/>
</g>
<g id="Group_3">
<path id="Vector_3" d="M28.3082 59.9952L20.9715 58.7125L13.5923 59.9952L15.7976 20.0614H26.1029L28.3082 59.9952Z" fill="#004588"/>
</g>
<g id="Group_4">
<path id="Vector_4" d="M41.7519 33.8286C37.723 33.8286 34.4575 30.5365 34.4575 26.4747V23.7811C34.4575 23.1825 34.924 22.7122 35.5177 22.7122C36.1115 22.7122 36.578 23.1825 36.578 23.7811V26.4747C36.578 29.3821 38.9105 31.6909 41.7519 31.6909C44.5933 31.6909 46.9682 29.3393 46.9682 26.4319V23.7383C46.9682 23.1397 47.4347 22.6694 48.0284 22.6694C48.6221 22.6694 49.0886 23.1397 49.0886 23.7383V26.4319C49.0886 30.5365 45.8231 33.8286 41.7519 33.8286Z" fill="#FFD497"/>
</g>
<g id="Group_5">
<path id="Vector_5" opacity="0.1" d="M43.6606 54.5224C43.6606 56.4892 44.1695 58.3704 45.0601 59.9951H59.2672L58.3766 43.5769C57.3163 43.2349 56.2137 43.0639 55.0687 43.0639C48.7497 43.0639 43.6606 48.1946 43.6606 54.5224Z" fill="#0C1E5B"/>
</g>
<g id="Group_6">
<path id="Vector_6" d="M60.9633 65.9809C67.2403 65.9809 72.3289 60.8508 72.3289 54.5224C72.3289 48.194 67.2403 43.0639 60.9633 43.0639C54.6862 43.0639 49.5977 48.194 49.5977 54.5224C49.5977 60.8508 54.6862 65.9809 60.9633 65.9809Z" fill="#FF6966"/>
</g>
<g id="Group_7">
<path id="Vector_7" d="M59.776 58.9691C59.4367 58.9691 59.1398 58.8409 58.8854 58.5843L55.2806 54.9501C54.7717 54.437 54.7717 53.6247 55.2806 53.1544C55.7895 52.6413 56.5953 52.6413 57.0618 53.1544L59.776 55.8907L64.8651 50.76C65.374 50.247 66.1797 50.247 66.6462 50.76C67.1551 51.2731 67.1551 52.0855 66.6462 52.5558L60.6666 58.5843C60.4121 58.8409 60.0728 58.9691 59.776 58.9691Z" fill="white"/>
</g>
</g>
</g>
</g>
</g>
</g>
</svg>
