<svg width="86" height="85" viewBox="0 0 86 85" fill="none" xmlns="http://www.w3.org/2000/svg">
<g id="Icon_Order">
<ellipse id="Ellipse 2" cx="42.9999" cy="42.5" rx="42.1554" ry="42.5" fill="#D9E6F2"/>
<g id="Group 121">
<g id="Group 118">
<g id="Group">
<path id="Vector" d="M19.4963 64.2747C22.6632 64.2747 25.2508 61.6627 25.2508 58.466V21.041H58.8506V58.466C58.8506 61.6627 56.263 64.2747 53.0961 64.2747" fill="#0155A5"/>
</g>
<g id="Group_2">
<path id="Vector_2" d="M47.3417 58.4659V54.0607H13.7419V58.4659C13.7419 61.6626 16.3295 64.2746 19.4964 64.2746H53.0962C49.9293 64.2746 47.3417 61.6626 47.3417 58.4659Z" fill="#004588"/>
</g>
<g id="Group_3">
<g id="Group_4">
<path id="Vector_3" d="M35.5625 28.4868H31.2756V30.3581H35.5625V28.4868Z" fill="#F7C604"/>
</g>
</g>
<g id="Group_5">
<g id="Group_6">
<path id="Vector_4" d="M52.0534 28.4868H38.8838V30.3581H52.0534V28.4868Z" fill="#F3F2F7"/>
</g>
</g>
<g id="Group_7">
<g id="Group_8">
<path id="Vector_5" d="M35.5625 35.1142H31.2756V36.9854H35.5625V35.1142Z" fill="#F7C604"/>
</g>
</g>
<g id="Group_9">
<g id="Group_10">
<path id="Vector_6" d="M52.0534 35.1142H38.8838V36.9854H52.0534V35.1142Z" fill="#F3F2F7"/>
</g>
</g>
<g id="Group_11">
<g id="Group_12">
<path id="Vector_7" d="M35.5625 41.7417H31.2756V43.6129H35.5625V41.7417Z" fill="#F7C604"/>
</g>
</g>
<g id="Group_13">
<g id="Group_14">
<path id="Vector_8" d="M52.0534 41.7417H38.8838V43.6129H52.0534V41.7417Z" fill="#F3F2F7"/>
</g>
</g>
<g id="Group_15">
<g id="Group_16">
<path id="Vector_9" d="M35.5625 48.369H31.2756V50.2403H35.5625V48.369Z" fill="#F7C604"/>
</g>
</g>
<g id="Group_17">
<g id="Group_18">
<path id="Vector_10" d="M52.0534 48.369H38.8838V50.2403H52.0534V48.369Z" fill="#F3F2F7"/>
</g>
</g>
<g id="Group_19">
<path id="Vector_11" opacity="0.1" d="M58.8505 48.681V26.4209C58.3871 26.3429 57.885 26.304 57.3829 26.304C51.2423 26.304 46.2603 31.3329 46.2603 37.5315C46.2603 43.73 51.2423 48.7589 57.3829 48.7589C57.885 48.7979 58.3871 48.759 58.8505 48.681Z" fill="#0C1E5B"/>
</g>
<g id="Group_20">
<path id="Vector_12" d="M61.2844 46.5371C67.4274 46.5371 72.4072 41.5103 72.4072 35.3094C72.4072 29.1086 67.4274 24.0818 61.2844 24.0818C55.1415 24.0818 50.1616 29.1086 50.1616 35.3094C50.1616 41.5103 55.1415 46.5371 61.2844 46.5371Z" fill="#FF5B5B"/>
</g>
<g id="Vector_13">
<path d="M65.6509 30.7308L56.5713 39.8846M56.5713 30.7308L65.6509 39.8846" stroke="white" stroke-width="4"/>
<path d="M65.6509 30.7308L56.5713 39.8846M56.5713 30.7308L65.6509 39.8846" stroke="white" stroke-width="4"/>
</g>
</g>
</g>
</g>
</svg>
