<svg width="246" height="146" viewBox="0 0 246 146" fill="none" xmlns="http://www.w3.org/2000/svg">
<g id="Icon_Order">
<g id="freepik--Truck--inject-31">
<path id="Vector" d="M159.176 111.252H148.932C143.599 111.252 139.291 119 139.291 128.56C139.291 138.119 143.612 145.861 148.932 145.861H159.176C164.509 145.861 168.817 138.113 168.817 128.56C168.817 119.006 164.509 111.252 159.176 111.252Z" fill="#263238"/>
<g id="Clip path group">
<mask id="mask0_437_2511" style="mask-type:luminance" maskUnits="userSpaceOnUse" x="139" y="111" width="30" height="35">
<g id="freepik--clip-path--inject-31">
<path id="Vector_2" d="M159.168 111.251H148.924C143.592 111.251 139.283 118.999 139.283 128.559C139.283 138.118 143.604 145.86 148.924 145.86H159.168C164.501 145.86 168.81 138.112 168.81 128.559C168.81 119.005 164.501 111.251 159.168 111.251Z" fill="white"/>
</g>
</mask>
<g mask="url(#mask0_437_2511)">
<g id="Group">
<path id="Vector_3" opacity="0.05" d="M171.233 111.251H160.989C155.656 111.251 151.348 118.999 151.348 128.559C151.348 138.118 155.668 145.86 160.989 145.86H171.233C176.566 145.86 180.874 138.112 180.874 128.559C180.874 119.005 176.566 111.251 171.233 111.251Z" fill="white"/>
</g>
</g>
</g>
<path id="Vector_4" d="M242.154 114.958L62.7715 114.832V0H242.154V114.958Z" fill="#0155A5"/>
<path id="Vector_5" opacity="0.3" d="M242.153 0H120.576V114.952H242.153V0Z" fill="#263238"/>
<path id="Vector_6" opacity="0.2" d="M120.577 0H62.7715V117.223H120.577V0Z" fill="white"/>
<path id="Vector_7" opacity="0.1" d="M63.2012 5.3396H242.15" stroke="white" stroke-width="1.504" stroke-linecap="round" stroke-linejoin="round"/>
<path id="Vector_8" opacity="0.1" d="M63.2012 10.3081H242.15" stroke="white" stroke-width="1.504" stroke-linecap="round" stroke-linejoin="round"/>
<path id="Vector_9" opacity="0.1" d="M63.2012 15.2703H242.15" stroke="white" stroke-width="1.504" stroke-linecap="round" stroke-linejoin="round"/>
<path id="Vector_10" opacity="0.1" d="M63.2012 20.2372H242.15" stroke="white" stroke-width="1.504" stroke-linecap="round" stroke-linejoin="round"/>
<path id="Vector_11" opacity="0.1" d="M63.2012 25.2075H242.15" stroke="white" stroke-width="1.504" stroke-linecap="round" stroke-linejoin="round"/>
<path id="Vector_12" opacity="0.1" d="M63.2012 30.1711H242.15" stroke="white" stroke-width="1.504" stroke-linecap="round" stroke-linejoin="round"/>
<path id="Vector_13" opacity="0.1" d="M63.2012 35.1349H242.15" stroke="white" stroke-width="1.504" stroke-linecap="round" stroke-linejoin="round"/>
<path id="Vector_14" opacity="0.1" d="M63.2012 40.1003H242.15" stroke="white" stroke-width="1.504" stroke-linecap="round" stroke-linejoin="round"/>
<path id="Vector_15" opacity="0.1" d="M63.2012 45.0688H242.15" stroke="white" stroke-width="1.504" stroke-linecap="round" stroke-linejoin="round"/>
<path id="Vector_16" opacity="0.1" d="M63.2012 50.031H242.15" stroke="white" stroke-width="1.504" stroke-linecap="round" stroke-linejoin="round"/>
<path id="Vector_17" opacity="0.1" d="M63.2012 54.9979H242.15" stroke="white" stroke-width="1.504" stroke-linecap="round" stroke-linejoin="round"/>
<path id="Vector_18" opacity="0.1" d="M63.2012 59.9666H242.15" stroke="white" stroke-width="1.504" stroke-linecap="round" stroke-linejoin="round"/>
<path id="Vector_19" opacity="0.1" d="M63.2012 64.9336H242.15" stroke="white" stroke-width="1.504" stroke-linecap="round" stroke-linejoin="round"/>
<path id="Vector_20" opacity="0.1" d="M63.2012 69.8956H242.15" stroke="white" stroke-width="1.504" stroke-linecap="round" stroke-linejoin="round"/>
<path id="Vector_21" opacity="0.1" d="M63.2012 74.8578H242.15" stroke="white" stroke-width="1.504" stroke-linecap="round" stroke-linejoin="round"/>
<path id="Vector_22" opacity="0.1" d="M63.2012 79.8296H242.15" stroke="white" stroke-width="1.504" stroke-linecap="round" stroke-linejoin="round"/>
<path id="Vector_23" opacity="0.1" d="M63.2012 84.7933H242.15" stroke="white" stroke-width="1.504" stroke-linecap="round" stroke-linejoin="round"/>
<path id="Vector_24" opacity="0.1" d="M63.2012 89.7571H242.15" stroke="white" stroke-width="1.504" stroke-linecap="round" stroke-linejoin="round"/>
<path id="Vector_25" opacity="0.1" d="M63.2012 94.7273H242.15" stroke="white" stroke-width="1.504" stroke-linecap="round" stroke-linejoin="round"/>
<path id="Vector_26" opacity="0.1" d="M63.2012 99.691H242.15" stroke="white" stroke-width="1.504" stroke-linecap="round" stroke-linejoin="round"/>
<path id="Vector_27" opacity="0.1" d="M63.2012 104.656H242.15" stroke="white" stroke-width="1.504" stroke-linecap="round" stroke-linejoin="round"/>
<path id="Vector_28" opacity="0.1" d="M63.2012 109.625H242.15" stroke="white" stroke-width="1.504" stroke-linecap="round" stroke-linejoin="round"/>
<path id="Vector_29" d="M29.8428 113.508H20.3642C15.423 113.508 11.4219 120.683 11.4219 129.536C11.4219 138.389 15.423 145.557 20.3642 145.557H29.8428C34.7839 145.557 38.7851 138.383 38.7851 129.536C38.7851 120.689 34.7839 113.508 29.8428 113.508Z" fill="#263238"/>
<path id="Vector_30" opacity="0.05" d="M41.9132 113.508H32.4286C27.4875 113.508 23.4863 120.683 23.4863 129.536C23.4863 138.389 27.4875 145.557 32.4286 145.557H41.9132C46.8484 145.557 50.8555 138.383 50.8555 129.536C50.8555 120.689 46.8484 113.508 41.9132 113.508Z" fill="white"/>
<path id="Vector_31" d="M24.5799 82.208H20.0967C19.217 82.2382 18.4939 81.2961 18.4758 80.1004C18.4638 79.9759 18.4638 79.8505 18.4758 79.726L19.681 66.1563C19.8316 64.7613 20.6933 63.7407 21.7297 63.6743H26.2551C27.1289 63.6743 27.852 64.5983 27.87 65.794C27.87 65.9148 27.87 66.0356 27.87 66.1563L26.6649 79.726C26.4841 81.1029 25.5923 82.1717 24.5799 82.208Z" fill="#263238"/>
<path id="Vector_32" d="M29.0552 37.3867L20.4082 84.1225L114.549 121.081L113.893 28.9743L93.1879 28.3704H36.473C33.0624 28.3402 30.0555 32.0119 29.0552 37.3867Z" fill="#0155A5"/>
<path id="Vector_33" d="M99.1034 44.9042C95.5904 44.7472 92.4389 47.6338 91.4085 51.9396L84.286 81.8447H70.5773L69.8301 121.297H114.921" fill="#0155A5"/>
<path id="Vector_34" d="M30.4224 79.3338C29.0425 79.3338 27.9277 77.5583 27.9277 75.3722C27.9271 74.9911 27.9634 74.6109 28.0362 74.2369L33.2124 46.7957C33.6462 44.519 34.9719 42.9609 36.4723 42.9669H85.9924C86.5287 42.9669 86.9686 43.6554 86.9686 44.5129C86.9697 44.6649 86.9556 44.8167 86.9264 44.9658C85.8417 50.6183 82.3167 69.3453 80.9669 76.5075C80.6535 78.1864 79.6773 79.3338 78.5565 79.3338H30.4224Z" fill="#263238"/>
<path id="Vector_35" d="M75.9834 91.497C75.9824 91.9779 75.9482 92.4582 75.8809 92.9343L75.6218 94.7037L75.4712 95.7485L74.3624 103.382L72.5547 115.792L72.0546 119.24H1.98047V115.792L2.02867 103.382L2.09496 95.9599V92.9404C1.49238 88.9546 3.41461 85.0897 6.34315 84.2865C6.68675 84.1925 7.0415 84.1458 7.39767 84.1476H70.5843C73.567 84.1234 75.9834 87.4328 75.9834 91.497Z" fill="#0155A5"/>
<path id="Vector_36" d="M111.593 46.6808V76.0968C111.593 77.8783 110.683 79.3277 109.557 79.3337H92.4313C91.3044 79.3337 90.3945 77.8843 90.3945 76.0968C90.3942 75.8054 90.4184 75.5145 90.4668 75.2272L95.7454 45.153C95.9985 43.7096 96.8421 42.7374 97.7822 42.7917L109.629 43.4439C110.726 43.5104 111.593 44.9416 111.593 46.6808Z" fill="#263238"/>
<path id="Vector_37" opacity="0.1" d="M59.2996 42.9669H49.8391L38.9746 79.3338H48.4411L59.2996 42.9669Z" fill="white"/>
<path id="Vector_38" opacity="0.1" d="M66.6572 42.9669H62.1378L51.2793 79.3338H55.7926L66.6572 42.9669Z" fill="white"/>
<path id="Vector_39" d="M94.1329 103.381V115.791H1.98633L2.03453 103.381H94.1329Z" fill="black"/>
<path id="Vector_40" d="M81.2914 103.381H72.7709L57.4473 112.403V115.791H94.1263V103.381H81.2914Z" fill="white"/>
<path id="Vector_41" d="M17.8703 112.403V115.791H1.98633L2.03453 103.381H2.55275L17.8703 112.403Z" fill="white"/>
<path id="Vector_42" opacity="0.3" d="M114.603 121.298L113.904 28.9741L101.25 28.3702C98.0925 28.2132 94.4469 31.891 93.5249 36.1545L84.3536 84.1222H80.7803C76.7671 84.1222 74.0194 87.0511 74.0254 90.1612L74.0796 121.31H114.603" fill="#263238"/>
<path id="Vector_43" d="M75.7452 95.1381C75.7439 95.2527 75.7186 95.3656 75.6708 95.4697C75.6231 95.5737 75.554 95.6665 75.468 95.742C75.3207 95.8791 75.1267 95.9547 74.9257 95.9534H2.0918V94.3108H74.9438C75.0825 94.3112 75.2188 94.3468 75.34 94.4144C75.4612 94.482 75.5633 94.5794 75.6367 94.6973C75.7129 94.8314 75.7505 94.984 75.7452 95.1381Z" fill="white"/>
<path id="Vector_44" d="M14.9356 94.3174V95.96H2.06445L2.07048 94.3174H14.9356Z" fill="#263238"/>
<path id="Vector_45" d="M75.7391 95.1381C75.7378 95.2527 75.7125 95.3656 75.6647 95.4697C75.617 95.5737 75.5479 95.6665 75.4619 95.742C75.3146 95.8791 75.1206 95.9547 74.9196 95.9534H57.252V94.3108H74.9196C75.0583 94.3112 75.1946 94.3468 75.3158 94.4144C75.437 94.482 75.5391 94.5794 75.6126 94.6973C75.6951 94.8295 75.7389 94.9822 75.7391 95.1381Z" fill="#263238"/>
<path id="Vector_46" d="M245.371 117.942V118.268C245.371 119.069 245.053 119.837 244.488 120.403C243.923 120.969 243.157 121.287 242.358 121.287H3.0129C2.21383 121.287 1.44749 120.969 0.882459 120.403C0.31743 119.837 0 119.069 0 118.268V117.942C0 117.141 0.31743 116.373 0.882459 115.807C1.44749 115.24 2.21383 114.922 3.0129 114.922H242.358C243.157 114.922 243.923 115.24 244.488 115.807C245.053 116.373 245.371 117.141 245.371 117.942Z" fill="#263238"/>
<path id="Vector_47" d="M56.081 117.402H20.4082V119.147H56.081V117.402Z" fill="black"/>
<path id="Vector_48" d="M10.9241 118.273C10.9241 118.47 10.8659 118.662 10.7569 118.826C10.6479 118.99 10.493 119.117 10.3117 119.193C10.1303 119.268 9.93074 119.288 9.73804 119.251C9.54534 119.213 9.36817 119.118 9.22889 118.98C9.0896 118.841 8.99443 118.664 8.95539 118.471C8.91635 118.278 8.93518 118.078 9.00951 117.896C9.08384 117.713 9.21034 117.557 9.37305 117.447C9.53576 117.337 9.72739 117.278 9.92378 117.276C10.0549 117.276 10.1848 117.301 10.3061 117.35C10.4274 117.4 10.5378 117.473 10.6307 117.566C10.7237 117.659 10.7975 117.769 10.8478 117.89C10.8981 118.011 10.9241 118.141 10.9241 118.273Z" fill="white"/>
<path id="Vector_49" d="M64.6057 118.273C64.6057 118.47 64.5474 118.663 64.4381 118.826C64.3289 118.99 64.1736 119.118 63.9919 119.193C63.8103 119.269 63.6103 119.289 63.4175 119.25C63.2246 119.212 63.0474 119.117 62.9084 118.977C62.7694 118.838 62.6747 118.66 62.6363 118.467C62.5979 118.274 62.6176 118.074 62.6929 117.891C62.7681 117.709 62.8956 117.554 63.0591 117.444C63.2226 117.335 63.4148 117.276 63.6115 117.276C63.742 117.276 63.8713 117.302 63.9919 117.352C64.1126 117.402 64.2222 117.476 64.3145 117.568C64.4068 117.661 64.4801 117.771 64.53 117.891C64.58 118.012 64.6057 118.142 64.6057 118.273Z" fill="white"/>
<path id="Vector_50" d="M93.4347 128.165C93.4347 118.557 97.7793 110.767 103.142 110.767H92.8441C87.4872 110.767 83.1426 118.557 83.1426 128.165C83.1426 137.773 87.4872 145.558 92.8441 145.558H103.142C97.7793 145.576 93.4347 137.792 93.4347 128.165Z" fill="black"/>
<path id="Vector_51" opacity="0.7" d="M93.4347 128.165C93.4347 118.557 97.7793 110.767 103.142 110.767H92.8441C87.4872 110.767 83.1426 118.557 83.1426 128.165C83.1426 137.773 87.4872 145.558 92.8441 145.558H103.142C97.7793 145.576 93.4347 137.792 93.4347 128.165Z" fill="#263238"/>
<path id="Vector_52" d="M103.135 145.585C108.497 145.585 112.843 137.795 112.843 128.187C112.843 118.578 108.497 110.788 103.135 110.788C97.774 110.788 93.4277 118.578 93.4277 128.187C93.4277 137.795 97.774 145.585 103.135 145.585Z" fill="#263238"/>
<path id="Vector_53" d="M103.926 141.747C107.727 141.747 110.808 135.674 110.808 128.183C110.808 120.692 107.727 114.62 103.926 114.62C100.126 114.62 97.0449 120.692 97.0449 128.183C97.0449 135.674 100.126 141.747 103.926 141.747Z" fill="white"/>
<path id="Vector_54" d="M103.299 139.921C106.937 139.921 109.885 134.665 109.885 128.182C109.885 121.698 106.937 116.442 103.299 116.442C99.6616 116.442 96.7129 121.698 96.7129 128.182C96.7129 134.665 99.6616 139.921 103.299 139.921Z" fill="#263238"/>
<path id="Vector_55" d="M101.854 136.753C104.509 136.753 106.662 132.916 106.662 128.184C106.662 123.451 104.509 119.614 101.854 119.614C99.1978 119.614 97.0449 123.451 97.0449 128.184C97.0449 132.916 99.1978 136.753 101.854 136.753Z" fill="black"/>
<path id="Vector_56" opacity="0.5" d="M245.371 117.942V118.268C245.371 119.069 245.053 119.837 244.488 120.403C243.923 120.969 243.157 121.287 242.358 121.287H120.576V114.922H242.358C243.157 114.922 243.923 115.24 244.488 115.807C245.053 116.373 245.371 117.141 245.371 117.942Z" fill="black"/>
<path id="Vector_57" d="M207.531 128.165C207.531 118.557 211.875 110.767 217.232 110.767H206.94C201.577 110.767 197.232 118.557 197.232 128.165C197.232 137.773 201.577 145.558 206.94 145.558H217.22C211.875 145.576 207.531 137.792 207.531 128.165Z" fill="black"/>
<path id="Vector_58" opacity="0.7" d="M207.531 128.165C207.531 118.557 211.875 110.767 217.232 110.767H206.94C201.577 110.767 197.232 118.557 197.232 128.165C197.232 137.773 201.577 145.558 206.94 145.558H217.22C211.875 145.576 207.531 137.792 207.531 128.165Z" fill="#263238"/>
<path id="Vector_59" d="M217.225 145.585C222.586 145.585 226.933 137.795 226.933 128.187C226.933 118.578 222.586 110.788 217.225 110.788C211.864 110.788 207.518 118.578 207.518 128.187C207.518 137.795 211.864 145.585 217.225 145.585Z" fill="#263238"/>
<path id="Vector_60" d="M218.01 141.747C221.811 141.747 224.892 135.674 224.892 128.183C224.892 120.692 221.811 114.62 218.01 114.62C214.21 114.62 211.129 120.692 211.129 128.183C211.129 135.674 214.21 141.747 218.01 141.747Z" fill="white"/>
<path id="Vector_61" d="M217.369 139.921C221.007 139.921 223.956 134.665 223.956 128.182C223.956 121.698 221.007 116.442 217.369 116.442C213.732 116.442 210.783 121.698 210.783 128.182C210.783 134.665 213.732 139.921 217.369 139.921Z" fill="#263238"/>
<path id="Vector_62" d="M215.93 136.753C218.585 136.753 220.738 132.916 220.738 128.184C220.738 123.451 218.585 119.614 215.93 119.614C213.274 119.614 211.121 123.451 211.121 128.184C211.121 132.916 213.274 136.753 215.93 136.753Z" fill="black"/>
</g>
</g>
</svg>
